<svg width="604" height="335" viewBox="0 0 604 335" fill="none" xmlns="http://www.w3.org/2000/svg">
<path d="M76.2718 248.447C76.3304 249.479 76.4146 250.445 76.4146 251.502C76.4146 262.886 72.9996 272.92 67.6951 279H85.9927H95.1423H113.44C108.134 272.92 104.721 262.886 104.721 251.502C104.721 250.445 104.804 249.479 104.863 248.447H95.1423H85.9927H76.2718Z" fill="#95A5A6"/>
<path d="M76.2238 248.447C76.2827 249.038 76.3671 250.22 76.3671 251.404C76.3671 254.36 76.1551 257.317 75.6507 260.274H105.484C104.98 257.317 104.769 254.36 104.769 251.404C104.769 250.22 104.852 249.038 104.911 248.447H95.1577H85.9773H76.2238Z" fill="#7F8C8D"/>
<path d="M19.464 152.401C15.894 152.401 13 154.804 13 158.407V164.411V176.422V188.433V200.443V206.448V212.454V218.458V230.47V242.48V248.485C13 251.488 15.894 254.49 19.464 254.49H25.9279H109.959H148.743H155.207H161.671C165.239 254.49 168.135 251.488 168.135 248.485V242.48V200.443V194.438V188.433V176.422V164.411V158.407C168.135 154.804 165.239 152.401 161.671 152.401H155.207H122.887H116.424H58.2481H32.3919H25.9279H19.464Z" fill="#BDC3C7"/>
<path d="M161.846 158.235H19.2893V242.823H161.846V158.235Z" fill="#34495E"/>
<path d="M161.846 165.041L25.5786 242.823H152.644H161.846V233.249V165.041Z" fill="#2C3E50"/>
<path d="M75.515 181.021C84.7093 169.94 101.758 172.126 108.129 185.072C103.642 185.074 96.6183 185.069 92.8131 185.072C90.0545 185.072 88.272 185.008 86.344 186.06C84.0765 187.296 82.3638 189.588 81.7673 192.283L75.515 181.021Z" fill="#F84437"/>
<path d="M84.7137 193.955C84.7137 197.645 87.5279 200.645 90.9856 200.645C94.444 200.645 97.2574 197.645 97.2574 193.955C97.2574 190.266 94.444 187.265 90.9856 187.265C87.5257 187.263 84.7137 190.266 84.7137 193.955Z" fill="#2299F8"/>
<path d="M93.0762 202.665C89.3444 203.816 84.9763 202.539 82.5853 198.242C80.7601 194.966 75.9336 186.224 73.7427 182.248C66.061 194.493 72.6802 211.177 86.6245 214.025L93.0762 202.665Z" fill="#5ACF5F"/>
<path d="M97.03 187.268C100.087 190.17 100.753 194.868 98.6825 198.51C97.1235 201.257 92.1428 209.834 89.7312 213.985C103.859 214.874 114.158 200.742 109.506 187.265L97.03 187.268Z" fill="#FFC107"/>
<path d="M46.6454 228.617C46.4567 229.339 46.2516 230.045 46.0301 230.734C45.8168 231.415 45.6035 232.059 45.3901 232.666H44.1718C44.0077 232.289 43.8354 231.858 43.6549 231.374C43.4744 230.89 43.2939 230.373 43.1134 229.823C42.9329 229.273 42.7524 228.695 42.5719 228.088C42.3914 227.481 42.215 226.861 42.0427 226.23H43.6179C43.6918 226.574 43.7779 226.947 43.8764 227.349C43.9748 227.743 44.0774 228.149 44.1841 228.568C44.2907 228.978 44.4015 229.38 44.5163 229.774C44.6312 230.168 44.7461 230.529 44.8609 230.857C44.984 230.48 45.103 230.09 45.2178 229.688C45.3409 229.286 45.4558 228.884 45.5624 228.482C45.6691 228.08 45.7675 227.69 45.8578 227.313C45.9562 226.927 46.0424 226.566 46.1162 226.23H47.2608C47.3346 226.566 47.4167 226.927 47.5069 227.313C47.5972 227.69 47.6915 228.08 47.79 228.482C47.8966 228.884 48.0074 229.286 48.1223 229.688C48.2453 230.09 48.3684 230.48 48.4915 230.857C48.5981 230.529 48.7089 230.168 48.8237 229.774C48.9386 229.38 49.0494 228.978 49.156 228.568C49.2709 228.149 49.3776 227.743 49.476 227.349C49.5745 226.947 49.6606 226.574 49.7345 226.23H51.2728C51.1005 226.861 50.9241 227.481 50.7436 228.088C50.5631 228.695 50.3826 229.273 50.2021 229.823C50.0216 230.373 49.8411 230.89 49.6606 231.374C49.4801 231.858 49.3037 232.289 49.1314 232.666H47.9253C47.712 232.059 47.4905 231.415 47.2608 230.734C47.0393 230.045 46.8341 229.339 46.6454 228.617ZM56.4284 228.617C56.2397 229.339 56.0346 230.045 55.8131 230.734C55.5998 231.415 55.3864 232.059 55.1731 232.666H53.9547C53.7907 232.289 53.6184 231.858 53.4379 231.374C53.2574 230.89 53.0769 230.373 52.8964 229.823C52.7159 229.273 52.5354 228.695 52.3549 228.088C52.1744 227.481 51.998 226.861 51.8257 226.23H53.4009C53.4748 226.574 53.5609 226.947 53.6594 227.349C53.7578 227.743 53.8604 228.149 53.967 228.568C54.0737 228.978 54.1845 229.38 54.2993 229.774C54.4142 230.168 54.5291 230.529 54.6439 230.857C54.767 230.48 54.886 230.09 55.0008 229.688C55.1239 229.286 55.2388 228.884 55.3454 228.482C55.4521 228.08 55.5505 227.69 55.6408 227.313C55.7392 226.927 55.8254 226.566 55.8992 226.23H57.0438C57.1176 226.566 57.1997 226.927 57.2899 227.313C57.3802 227.69 57.4745 228.08 57.573 228.482C57.6796 228.884 57.7904 229.286 57.9052 229.688C58.0283 230.09 58.1514 230.48 58.2745 230.857C58.3811 230.529 58.4919 230.168 58.6067 229.774C58.7216 229.38 58.8324 228.978 58.939 228.568C59.0539 228.149 59.1605 227.743 59.259 227.349C59.3575 226.947 59.4436 226.574 59.5174 226.23H61.0558C60.8835 226.861 60.7071 227.481 60.5266 228.088C60.3461 228.695 60.1656 229.273 59.9851 229.823C59.8046 230.373 59.6241 230.89 59.4436 231.374C59.2631 231.858 59.0867 232.289 58.9144 232.666H57.7083C57.495 232.059 57.2735 231.415 57.0438 230.734C56.8222 230.045 56.6171 229.339 56.4284 228.617ZM66.2114 228.617C66.0227 229.339 65.8176 230.045 65.5961 230.734C65.3827 231.415 65.1694 232.059 64.9561 232.666H63.7377C63.5736 232.289 63.4013 231.858 63.2208 231.374C63.0403 230.89 62.8598 230.373 62.6793 229.823C62.4988 229.273 62.3183 228.695 62.1378 228.088C61.9573 227.481 61.7809 226.861 61.6086 226.23H63.1839C63.2578 226.574 63.3439 226.947 63.4424 227.349C63.5408 227.743 63.6434 228.149 63.75 228.568C63.8567 228.978 63.9675 229.38 64.0823 229.774C64.1972 230.168 64.3121 230.529 64.4269 230.857C64.55 230.48 64.669 230.09 64.7838 229.688C64.9069 229.286 65.0217 228.884 65.1284 228.482C65.2351 228.08 65.3335 227.69 65.4238 227.313C65.5222 226.927 65.6084 226.566 65.6822 226.23H66.8268C66.9006 226.566 66.9826 226.927 67.0729 227.313C67.1631 227.69 67.2575 228.08 67.3559 228.482C67.4626 228.884 67.5734 229.286 67.6882 229.688C67.8113 230.09 67.9344 230.48 68.0574 230.857C68.1641 230.529 68.2749 230.168 68.3897 229.774C68.5046 229.38 68.6154 228.978 68.722 228.568C68.8369 228.149 68.9435 227.743 69.042 227.349C69.1404 226.947 69.2266 226.574 69.3004 226.23H70.8388C70.6665 226.861 70.4901 227.481 70.3096 228.088C70.1291 228.695 69.9486 229.273 69.7681 229.823C69.5876 230.373 69.4071 230.89 69.2266 231.374C69.0461 231.858 68.8697 232.289 68.6974 232.666H67.4913C67.278 232.059 67.0565 231.415 66.8268 230.734C66.6052 230.045 66.4001 229.339 66.2114 228.617ZM73.2996 231.854C73.2996 232.141 73.2011 232.375 73.0042 232.555C72.8155 232.736 72.5858 232.826 72.315 232.826C72.0361 232.826 71.8022 232.736 71.6135 232.555C71.4248 232.375 71.3305 232.141 71.3305 231.854C71.3305 231.567 71.4248 231.333 71.6135 231.152C71.8022 230.964 72.0361 230.869 72.315 230.869C72.5858 230.869 72.8155 230.964 73.0042 231.152C73.2011 231.333 73.2996 231.567 73.2996 231.854ZM76.064 229.282C76.064 229.913 76.1994 230.377 76.4701 230.672C76.7491 230.959 77.106 231.103 77.5408 231.103C77.7788 231.103 78.0003 231.07 78.2054 231.005C78.4187 230.939 78.591 230.861 78.7223 230.771V227.436C78.6156 227.411 78.4844 227.391 78.3285 227.374C78.1726 227.349 77.9757 227.337 77.7377 227.337C77.1962 227.337 76.7819 227.518 76.4948 227.879C76.2076 228.231 76.064 228.699 76.064 229.282ZM80.2114 232.014C80.2114 233.039 79.9489 233.79 79.4238 234.266C78.9069 234.742 78.1111 234.98 77.0363 234.98C76.6424 234.98 76.2568 234.947 75.8794 234.881C75.5102 234.816 75.1738 234.729 74.8702 234.623L75.141 233.355C75.3953 233.462 75.6825 233.548 76.0025 233.614C76.3307 233.679 76.6835 233.712 77.0609 233.712C77.6598 233.712 78.0864 233.589 78.3408 233.343C78.5951 233.097 78.7223 232.732 78.7223 232.248V232.001C78.5746 232.075 78.3777 232.149 78.1316 232.223C77.8936 232.297 77.6188 232.334 77.307 232.334C76.8968 232.334 76.5194 232.268 76.1748 232.137C75.8384 232.006 75.5471 231.813 75.301 231.558C75.0631 231.304 74.8743 230.988 74.7349 230.611C74.6036 230.225 74.538 229.782 74.538 229.282C74.538 228.814 74.6077 228.383 74.7472 227.989C74.8949 227.596 75.1041 227.259 75.3748 226.98C75.6538 226.701 75.9902 226.484 76.384 226.328C76.7778 226.172 77.225 226.094 77.7254 226.094C78.2095 226.094 78.669 226.131 79.1038 226.205C79.5386 226.279 79.9079 226.357 80.2114 226.439V232.014ZM87.9271 229.442C87.9271 229.95 87.8532 230.414 87.7055 230.832C87.5578 231.251 87.3486 231.608 87.0779 231.903C86.8071 232.198 86.4789 232.428 86.0933 232.592C85.7159 232.756 85.2975 232.838 84.838 232.838C84.3786 232.838 83.9601 232.756 83.5827 232.592C83.2053 232.428 82.8812 232.198 82.6105 231.903C82.3397 231.608 82.1264 231.251 81.9705 230.832C81.8229 230.414 81.749 229.95 81.749 229.442C81.749 228.933 81.8229 228.474 81.9705 228.063C82.1264 227.645 82.3397 227.288 82.6105 226.993C82.8894 226.697 83.2176 226.472 83.595 226.316C83.9725 226.152 84.3868 226.07 84.838 226.07C85.2893 226.07 85.7036 226.152 86.081 226.316C86.4666 226.472 86.7948 226.697 87.0656 226.993C87.3363 227.288 87.5455 227.645 87.6932 228.063C87.8491 228.474 87.9271 228.933 87.9271 229.442ZM86.401 229.442C86.401 228.802 86.2615 228.297 85.9826 227.928C85.7118 227.55 85.3303 227.362 84.838 227.362C84.3458 227.362 83.9601 227.55 83.6812 227.928C83.4104 228.297 83.2751 228.802 83.2751 229.442C83.2751 230.09 83.4104 230.603 83.6812 230.98C83.9601 231.357 84.3458 231.546 84.838 231.546C85.3303 231.546 85.7118 231.357 85.9826 230.98C86.2615 230.603 86.401 230.09 86.401 229.442ZM95.2823 229.442C95.2823 229.95 95.2085 230.414 95.0608 230.832C94.9131 231.251 94.7039 231.608 94.4332 231.903C94.1624 232.198 93.8342 232.428 93.4486 232.592C93.0712 232.756 92.6528 232.838 92.1933 232.838C91.7338 232.838 91.3154 232.756 90.938 232.592C90.5606 232.428 90.2365 232.198 89.9658 231.903C89.695 231.608 89.4817 231.251 89.3258 230.832C89.1781 230.414 89.1043 229.95 89.1043 229.442C89.1043 228.933 89.1781 228.474 89.3258 228.063C89.4817 227.645 89.695 227.288 89.9658 226.993C90.2447 226.697 90.5729 226.472 90.9503 226.316C91.3277 226.152 91.7421 226.07 92.1933 226.07C92.6446 226.07 93.0589 226.152 93.4363 226.316C93.8219 226.472 94.1501 226.697 94.4208 226.993C94.6916 227.288 94.9008 227.645 95.0485 228.063C95.2044 228.474 95.2823 228.933 95.2823 229.442ZM93.7563 229.442C93.7563 228.802 93.6168 228.297 93.3378 227.928C93.0671 227.55 92.6856 227.362 92.1933 227.362C91.701 227.362 91.3154 227.55 91.0365 227.928C90.7657 228.297 90.6303 228.802 90.6303 229.442C90.6303 230.09 90.7657 230.603 91.0365 230.98C91.3154 231.357 91.701 231.546 92.1933 231.546C92.6856 231.546 93.0671 231.357 93.3378 230.98C93.6168 230.603 93.7563 230.09 93.7563 229.442ZM97.9856 229.282C97.9856 229.913 98.121 230.377 98.3917 230.672C98.6707 230.959 99.0276 231.103 99.4624 231.103C99.7004 231.103 99.9219 231.07 100.127 231.005C100.34 230.939 100.513 230.861 100.644 230.771V227.436C100.537 227.411 100.406 227.391 100.25 227.374C100.094 227.349 99.8973 227.337 99.6593 227.337C99.1178 227.337 98.7035 227.518 98.4163 227.879C98.1292 228.231 97.9856 228.699 97.9856 229.282ZM102.133 232.014C102.133 233.039 101.87 233.79 101.345 234.266C100.828 234.742 100.033 234.98 98.9578 234.98C98.564 234.98 98.1784 234.947 97.801 234.881C97.4318 234.816 97.0954 234.729 96.7918 234.623L97.0626 233.355C97.3169 233.462 97.6041 233.548 97.9241 233.614C98.2523 233.679 98.605 233.712 98.9825 233.712C99.5814 233.712 100.008 233.589 100.262 233.343C100.517 233.097 100.644 232.732 100.644 232.248V232.001C100.496 232.075 100.299 232.149 100.053 232.223C99.8152 232.297 99.5404 232.334 99.2286 232.334C98.8184 232.334 98.441 232.268 98.0964 232.137C97.76 232.006 97.4687 231.813 97.2226 231.558C96.9846 231.304 96.7959 230.988 96.6565 230.611C96.5252 230.225 96.4596 229.782 96.4596 229.282C96.4596 228.814 96.5293 228.383 96.6688 227.989C96.8165 227.596 97.0257 227.259 97.2964 226.98C97.5754 226.701 97.9118 226.484 98.3056 226.328C98.6994 226.172 99.1466 226.094 99.647 226.094C100.131 226.094 100.591 226.131 101.025 226.205C101.46 226.279 101.829 226.357 102.133 226.439V232.014ZM106.267 232.789C105.824 232.781 105.455 232.732 105.16 232.641C104.873 232.551 104.643 232.424 104.471 232.26C104.298 232.088 104.175 231.878 104.101 231.632C104.036 231.378 104.003 231.091 104.003 230.771V223.362L105.492 223.116V230.488C105.492 230.668 105.504 230.82 105.529 230.943C105.562 231.066 105.615 231.173 105.689 231.263C105.763 231.345 105.861 231.411 105.984 231.46C106.116 231.501 106.28 231.534 106.477 231.558L106.267 232.789ZM107.324 229.479C107.324 228.912 107.406 228.416 107.57 227.989C107.743 227.563 107.968 227.21 108.247 226.931C108.526 226.644 108.846 226.431 109.207 226.291C109.568 226.143 109.937 226.07 110.315 226.07C111.201 226.07 111.89 226.344 112.382 226.894C112.883 227.444 113.133 228.264 113.133 229.356C113.133 229.438 113.129 229.532 113.121 229.639C113.121 229.737 113.117 229.827 113.108 229.909H108.863C108.904 230.426 109.084 230.828 109.404 231.115C109.732 231.394 110.204 231.534 110.819 231.534C111.18 231.534 111.509 231.501 111.804 231.435C112.107 231.37 112.345 231.3 112.518 231.226L112.715 232.445C112.633 232.486 112.518 232.531 112.37 232.58C112.231 232.621 112.066 232.658 111.878 232.691C111.697 232.732 111.5 232.765 111.287 232.789C111.074 232.814 110.856 232.826 110.635 232.826C110.069 232.826 109.576 232.744 109.158 232.58C108.739 232.408 108.395 232.174 108.124 231.878C107.853 231.575 107.652 231.222 107.521 230.82C107.39 230.41 107.324 229.963 107.324 229.479ZM111.644 228.814C111.644 228.609 111.615 228.416 111.558 228.236C111.5 228.047 111.414 227.887 111.299 227.756C111.193 227.616 111.057 227.509 110.893 227.436C110.737 227.354 110.549 227.313 110.327 227.313C110.097 227.313 109.896 227.358 109.724 227.448C109.552 227.53 109.404 227.641 109.281 227.78C109.166 227.92 109.076 228.08 109.01 228.26C108.945 228.441 108.899 228.625 108.875 228.814H111.644ZM116.386 231.854C116.386 232.141 116.287 232.375 116.09 232.555C115.902 232.736 115.672 232.826 115.401 232.826C115.122 232.826 114.888 232.736 114.7 232.555C114.511 232.375 114.417 232.141 114.417 231.854C114.417 231.567 114.511 231.333 114.7 231.152C114.888 230.964 115.122 230.869 115.401 230.869C115.672 230.869 115.902 230.964 116.09 231.152C116.287 231.333 116.386 231.567 116.386 231.854ZM117.624 229.454C117.624 228.978 117.698 228.535 117.846 228.125C117.993 227.706 118.202 227.345 118.473 227.042C118.752 226.738 119.089 226.5 119.482 226.328C119.876 226.156 120.319 226.07 120.811 226.07C121.419 226.07 121.993 226.18 122.534 226.402L122.214 227.62C122.042 227.546 121.845 227.485 121.624 227.436C121.41 227.386 121.181 227.362 120.935 227.362C120.352 227.362 119.909 227.546 119.605 227.916C119.302 228.277 119.15 228.789 119.15 229.454C119.15 230.094 119.294 230.603 119.581 230.98C119.868 231.349 120.352 231.534 121.033 231.534C121.287 231.534 121.538 231.509 121.784 231.46C122.03 231.411 122.243 231.349 122.424 231.275L122.633 232.506C122.469 232.588 122.219 232.662 121.882 232.728C121.554 232.793 121.213 232.826 120.861 232.826C120.311 232.826 119.831 232.744 119.421 232.58C119.019 232.408 118.682 232.174 118.412 231.878C118.149 231.575 117.952 231.218 117.821 230.808C117.69 230.389 117.624 229.938 117.624 229.454ZM129.475 229.442C129.475 229.95 129.401 230.414 129.253 230.832C129.106 231.251 128.896 231.608 128.626 231.903C128.355 232.198 128.027 232.428 127.641 232.592C127.264 232.756 126.845 232.838 126.386 232.838C125.926 232.838 125.508 232.756 125.13 232.592C124.753 232.428 124.429 232.198 124.158 231.903C123.887 231.608 123.674 231.251 123.518 230.832C123.371 230.414 123.297 229.95 123.297 229.442C123.297 228.933 123.371 228.474 123.518 228.063C123.674 227.645 123.887 227.288 124.158 226.993C124.437 226.697 124.765 226.472 125.143 226.316C125.52 226.152 125.934 226.07 126.386 226.07C126.837 226.07 127.251 226.152 127.629 226.316C128.014 226.472 128.342 226.697 128.613 226.993C128.884 227.288 129.093 227.645 129.241 228.063C129.397 228.474 129.475 228.933 129.475 229.442ZM127.949 229.442C127.949 228.802 127.809 228.297 127.53 227.928C127.259 227.55 126.878 227.362 126.386 227.362C125.893 227.362 125.508 227.55 125.229 227.928C124.958 228.297 124.823 228.802 124.823 229.442C124.823 230.09 124.958 230.603 125.229 230.98C125.508 231.357 125.893 231.546 126.386 231.546C126.878 231.546 127.259 231.357 127.53 230.98C127.809 230.603 127.949 230.09 127.949 229.442ZM134.676 229.282C134.676 228.609 134.59 228.125 134.418 227.829C134.254 227.526 133.942 227.374 133.483 227.374C133.318 227.374 133.138 227.386 132.941 227.411C132.744 227.436 132.596 227.456 132.498 227.473V232.666H131.009V226.439C131.296 226.357 131.669 226.279 132.129 226.205C132.596 226.131 133.089 226.094 133.606 226.094C134.049 226.094 134.41 226.152 134.689 226.266C134.976 226.381 135.214 226.533 135.402 226.722C135.493 226.656 135.608 226.586 135.747 226.513C135.886 226.439 136.042 226.373 136.215 226.316C136.387 226.25 136.567 226.197 136.756 226.156C136.953 226.115 137.15 226.094 137.347 226.094C137.847 226.094 138.258 226.168 138.578 226.316C138.906 226.455 139.16 226.656 139.341 226.919C139.529 227.173 139.656 227.485 139.722 227.854C139.796 228.215 139.833 228.613 139.833 229.048V232.666H138.344V229.282C138.344 228.609 138.262 228.125 138.098 227.829C137.934 227.526 137.618 227.374 137.15 227.374C136.912 227.374 136.686 227.415 136.473 227.497C136.26 227.571 136.1 227.645 135.993 227.719C136.059 227.924 136.104 228.141 136.128 228.371C136.153 228.601 136.165 228.847 136.165 229.109V232.666H134.676V229.282Z" fill="white"/>
<path d="M46.6454 228.617C46.4567 229.339 46.2516 230.045 46.0301 230.734C45.8168 231.415 45.6035 232.059 45.3901 232.666H44.1718C44.0077 232.289 43.8354 231.858 43.6549 231.374C43.4744 230.89 43.2939 230.373 43.1134 229.823C42.9329 229.273 42.7524 228.695 42.5719 228.088C42.3914 227.481 42.215 226.861 42.0427 226.23H43.6179C43.6918 226.574 43.7779 226.947 43.8764 227.349C43.9748 227.743 44.0774 228.149 44.1841 228.568C44.2907 228.978 44.4015 229.38 44.5163 229.774C44.6312 230.168 44.7461 230.529 44.8609 230.857C44.984 230.48 45.103 230.09 45.2178 229.688C45.3409 229.286 45.4558 228.884 45.5624 228.482C45.6691 228.08 45.7675 227.69 45.8578 227.313C45.9562 226.927 46.0424 226.566 46.1162 226.23H47.2608C47.3346 226.566 47.4167 226.927 47.5069 227.313C47.5972 227.69 47.6915 228.08 47.79 228.482C47.8966 228.884 48.0074 229.286 48.1223 229.688C48.2453 230.09 48.3684 230.48 48.4915 230.857C48.5981 230.529 48.7089 230.168 48.8237 229.774C48.9386 229.38 49.0494 228.978 49.156 228.568C49.2709 228.149 49.3776 227.743 49.476 227.349C49.5745 226.947 49.6606 226.574 49.7345 226.23H51.2728C51.1005 226.861 50.9241 227.481 50.7436 228.088C50.5631 228.695 50.3826 229.273 50.2021 229.823C50.0216 230.373 49.8411 230.89 49.6606 231.374C49.4801 231.858 49.3037 232.289 49.1314 232.666H47.9253C47.712 232.059 47.4905 231.415 47.2608 230.734C47.0393 230.045 46.8341 229.339 46.6454 228.617ZM56.4284 228.617C56.2397 229.339 56.0346 230.045 55.8131 230.734C55.5998 231.415 55.3864 232.059 55.1731 232.666H53.9547C53.7907 232.289 53.6184 231.858 53.4379 231.374C53.2574 230.89 53.0769 230.373 52.8964 229.823C52.7159 229.273 52.5354 228.695 52.3549 228.088C52.1744 227.481 51.998 226.861 51.8257 226.23H53.4009C53.4748 226.574 53.5609 226.947 53.6594 227.349C53.7578 227.743 53.8604 228.149 53.967 228.568C54.0737 228.978 54.1845 229.38 54.2993 229.774C54.4142 230.168 54.5291 230.529 54.6439 230.857C54.767 230.48 54.886 230.09 55.0008 229.688C55.1239 229.286 55.2388 228.884 55.3454 228.482C55.4521 228.08 55.5505 227.69 55.6408 227.313C55.7392 226.927 55.8254 226.566 55.8992 226.23H57.0438C57.1176 226.566 57.1997 226.927 57.2899 227.313C57.3802 227.69 57.4745 228.08 57.573 228.482C57.6796 228.884 57.7904 229.286 57.9052 229.688C58.0283 230.09 58.1514 230.48 58.2745 230.857C58.3811 230.529 58.4919 230.168 58.6067 229.774C58.7216 229.38 58.8324 228.978 58.939 228.568C59.0539 228.149 59.1605 227.743 59.259 227.349C59.3575 226.947 59.4436 226.574 59.5174 226.23H61.0558C60.8835 226.861 60.7071 227.481 60.5266 228.088C60.3461 228.695 60.1656 229.273 59.9851 229.823C59.8046 230.373 59.6241 230.89 59.4436 231.374C59.2631 231.858 59.0867 232.289 58.9144 232.666H57.7083C57.495 232.059 57.2735 231.415 57.0438 230.734C56.8222 230.045 56.6171 229.339 56.4284 228.617ZM66.2114 228.617C66.0227 229.339 65.8176 230.045 65.5961 230.734C65.3827 231.415 65.1694 232.059 64.9561 232.666H63.7377C63.5736 232.289 63.4013 231.858 63.2208 231.374C63.0403 230.89 62.8598 230.373 62.6793 229.823C62.4988 229.273 62.3183 228.695 62.1378 228.088C61.9573 227.481 61.7809 226.861 61.6086 226.23H63.1839C63.2578 226.574 63.3439 226.947 63.4424 227.349C63.5408 227.743 63.6434 228.149 63.75 228.568C63.8567 228.978 63.9675 229.38 64.0823 229.774C64.1972 230.168 64.3121 230.529 64.4269 230.857C64.55 230.48 64.669 230.09 64.7838 229.688C64.9069 229.286 65.0217 228.884 65.1284 228.482C65.2351 228.08 65.3335 227.69 65.4238 227.313C65.5222 226.927 65.6084 226.566 65.6822 226.23H66.8268C66.9006 226.566 66.9826 226.927 67.0729 227.313C67.1631 227.69 67.2575 228.08 67.3559 228.482C67.4626 228.884 67.5734 229.286 67.6882 229.688C67.8113 230.09 67.9344 230.48 68.0574 230.857C68.1641 230.529 68.2749 230.168 68.3897 229.774C68.5046 229.38 68.6154 228.978 68.722 228.568C68.8369 228.149 68.9435 227.743 69.042 227.349C69.1404 226.947 69.2266 226.574 69.3004 226.23H70.8388C70.6665 226.861 70.4901 227.481 70.3096 228.088C70.1291 228.695 69.9486 229.273 69.7681 229.823C69.5876 230.373 69.4071 230.89 69.2266 231.374C69.0461 231.858 68.8697 232.289 68.6974 232.666H67.4913C67.278 232.059 67.0565 231.415 66.8268 230.734C66.6052 230.045 66.4001 229.339 66.2114 228.617ZM73.2996 231.854C73.2996 232.141 73.2011 232.375 73.0042 232.555C72.8155 232.736 72.5858 232.826 72.315 232.826C72.0361 232.826 71.8022 232.736 71.6135 232.555C71.4248 232.375 71.3305 232.141 71.3305 231.854C71.3305 231.567 71.4248 231.333 71.6135 231.152C71.8022 230.964 72.0361 230.869 72.315 230.869C72.5858 230.869 72.8155 230.964 73.0042 231.152C73.2011 231.333 73.2996 231.567 73.2996 231.854ZM76.064 229.282C76.064 229.913 76.1994 230.377 76.4701 230.672C76.7491 230.959 77.106 231.103 77.5408 231.103C77.7788 231.103 78.0003 231.07 78.2054 231.005C78.4187 230.939 78.591 230.861 78.7223 230.771V227.436C78.6156 227.411 78.4844 227.391 78.3285 227.374C78.1726 227.349 77.9757 227.337 77.7377 227.337C77.1962 227.337 76.7819 227.518 76.4948 227.879C76.2076 228.231 76.064 228.699 76.064 229.282ZM80.2114 232.014C80.2114 233.039 79.9489 233.79 79.4238 234.266C78.9069 234.742 78.1111 234.98 77.0363 234.98C76.6424 234.98 76.2568 234.947 75.8794 234.881C75.5102 234.816 75.1738 234.729 74.8702 234.623L75.141 233.355C75.3953 233.462 75.6825 233.548 76.0025 233.614C76.3307 233.679 76.6835 233.712 77.0609 233.712C77.6598 233.712 78.0864 233.589 78.3408 233.343C78.5951 233.097 78.7223 232.732 78.7223 232.248V232.001C78.5746 232.075 78.3777 232.149 78.1316 232.223C77.8936 232.297 77.6188 232.334 77.307 232.334C76.8968 232.334 76.5194 232.268 76.1748 232.137C75.8384 232.006 75.5471 231.813 75.301 231.558C75.0631 231.304 74.8743 230.988 74.7349 230.611C74.6036 230.225 74.538 229.782 74.538 229.282C74.538 228.814 74.6077 228.383 74.7472 227.989C74.8949 227.596 75.1041 227.259 75.3748 226.98C75.6538 226.701 75.9902 226.484 76.384 226.328C76.7778 226.172 77.225 226.094 77.7254 226.094C78.2095 226.094 78.669 226.131 79.1038 226.205C79.5386 226.279 79.9079 226.357 80.2114 226.439V232.014ZM87.9271 229.442C87.9271 229.95 87.8532 230.414 87.7055 230.832C87.5578 231.251 87.3486 231.608 87.0779 231.903C86.8071 232.198 86.4789 232.428 86.0933 232.592C85.7159 232.756 85.2975 232.838 84.838 232.838C84.3786 232.838 83.9601 232.756 83.5827 232.592C83.2053 232.428 82.8812 232.198 82.6105 231.903C82.3397 231.608 82.1264 231.251 81.9705 230.832C81.8229 230.414 81.749 229.95 81.749 229.442C81.749 228.933 81.8229 228.474 81.9705 228.063C82.1264 227.645 82.3397 227.288 82.6105 226.993C82.8894 226.697 83.2176 226.472 83.595 226.316C83.9725 226.152 84.3868 226.07 84.838 226.07C85.2893 226.07 85.7036 226.152 86.081 226.316C86.4666 226.472 86.7948 226.697 87.0656 226.993C87.3363 227.288 87.5455 227.645 87.6932 228.063C87.8491 228.474 87.9271 228.933 87.9271 229.442ZM86.401 229.442C86.401 228.802 86.2615 228.297 85.9826 227.928C85.7118 227.55 85.3303 227.362 84.838 227.362C84.3458 227.362 83.9601 227.55 83.6812 227.928C83.4104 228.297 83.2751 228.802 83.2751 229.442C83.2751 230.09 83.4104 230.603 83.6812 230.98C83.9601 231.357 84.3458 231.546 84.838 231.546C85.3303 231.546 85.7118 231.357 85.9826 230.98C86.2615 230.603 86.401 230.09 86.401 229.442ZM95.2823 229.442C95.2823 229.95 95.2085 230.414 95.0608 230.832C94.9131 231.251 94.7039 231.608 94.4332 231.903C94.1624 232.198 93.8342 232.428 93.4486 232.592C93.0712 232.756 92.6528 232.838 92.1933 232.838C91.7338 232.838 91.3154 232.756 90.938 232.592C90.5606 232.428 90.2365 232.198 89.9658 231.903C89.695 231.608 89.4817 231.251 89.3258 230.832C89.1781 230.414 89.1043 229.95 89.1043 229.442C89.1043 228.933 89.1781 228.474 89.3258 228.063C89.4817 227.645 89.695 227.288 89.9658 226.993C90.2447 226.697 90.5729 226.472 90.9503 226.316C91.3277 226.152 91.7421 226.07 92.1933 226.07C92.6446 226.07 93.0589 226.152 93.4363 226.316C93.8219 226.472 94.1501 226.697 94.4208 226.993C94.6916 227.288 94.9008 227.645 95.0485 228.063C95.2044 228.474 95.2823 228.933 95.2823 229.442ZM93.7563 229.442C93.7563 228.802 93.6168 228.297 93.3378 227.928C93.0671 227.55 92.6856 227.362 92.1933 227.362C91.701 227.362 91.3154 227.55 91.0365 227.928C90.7657 228.297 90.6303 228.802 90.6303 229.442C90.6303 230.09 90.7657 230.603 91.0365 230.98C91.3154 231.357 91.701 231.546 92.1933 231.546C92.6856 231.546 93.0671 231.357 93.3378 230.98C93.6168 230.603 93.7563 230.09 93.7563 229.442ZM97.9856 229.282C97.9856 229.913 98.121 230.377 98.3917 230.672C98.6707 230.959 99.0276 231.103 99.4624 231.103C99.7004 231.103 99.9219 231.07 100.127 231.005C100.34 230.939 100.513 230.861 100.644 230.771V227.436C100.537 227.411 100.406 227.391 100.25 227.374C100.094 227.349 99.8973 227.337 99.6593 227.337C99.1178 227.337 98.7035 227.518 98.4163 227.879C98.1292 228.231 97.9856 228.699 97.9856 229.282ZM102.133 232.014C102.133 233.039 101.87 233.79 101.345 234.266C100.828 234.742 100.033 234.98 98.9578 234.98C98.564 234.98 98.1784 234.947 97.801 234.881C97.4318 234.816 97.0954 234.729 96.7918 234.623L97.0626 233.355C97.3169 233.462 97.6041 233.548 97.9241 233.614C98.2523 233.679 98.605 233.712 98.9825 233.712C99.5814 233.712 100.008 233.589 100.262 233.343C100.517 233.097 100.644 232.732 100.644 232.248V232.001C100.496 232.075 100.299 232.149 100.053 232.223C99.8152 232.297 99.5404 232.334 99.2286 232.334C98.8184 232.334 98.441 232.268 98.0964 232.137C97.76 232.006 97.4687 231.813 97.2226 231.558C96.9846 231.304 96.7959 230.988 96.6565 230.611C96.5252 230.225 96.4596 229.782 96.4596 229.282C96.4596 228.814 96.5293 228.383 96.6688 227.989C96.8165 227.596 97.0257 227.259 97.2964 226.98C97.5754 226.701 97.9118 226.484 98.3056 226.328C98.6994 226.172 99.1466 226.094 99.647 226.094C100.131 226.094 100.591 226.131 101.025 226.205C101.46 226.279 101.829 226.357 102.133 226.439V232.014ZM106.267 232.789C105.824 232.781 105.455 232.732 105.16 232.641C104.873 232.551 104.643 232.424 104.471 232.26C104.298 232.088 104.175 231.878 104.101 231.632C104.036 231.378 104.003 231.091 104.003 230.771V223.362L105.492 223.116V230.488C105.492 230.668 105.504 230.82 105.529 230.943C105.562 231.066 105.615 231.173 105.689 231.263C105.763 231.345 105.861 231.411 105.984 231.46C106.116 231.501 106.28 231.534 106.477 231.558L106.267 232.789ZM107.324 229.479C107.324 228.912 107.406 228.416 107.57 227.989C107.743 227.563 107.968 227.21 108.247 226.931C108.526 226.644 108.846 226.431 109.207 226.291C109.568 226.143 109.937 226.07 110.315 226.07C111.201 226.07 111.89 226.344 112.382 226.894C112.883 227.444 113.133 228.264 113.133 229.356C113.133 229.438 113.129 229.532 113.121 229.639C113.121 229.737 113.117 229.827 113.108 229.909H108.863C108.904 230.426 109.084 230.828 109.404 231.115C109.732 231.394 110.204 231.534 110.819 231.534C111.18 231.534 111.509 231.501 111.804 231.435C112.107 231.37 112.345 231.3 112.518 231.226L112.715 232.445C112.633 232.486 112.518 232.531 112.37 232.58C112.231 232.621 112.066 232.658 111.878 232.691C111.697 232.732 111.5 232.765 111.287 232.789C111.074 232.814 110.856 232.826 110.635 232.826C110.069 232.826 109.576 232.744 109.158 232.58C108.739 232.408 108.395 232.174 108.124 231.878C107.853 231.575 107.652 231.222 107.521 230.82C107.39 230.41 107.324 229.963 107.324 229.479ZM111.644 228.814C111.644 228.609 111.615 228.416 111.558 228.236C111.5 228.047 111.414 227.887 111.299 227.756C111.193 227.616 111.057 227.509 110.893 227.436C110.737 227.354 110.549 227.313 110.327 227.313C110.097 227.313 109.896 227.358 109.724 227.448C109.552 227.53 109.404 227.641 109.281 227.78C109.166 227.92 109.076 228.08 109.01 228.26C108.945 228.441 108.899 228.625 108.875 228.814H111.644ZM116.386 231.854C116.386 232.141 116.287 232.375 116.09 232.555C115.902 232.736 115.672 232.826 115.401 232.826C115.122 232.826 114.888 232.736 114.7 232.555C114.511 232.375 114.417 232.141 114.417 231.854C114.417 231.567 114.511 231.333 114.7 231.152C114.888 230.964 115.122 230.869 115.401 230.869C115.672 230.869 115.902 230.964 116.09 231.152C116.287 231.333 116.386 231.567 116.386 231.854ZM117.624 229.454C117.624 228.978 117.698 228.535 117.846 228.125C117.993 227.706 118.202 227.345 118.473 227.042C118.752 226.738 119.089 226.5 119.482 226.328C119.876 226.156 120.319 226.07 120.811 226.07C121.419 226.07 121.993 226.18 122.534 226.402L122.214 227.62C122.042 227.546 121.845 227.485 121.624 227.436C121.41 227.386 121.181 227.362 120.935 227.362C120.352 227.362 119.909 227.546 119.605 227.916C119.302 228.277 119.15 228.789 119.15 229.454C119.15 230.094 119.294 230.603 119.581 230.98C119.868 231.349 120.352 231.534 121.033 231.534C121.287 231.534 121.538 231.509 121.784 231.46C122.03 231.411 122.243 231.349 122.424 231.275L122.633 232.506C122.469 232.588 122.219 232.662 121.882 232.728C121.554 232.793 121.213 232.826 120.861 232.826C120.311 232.826 119.831 232.744 119.421 232.58C119.019 232.408 118.682 232.174 118.412 231.878C118.149 231.575 117.952 231.218 117.821 230.808C117.69 230.389 117.624 229.938 117.624 229.454ZM129.475 229.442C129.475 229.95 129.401 230.414 129.253 230.832C129.106 231.251 128.896 231.608 128.626 231.903C128.355 232.198 128.027 232.428 127.641 232.592C127.264 232.756 126.845 232.838 126.386 232.838C125.926 232.838 125.508 232.756 125.13 232.592C124.753 232.428 124.429 232.198 124.158 231.903C123.887 231.608 123.674 231.251 123.518 230.832C123.371 230.414 123.297 229.95 123.297 229.442C123.297 228.933 123.371 228.474 123.518 228.063C123.674 227.645 123.887 227.288 124.158 226.993C124.437 226.697 124.765 226.472 125.143 226.316C125.52 226.152 125.934 226.07 126.386 226.07C126.837 226.07 127.251 226.152 127.629 226.316C128.014 226.472 128.342 226.697 128.613 226.993C128.884 227.288 129.093 227.645 129.241 228.063C129.397 228.474 129.475 228.933 129.475 229.442ZM127.949 229.442C127.949 228.802 127.809 228.297 127.53 227.928C127.259 227.55 126.878 227.362 126.386 227.362C125.893 227.362 125.508 227.55 125.229 227.928C124.958 228.297 124.823 228.802 124.823 229.442C124.823 230.09 124.958 230.603 125.229 230.98C125.508 231.357 125.893 231.546 126.386 231.546C126.878 231.546 127.259 231.357 127.53 230.98C127.809 230.603 127.949 230.09 127.949 229.442ZM134.676 229.282C134.676 228.609 134.59 228.125 134.418 227.829C134.254 227.526 133.942 227.374 133.483 227.374C133.318 227.374 133.138 227.386 132.941 227.411C132.744 227.436 132.596 227.456 132.498 227.473V232.666H131.009V226.439C131.296 226.357 131.669 226.279 132.129 226.205C132.596 226.131 133.089 226.094 133.606 226.094C134.049 226.094 134.41 226.152 134.689 226.266C134.976 226.381 135.214 226.533 135.402 226.722C135.493 226.656 135.608 226.586 135.747 226.513C135.886 226.439 136.042 226.373 136.215 226.316C136.387 226.25 136.567 226.197 136.756 226.156C136.953 226.115 137.15 226.094 137.347 226.094C137.847 226.094 138.258 226.168 138.578 226.316C138.906 226.455 139.16 226.656 139.341 226.919C139.529 227.173 139.656 227.485 139.722 227.854C139.796 228.215 139.833 228.613 139.833 229.048V232.666H138.344V229.282C138.344 228.609 138.262 228.125 138.098 227.829C137.934 227.526 137.618 227.374 137.15 227.374C136.912 227.374 136.686 227.415 136.473 227.497C136.26 227.571 136.1 227.645 135.993 227.719C136.059 227.924 136.104 228.141 136.128 228.371C136.153 228.601 136.165 228.847 136.165 229.109V232.666H134.676V229.282Z" fill="white" fill-opacity="0.2"/>
<rect x="120.536" y="184.23" width="16.3575" height="34.2365" transform="rotate(-15 120.536 184.23)" fill="#DCDCDC"/>
<path d="M136.631 181.099L145.24 186.773L151.712 210.927L145.098 212.699L136.631 181.099Z" fill="#DCDCDC"/>
<path d="M136.631 181.099L145.24 186.773L151.712 210.927L145.098 212.699L136.631 181.099Z" fill="white" fill-opacity="0.2"/>
<path d="M136.207 179.244L122.135 183.014C120.728 183.391 119.885 184.851 120.262 186.258L128.146 215.681C128.523 217.088 129.983 217.931 131.39 217.554L150.579 212.412C151.986 212.035 152.829 210.575 152.452 209.168L146.282 186.142L136.207 179.244ZM136.721 181.162L144.619 186.587L139.885 187.856C139.246 188.027 138.435 187.559 138.263 186.919L136.721 181.162ZM151.172 209.511C151.344 210.151 151.003 210.927 150.236 211.133L131.047 216.275C130.408 216.446 129.631 216.106 129.425 215.338L121.541 185.915C121.37 185.276 121.71 184.499 122.478 184.293L126.316 183.265L126.658 184.544L127.938 184.201L128.28 185.481L127.001 185.824L127.344 187.103L128.623 186.76L128.966 188.039L127.687 188.382L128.029 189.661L129.309 189.318L129.651 190.598L128.372 190.941L128.715 192.22L129.994 191.877L130.337 193.156L129.058 193.499L129.4 194.778L130.68 194.435L131.023 195.715L129.743 196.057L130.086 197.337L131.365 196.994L131.708 198.273L130.429 198.616L130.772 199.895L132.051 199.552L132.394 200.832C131.055 201.465 130.246 203.052 130.692 204.715C131.172 206.506 132.956 207.536 134.747 207.057C136.538 206.577 137.568 204.793 137.088 203.002C136.677 201.466 135.183 200.496 133.673 200.489L133.33 199.21L132.987 197.93L134.267 197.588L133.924 196.308L132.645 196.651L132.302 195.372L133.581 195.029L133.238 193.75L131.959 194.093L131.616 192.813L132.895 192.471L132.553 191.191L131.273 191.534L130.931 190.255L132.21 189.912L131.867 188.633L130.588 188.976L130.245 187.696L131.524 187.354L131.182 186.074L129.902 186.417L129.56 185.138L130.839 184.795L130.496 183.516L129.217 183.859L128.874 182.579L135.27 180.866L136.984 187.262C137.361 188.669 138.821 189.512 140.228 189.135L145.345 187.764L151.172 209.511ZM133.376 201.94C134.399 201.665 135.535 202.321 135.809 203.344C136.083 204.368 135.428 205.503 134.404 205.777C133.381 206.052 132.245 205.396 131.971 204.373C131.697 203.349 132.353 202.214 133.376 201.94Z" fill="black"/>
<rect x="128.398" y="201.815" width="10.271" height="9.12974" transform="rotate(-15 128.398 201.815)" fill="#DCDCDC"/>
<g clip-path="url(#clip0_19_2)">
<path d="M140.696 205.54C140.602 205.189 140.481 204.865 140.341 204.555L135.324 205.899L135.861 207.902L138.733 207.132C138.781 207.823 138.552 208.48 138.094 209.007L138.45 210.339L140.164 209.88C140.919 208.683 141.13 207.161 140.696 205.54Z" fill="#4285F4"/>
<path d="M136.99 212.115C138.428 211.73 139.503 210.928 140.164 209.88L138.094 209.007C137.7 209.455 137.144 209.813 136.425 210.006C135.035 210.378 133.607 209.757 132.846 208.605L131.079 209.078L131.447 210.45C132.788 211.956 134.907 212.673 136.99 212.115Z" fill="#34A853"/>
<path d="M132.846 208.605C132.65 208.315 132.5 207.988 132.405 207.633C132.31 207.278 132.281 206.919 132.301 206.571L131.934 205.199L130.167 205.673C129.995 206.489 130.003 207.353 130.234 208.215C130.465 209.076 130.89 209.828 131.447 210.45L132.846 208.605Z" fill="#FBBC05"/>
<path d="M134.699 203.568C135.485 203.358 136.259 203.44 136.956 203.82L138.068 201.895C136.918 201.28 135.573 201.074 134.134 201.459C132.052 202.017 130.575 203.698 130.167 205.673L132.301 206.571C132.384 205.193 133.31 203.941 134.699 203.568Z" fill="#EA4335"/>
</g>
<rect x="362.147" y="100.079" width="41.2945" height="86.4304" fill="#DCDCDC"/>
<path d="M403.441 102.96L420.727 122.42V185.549H403.441V102.96Z" fill="#DCDCDC"/>
<path d="M403.441 102.96L420.727 122.42V185.549H403.441V102.96Z" fill="white" fill-opacity="0.2"/>
<path d="M403.619 98.1581H366.842C363.164 98.1581 360.155 101.167 360.155 104.845V181.743C360.155 185.421 363.164 188.43 366.842 188.43H416.993C420.67 188.43 423.679 185.421 423.679 181.743V121.562L403.619 98.1581ZM403.619 103.173L419.333 121.562H406.962C405.291 121.562 403.619 119.89 403.619 118.219V103.173ZM420.336 181.743C420.336 183.415 418.999 185.086 416.993 185.086H366.842C365.17 185.086 363.498 183.749 363.498 181.743V104.845C363.498 103.173 364.836 101.501 366.842 101.501H376.872V104.845H380.215V108.188H376.872V111.532H380.215V114.875H376.872V118.218H380.215V121.562H376.872V124.905H380.215V128.249H376.872V131.592H380.215V134.935H376.872V138.279H380.215V141.622H376.872V144.966H380.215V148.309C376.537 148.978 373.528 152.321 373.528 156.668C373.528 161.348 377.206 165.026 381.887 165.026C386.567 165.026 390.245 161.348 390.245 156.668C390.245 152.656 387.236 149.312 383.559 148.309V144.966V141.622H386.902V138.279H383.559V134.935H386.902V131.592H383.559V128.249H386.902V124.905H383.559V121.562H386.902V118.218H383.559V114.875H386.902V111.532H383.559V108.188H386.902V104.845H383.559V101.501H400.276V118.218C400.276 121.896 403.285 124.905 406.962 124.905H420.336V181.743ZM381.887 151.652C384.562 151.652 386.902 153.993 386.902 156.668C386.902 159.342 384.562 161.683 381.887 161.683C379.212 161.683 376.872 159.342 376.872 156.668C376.872 153.993 379.212 151.652 381.887 151.652Z" fill="black"/>
<rect x="369.829" y="148.096" width="25.9291" height="23.0481" fill="#DCDCDC"/>
<g clip-path="url(#clip1_19_2)">
<path d="M397.383 165.215C397.383 164.298 397.302 163.428 397.163 162.581H384.05V167.814H391.558C391.221 169.532 390.235 170.982 388.773 171.968V175.45H393.252C395.875 173.024 397.383 169.45 397.383 165.215Z" fill="#4285F4"/>
<path d="M384.05 178.826C387.81 178.826 390.955 177.573 393.252 175.45L388.773 171.968C387.52 172.804 385.93 173.314 384.05 173.314C380.418 173.314 377.343 170.866 376.241 167.559H371.622V171.145C373.908 175.693 378.608 178.826 384.05 178.826Z" fill="#34A853"/>
<path d="M376.241 167.559C375.951 166.723 375.8 165.83 375.8 164.902C375.8 163.973 375.962 163.08 376.241 162.244V158.659H371.622C370.671 160.538 370.125 162.65 370.125 164.902C370.125 167.153 370.671 169.265 371.622 171.145L376.241 167.559Z" fill="#FBBC05"/>
<path d="M384.05 156.489C386.104 156.489 387.938 157.196 389.388 158.577L393.357 154.609C390.955 152.358 387.81 150.977 384.05 150.977C378.608 150.977 373.908 154.11 371.622 158.659L376.241 162.244C377.343 158.937 380.418 156.489 384.05 156.489Z" fill="#EA4335"/>
</g>
<path d="M434.006 219.552L511.199 174.692L591.227 220.896L514.035 265.757L434.006 219.552Z" fill="#D9DDF6"/>
<path d="M514.036 265.757L591.23 220.896L591.148 225.905L513.954 270.765L514.036 265.757Z" fill="#AABAFD"/>
<path d="M514.036 265.757L513.954 270.765L433.925 224.561L434.008 219.552L514.036 265.757Z" fill="#B7C5FD"/>
<path d="M511.236 126.148L573.714 91.7642L573.65 222.806L513.648 257.677L511.236 126.148Z" fill="#1B2A4F"/>
<path d="M547.782 226.378L547.79 229.229L567.602 217.791L567.594 214.939L547.782 226.378Z" fill="#384E85"/>
<path d="M547.727 206.663L547.734 209.514L567.546 198.077L567.538 195.226L547.727 206.663Z" fill="#384E85"/>
<path d="M547.741 211.592L547.748 214.443L567.56 203.006L567.551 200.153L547.741 211.592Z" fill="#384E85"/>
<path d="M547.755 216.52L547.762 219.372L567.574 207.933L567.565 205.082L547.755 216.52Z" fill="#384E85"/>
<path d="M547.768 221.449L547.776 224.3L567.588 212.862L567.579 210.011L547.768 221.449Z" fill="#384E85"/>
<path d="M547.782 139.556L547.79 142.407L567.602 130.97L567.594 128.119L547.782 139.556Z" fill="#384E85"/>
<path d="M547.727 119.842L547.734 122.694L567.546 111.255L567.538 108.404L547.727 119.842Z" fill="#384E85"/>
<path d="M547.741 124.771L547.748 127.622L567.56 116.184L567.551 113.333L547.741 124.771Z" fill="#384E85"/>
<path d="M547.755 129.7L547.762 132.551L567.574 121.113L567.565 118.261L547.755 129.7Z" fill="#384E85"/>
<path d="M547.768 134.627L547.776 137.48L567.588 126.041L567.579 123.19L547.768 134.627Z" fill="#384E85"/>
<path d="M513.711 126.148L513.648 257.676L451.44 221.762L451.505 90.7182L513.711 126.148Z" fill="#2E4277"/>
<path d="M508.667 130.947L511.236 129.453L511.181 143.394L508.611 144.888L508.667 130.947Z" fill="#4466FB"/>
<path d="M453.971 99.3683L456.54 97.8745L511.236 129.453L508.667 130.947L453.971 99.3683Z" fill="#B7C5FD"/>
<path d="M508.667 130.947L508.613 144.888L453.917 113.309L453.971 99.3683L508.667 130.947Z" fill="#B7C5FD"/>
<path d="M508.667 130.947L508.613 144.888L453.917 113.309L453.971 99.3683L508.667 130.947Z" fill="#6BB5FB"/>
<path d="M461.336 107.4L461.329 109.305L457.499 107.094L457.506 105.189L461.336 107.4Z" fill="#384E85"/>
<path d="M466.896 110.61L466.889 112.515L463.068 110.309L463.075 108.404L466.896 110.61Z" fill="#384E85"/>
<path d="M503.647 131.827L503.639 133.732L499.808 131.521L499.816 129.616L503.647 131.827Z" fill="#384E85"/>
<path d="M503.412 138.106C503.694 137.942 503.694 137.414 503.41 136.927C503.127 136.439 502.668 136.177 502.386 136.341C502.104 136.504 502.104 137.033 502.387 137.52C502.67 138.008 503.13 138.27 503.412 138.106Z" fill="white"/>
<path d="M500.438 134.969C500.843 135.203 501.161 135.762 501.159 136.219C501.158 136.676 500.838 136.867 500.433 136.633C500.036 136.403 499.717 135.844 499.718 135.388C499.72 134.93 500.04 134.739 500.438 134.969Z" fill="white"/>
<path d="M498.49 135.265C498.774 135.102 498.772 134.573 498.489 134.085C498.206 133.598 497.748 133.336 497.464 133.499C497.182 133.664 497.184 134.192 497.467 134.679C497.75 135.167 498.208 135.429 498.49 135.265Z" fill="white"/>
<path d="M496.028 133.843C496.31 133.679 496.308 133.15 496.025 132.663C495.742 132.175 495.284 131.913 495.001 132.078C494.719 132.241 494.72 132.769 495.003 133.258C495.286 133.745 495.744 134.006 496.028 133.843Z" fill="white"/>
<path d="M455.834 102.227L455.506 102.037L455.465 112.293L455.463 112.419L506.748 142.028L507.077 142.218L507.119 131.961L507.12 131.836L455.834 102.227ZM506.638 141.459L455.907 112.168L455.944 102.796L506.677 132.085L506.638 141.459Z" fill="#4466FB"/>
<path d="M508.667 151.906L511.236 150.412L511.181 164.354L508.611 165.847L508.667 151.906Z" fill="#4466FB"/>
<path d="M453.971 120.327L456.54 118.835L511.236 150.412L508.667 151.906L453.971 120.327Z" fill="#B7C5FD"/>
<path d="M508.667 151.906L508.613 165.847L453.917 134.268L453.971 120.327L508.667 151.906Z" fill="#B7C5FD"/>
<path d="M508.667 151.906L508.613 165.847L453.917 134.268L453.971 120.327L508.667 151.906Z" fill="#6BB5FB"/>
<path d="M461.336 128.36L461.329 130.265L457.499 128.053L457.506 126.148L461.336 128.36Z" fill="#384E85"/>
<path d="M466.896 131.57L466.889 133.475L463.068 131.268L463.075 129.363L466.896 131.57Z" fill="#384E85"/>
<path d="M503.647 152.788L503.639 154.692L499.808 152.48L499.816 150.575L503.647 152.788Z" fill="#384E85"/>
<path d="M503.412 159.066C503.694 158.902 503.694 158.373 503.41 157.886C503.127 157.398 502.668 157.136 502.386 157.3C502.103 157.465 502.104 157.992 502.387 158.48C502.67 158.967 503.129 159.229 503.412 159.066Z" fill="white"/>
<path d="M500.438 155.928C500.843 156.162 501.161 156.722 501.159 157.179C501.158 157.636 500.838 157.827 500.433 157.593C500.036 157.364 499.717 156.803 499.718 156.347C499.72 155.89 500.04 155.699 500.438 155.928Z" fill="white"/>
<path d="M498.49 156.225C498.774 156.061 498.772 155.532 498.489 155.045C498.206 154.557 497.748 154.295 497.464 154.46C497.182 154.623 497.184 155.152 497.467 155.64C497.75 156.127 498.208 156.388 498.49 156.225Z" fill="white"/>
<path d="M496.026 154.802C496.31 154.638 496.308 154.109 496.025 153.622C495.742 153.135 495.284 152.872 495.001 153.037C494.719 153.201 494.72 153.729 495.003 154.217C495.286 154.704 495.744 154.967 496.026 154.802Z" fill="white"/>
<path d="M455.834 123.186L455.506 122.997L455.465 133.253L455.463 133.378L506.748 162.987L507.077 163.177L507.119 152.92L507.12 152.795L455.834 123.186ZM506.638 162.419L455.907 133.129L455.944 123.755L506.677 153.046L506.638 162.419Z" fill="#4466FB"/>
<path d="M508.667 172.865L511.236 171.373L511.181 185.313L508.611 186.806L508.667 172.865Z" fill="#4466FB"/>
<path d="M453.971 141.287L456.54 139.794L511.236 171.373L508.667 172.865L453.971 141.287Z" fill="#B7C5FD"/>
<path d="M508.667 172.865L508.613 186.806L453.917 155.227L453.971 141.287L508.667 172.865Z" fill="#B7C5FD"/>
<path d="M508.667 172.865L508.613 186.806L453.917 155.227L453.971 141.287L508.667 172.865Z" fill="#6BB5FB"/>
<path d="M461.336 149.319L461.329 151.224L457.499 149.012L457.506 147.107L461.336 149.319Z" fill="#384E85"/>
<path d="M466.896 152.53L466.889 154.434L463.068 152.229L463.075 150.324L466.896 152.53Z" fill="#384E85"/>
<path d="M503.647 173.747L503.639 175.652L499.808 173.441L499.816 171.536L503.647 173.747Z" fill="#384E85"/>
<path d="M503.412 180.025C503.694 179.861 503.692 179.333 503.409 178.845C503.126 178.358 502.668 178.095 502.386 178.26C502.103 178.424 502.104 178.953 502.387 179.44C502.67 179.927 503.129 180.19 503.412 180.025Z" fill="white"/>
<path d="M500.438 176.889C500.843 177.121 501.161 177.682 501.159 178.138C501.158 178.595 500.838 178.786 500.433 178.553C500.036 178.323 499.717 177.763 499.718 177.306C499.72 176.849 500.04 176.658 500.438 176.889Z" fill="white"/>
<path d="M498.49 177.185C498.774 177.02 498.772 176.491 498.489 176.004C498.206 175.517 497.747 175.254 497.464 175.419C497.182 175.583 497.184 176.111 497.467 176.599C497.75 177.086 498.208 177.349 498.49 177.185Z" fill="white"/>
<path d="M496.026 175.762C496.31 175.597 496.308 175.07 496.025 174.582C495.742 174.095 495.284 173.833 495.001 173.996C494.719 174.16 494.72 174.689 495.003 175.176C495.286 175.664 495.744 175.926 496.026 175.762Z" fill="white"/>
<path d="M455.834 144.146L455.506 143.957L455.465 154.213L455.463 154.337L506.748 183.946L507.077 184.136L507.119 173.88L507.12 173.756L455.834 144.146ZM506.638 183.378L455.907 154.088L455.944 144.714L506.677 174.005L506.638 183.378Z" fill="#4466FB"/>
<path d="M508.667 193.826L511.236 192.332L511.181 206.273L508.611 207.766L508.667 193.826Z" fill="#4466FB"/>
<path d="M453.971 162.247L456.54 160.753L511.236 192.332L508.667 193.826L453.971 162.247Z" fill="#B7C5FD"/>
<path d="M508.667 193.826L508.613 207.766L453.917 176.188L453.971 162.247L508.667 193.826Z" fill="#B7C5FD"/>
<path d="M508.667 193.826L508.613 207.766L453.917 176.188L453.971 162.247L508.667 193.826Z" fill="#6BB5FB"/>
<path d="M461.336 170.279L461.329 172.183L457.499 169.973L457.506 168.068L461.336 170.279Z" fill="#384E85"/>
<path d="M466.896 173.489L466.889 175.394L463.068 173.188L463.075 171.283L466.896 173.489Z" fill="#384E85"/>
<path d="M503.647 194.707L503.639 196.611L499.808 194.4L499.816 192.495L503.647 194.707Z" fill="#384E85"/>
<path d="M503.412 200.984C503.694 200.82 503.692 200.293 503.409 199.804C503.126 199.317 502.668 199.056 502.386 199.219C502.103 199.383 502.104 199.912 502.387 200.399C502.67 200.887 503.128 201.149 503.412 200.984Z" fill="white"/>
<path d="M500.438 197.848C500.843 198.082 501.161 198.641 501.159 199.097C501.158 199.555 500.838 199.746 500.433 199.512C500.036 199.282 499.717 198.723 499.718 198.266C499.72 197.809 500.04 197.618 500.438 197.848Z" fill="white"/>
<path d="M498.49 198.144C498.774 197.979 498.772 197.452 498.489 196.964C498.206 196.477 497.747 196.215 497.464 196.378C497.182 196.542 497.184 197.071 497.467 197.558C497.75 198.046 498.208 198.308 498.49 198.144Z" fill="white"/>
<path d="M496.026 196.721C496.31 196.558 496.308 196.029 496.025 195.542C495.742 195.054 495.283 194.792 495.001 194.956C494.719 195.12 494.72 195.648 495.003 196.135C495.286 196.623 495.744 196.885 496.026 196.721Z" fill="white"/>
<path d="M455.834 165.106L455.506 164.916L455.465 175.172L455.463 175.297L506.748 204.907L507.077 205.096L507.119 194.84L507.12 194.715L455.834 165.106ZM506.638 204.338L455.907 175.047L455.944 165.675L506.677 194.965L506.638 204.338Z" fill="#4466FB"/>
<path d="M508.667 214.785L511.236 213.291L511.181 227.233L508.611 228.726L508.667 214.785Z" fill="#4466FB"/>
<path d="M453.971 183.206L456.54 181.714L511.236 213.291L508.667 214.785L453.971 183.206Z" fill="#B7C5FD"/>
<path d="M508.667 214.785L508.613 228.726L453.917 197.147L453.971 183.206L508.667 214.785Z" fill="#B7C5FD"/>
<path d="M508.667 214.785L508.613 228.726L453.917 197.147L453.971 183.206L508.667 214.785Z" fill="#6BB5FB"/>
<path d="M461.336 191.239L461.329 193.144L457.499 190.932L457.506 189.027L461.336 191.239Z" fill="#384E85"/>
<path d="M466.896 194.449L466.889 196.354L463.068 194.147L463.075 192.242L466.896 194.449Z" fill="#384E85"/>
<path d="M503.647 215.666L503.639 217.571L499.808 215.359L499.816 213.454L503.647 215.666Z" fill="#384E85"/>
<path d="M503.412 221.944C503.694 221.78 503.692 221.252 503.409 220.765C503.126 220.277 502.668 220.015 502.386 220.179C502.103 220.342 502.104 220.871 502.387 221.358C502.67 221.846 503.128 222.108 503.412 221.944Z" fill="white"/>
<path d="M500.438 218.807C500.843 219.041 501.161 219.601 501.159 220.058C501.158 220.514 500.838 220.705 500.433 220.471C500.036 220.242 499.717 219.682 499.718 219.226C499.72 218.769 500.04 218.578 500.438 218.807Z" fill="white"/>
<path d="M498.49 219.103C498.772 218.94 498.772 218.411 498.489 217.924C498.206 217.436 497.747 217.174 497.465 217.338C497.182 217.502 497.182 218.03 497.466 218.517C497.749 219.006 498.208 219.267 498.49 219.103Z" fill="white"/>
<path d="M496.026 217.681C496.31 217.517 496.308 216.988 496.025 216.501C495.742 216.013 495.283 215.751 495.001 215.916C494.719 216.08 494.72 216.607 495.003 217.096C495.286 217.583 495.744 217.844 496.026 217.681Z" fill="white"/>
<path d="M455.834 186.065L455.506 185.876L455.465 196.131L455.463 196.257L506.748 225.866L507.077 226.056L507.119 215.799L507.12 215.674L455.834 186.065ZM506.638 225.298L455.907 196.007L455.944 186.634L506.677 215.924L506.638 225.298Z" fill="#4466FB"/>
<path d="M505.392 230.852V239.513L505.352 247.533L501.783 245.448V237.468L501.823 228.766L505.392 230.852Z" fill="#1B2A4F"/>
<path d="M464.689 207.312L468.259 209.398L468.218 218.099V226.08L464.61 223.994L464.65 216.014L464.689 207.312Z" fill="#1B2A4F"/>
<path d="M473.792 212.606L475.678 213.688L475.638 222.35V230.37L473.753 229.287L472.028 228.285L472.068 220.304L472.109 211.603L473.792 212.606Z" fill="#1B2A4F"/>
<path d="M486.946 220.184L490.555 222.27L490.514 230.972V238.952L486.906 236.866V228.886L486.946 220.184Z" fill="#1B2A4F"/>
<path d="M496.049 225.438L497.974 226.56V235.223L497.934 243.243L496.009 242.12L494.364 241.157V233.178L494.405 224.476L496.049 225.438Z" fill="#1B2A4F"/>
<path d="M479.527 215.894L483.096 217.978V226.641L483.056 234.661L479.486 232.576V224.596L479.527 215.894Z" fill="#1B2A4F"/>
<path d="M457.231 203.061L460.841 205.106L460.8 213.808V221.788L457.19 219.744L457.231 211.724V203.061Z" fill="#1B2A4F"/>
<path d="M542.441 224.228C542.41 224.26 539.562 228.531 540.759 237.331C543.251 255.871 535.939 271.562 513.937 264.703L513.063 264.445L512.189 263.7C490.221 245.162 483.038 221.09 485.626 205.495C486.857 198.053 484.041 190.579 484.041 190.514L482.261 185.952L494.233 183.041L496.206 185.047C497.663 186.534 499.183 187.732 500.704 188.637C506.302 191.841 510.734 190.223 510.766 190.223L513.29 189.285L515.781 193.135C515.813 193.167 520.246 199.897 525.811 203.1C527.332 204.006 528.852 204.556 530.341 204.75L532.282 205.009L544.221 221.736L542.441 224.228Z" fill="#B7C5FD"/>
<path d="M549.376 218.726L537.448 201.998L535.487 201.741C534.04 201.557 532.501 200.99 530.962 200.11C525.411 196.886 520.994 190.179 520.957 190.144L518.448 186.277L515.937 187.23L515.883 187.249C515.333 187.413 511.1 188.641 505.878 185.617C504.339 184.738 502.818 183.529 501.353 182.044L499.392 180.029L487.427 182.961L482.299 185.943L494.233 183.041L496.206 185.047C497.662 186.534 499.182 187.732 500.704 188.637C506.3 191.841 510.734 190.223 510.765 190.223L513.29 189.285L515.78 193.135C515.813 193.167 520.245 199.897 525.81 203.101C527.332 204.006 528.852 204.556 530.341 204.75L532.282 205.009L544.221 221.736L542.441 224.228C542.408 224.26 539.561 228.531 540.759 237.331C542.312 248.897 540.049 259.35 532.787 263.916L537.521 261.179C545.125 256.746 547.507 246.119 545.913 234.319C544.741 225.524 547.58 221.254 547.599 221.218L549.376 218.726Z" fill="#D9DDF6"/>
<path d="M513.262 195.098C513.53 195.517 518.637 203.46 525.794 207.592C527.669 208.675 529.667 209.466 531.722 209.742L539.063 220.039C538.882 220.289 535.452 225.05 536.909 235.855C538.917 250.802 533.706 266.253 513.079 259.836C492.481 242.451 487.374 221.043 489.461 208.461C490.975 199.371 487.581 190.671 487.403 190.213L494.778 188.412C496.832 190.509 498.828 192.023 500.704 193.106C507.862 197.239 512.991 195.206 513.262 195.098Z" fill="#3955D1"/>
<path d="M520.13 226.305C521.707 227.215 522.974 229.396 522.969 231.208L522.931 244.774C522.926 246.557 521.65 247.284 520.073 246.373L504.808 237.56C503.231 236.65 501.963 234.453 501.968 232.671L502.006 219.105C502.012 217.293 503.288 216.581 504.865 217.492L520.13 226.305ZM513.42 233.47C514.236 233.515 514.797 232.918 514.801 231.836C514.805 230.346 513.765 228.559 512.48 227.817C511.195 227.076 510.149 227.657 510.146 229.148C510.142 230.229 510.699 231.474 511.511 232.368L511.501 236.33L513.409 237.431L513.42 233.47Z" fill="white"/>
<path d="M512.579 209.307C512.644 209.345 512.709 209.383 512.775 209.423C516.833 211.897 520.129 217.87 520.115 222.709L520.105 226.29L517.624 224.858L517.634 221.276C517.643 217.973 515.425 213.911 512.678 212.222C512.631 212.193 512.583 212.165 512.536 212.138C511.2 211.366 509.92 211.223 508.959 211.729C507.951 212.274 507.4 213.464 507.395 215.057L507.384 218.945L504.89 217.505L504.902 213.617C504.908 211.25 505.729 209.498 507.235 208.683C508.68 207.917 510.588 208.158 512.579 209.307Z" fill="white"/>
<path d="M451.505 90.7182L511.508 55.8486L573.714 91.763L513.711 126.634L451.505 90.7182Z" fill="#384E85"/>
<path d="M554.623 88.9778C556.787 90.2274 556.797 92.2537 554.647 93.5033L516.653 115.583C514.501 116.833 511.004 116.834 508.84 115.583L470.599 93.5046C468.433 92.2549 468.422 90.2287 470.572 88.9778L508.566 66.8993C510.717 65.6484 514.216 65.6484 516.38 66.8993L554.623 88.9778Z" fill="#1B2A4F"/>
<mask id="mask0_19_2" style="mask-type:alpha" maskUnits="userSpaceOnUse" x="244" y="84" width="60" height="85">
<rect x="244.075" y="142.512" width="27.7843" height="26.4446" fill="#C4C4C4"/>
<rect x="276.027" y="142.512" width="27.7843" height="26.4446" fill="#C4C4C4"/>
<rect x="244.075" y="113.283" width="27.7843" height="26.4446" fill="#C4C4C4"/>
<rect x="276.027" y="113.283" width="27.7843" height="26.4446" fill="#C4C4C4"/>
<rect x="244.075" y="84.055" width="27.7843" height="26.4446" fill="#C4C4C4"/>
<rect x="276.027" y="84.055" width="27.7843" height="26.4446" fill="#C4C4C4"/>
</mask>
<g mask="url(#mask0_19_2)">
<rect x="245.929" y="85.8458" width="38.4306" height="80.5871" fill="#DCDCDC"/>
<path d="M284.359 88.532L300.446 106.677V165.537H284.359V88.532Z" fill="#DCDCDC"/>
<path d="M284.359 88.532L300.446 106.677V165.537H284.359V88.532Z" fill="white" fill-opacity="0.2"/>
<path d="M284.525 84.055H250.298C246.875 84.055 244.075 86.8605 244.075 90.2897V161.989C244.075 165.418 246.875 168.224 250.298 168.224H296.971C300.393 168.224 303.194 165.418 303.194 161.989V105.876L284.525 84.055ZM284.525 88.7311L299.149 105.877H287.636C286.081 105.877 284.525 104.318 284.525 102.759V88.7311ZM300.082 161.989C300.082 163.548 298.838 165.106 296.971 165.106H250.298C248.742 165.106 247.187 163.859 247.187 161.989V90.2897C247.187 88.7311 248.431 87.1723 250.298 87.1723H259.633V90.2897H262.744V93.407H259.633V96.5244H262.744V99.6418H259.633V102.759H262.744V105.876H259.633V108.994H262.744V112.111H259.633V115.229H262.744V118.346H259.633V121.463H262.744V124.581H259.633V127.698H262.744V130.815C259.321 131.439 256.521 134.556 256.521 138.609C256.521 142.973 259.944 146.402 264.3 146.402C268.656 146.402 272.079 142.973 272.079 138.609C272.079 134.868 269.278 131.751 265.855 130.816V127.698V124.581H268.967V121.463H265.856V118.346H268.967V115.229H265.856V112.111H268.967V108.994H265.856V105.876H268.967V102.759H265.856V99.6418H268.967V96.5244H265.856V93.407H268.967V90.2897H265.856V87.1723H281.413V102.759C281.413 106.188 284.214 108.994 287.636 108.994H300.082V161.989ZM264.3 133.933C266.789 133.933 268.967 136.115 268.967 138.609C268.967 141.103 266.789 143.285 264.3 143.285C261.811 143.285 259.632 141.103 259.632 138.609C259.632 136.115 261.811 133.933 264.3 133.933Z" fill="black"/>
<rect x="253.079" y="130.616" width="24.1308" height="21.4899" fill="#DCDCDC"/>
<g clip-path="url(#clip2_19_2)">
<path d="M278.721 146.578C278.721 145.723 278.646 144.912 278.516 144.122H266.313V149.002H273.3C272.987 150.603 272.069 151.956 270.708 152.875V156.121H274.877C277.318 153.86 278.721 150.527 278.721 146.578Z" fill="#4285F4"/>
<path d="M266.313 159.27C269.812 159.27 272.739 158.101 274.877 156.121L270.708 152.875C269.542 153.654 268.063 154.13 266.313 154.13C262.933 154.13 260.071 151.847 259.045 148.764H254.747V152.107C256.874 156.348 261.248 159.27 266.313 159.27Z" fill="#34A853"/>
<path d="M259.045 148.764C258.775 147.985 258.635 147.152 258.635 146.286C258.635 145.421 258.786 144.587 259.045 143.808V140.465H254.747C253.861 142.218 253.354 144.187 253.354 146.286C253.354 148.385 253.861 150.354 254.747 152.107L259.045 148.764Z" fill="#FBBC05"/>
<path d="M266.313 138.442C268.225 138.442 269.931 139.102 271.281 140.389L274.974 136.689C272.739 134.59 269.812 133.303 266.313 133.303C261.248 133.303 256.874 136.224 254.747 140.465L259.045 143.808C260.071 140.725 262.933 138.442 266.313 138.442Z" fill="#EA4335"/>
</g>
</g>
<path d="M300.869 50.2999C301.018 51.34 300.655 52.4402 300.467 53.4582C300.244 54.6566 300.032 55.8564 299.819 57.0562C299.422 59.2902 299.034 61.5272 298.549 63.7461C298.049 63.2248 297.549 62.7035 297.049 62.1821C299.774 62.7278 302.517 63.1955 305.273 63.581C308.029 63.9664 310.841 64.1157 313.554 64.6727C314.237 64.8129 314.771 65.1907 314.808 65.8309C314.84 66.3736 314.38 66.9956 313.693 67.0316C310.859 67.1799 308.016 66.7774 305.191 66.4012C302.368 66.0251 299.562 65.5476 296.774 64.9893C295.974 64.8292 295.096 64.2397 295.274 63.4253C295.77 61.159 296.208 58.8824 296.658 56.6077C296.885 55.4556 297.113 54.3034 297.35 53.1527C297.58 52.0313 297.706 50.7607 298.337 49.7622C298.907 48.8617 300.728 49.3214 300.869 50.2999Z" fill="black"/>
<path d="M375.832 70.2468C372.573 66.1437 368.129 62.5573 363.455 59.6555C358.733 56.724 353.499 54.4282 347.952 52.9913C336.927 50.1352 325.098 50.9003 314.817 54.8722C309.087 57.0862 303.89 60.2787 299.687 64.2739C299.136 64.7976 298.26 65.0107 297.524 64.5423C296.896 64.1426 296.59 63.2069 297.147 62.6738C305.099 55.0549 316.402 50.105 328.396 49.039C340.374 47.9744 352.77 50.8554 362.701 57.0546C365.439 58.7633 368.073 60.6993 370.328 62.8756C372.596 65.0643 374.519 67.5089 376.286 70.0064C376.448 70.2349 376.009 70.4695 375.832 70.2468Z" fill="black"/>
<path d="M204.625 239.064C204.185 237.889 203.236 236.88 202.494 235.881C201.621 234.705 200.756 233.522 199.891 232.341C198.28 230.14 196.675 227.932 194.989 225.787C194.814 226.568 194.64 227.348 194.465 228.129C196.695 226.32 198.985 224.586 201.333 222.933C203.681 221.281 206.213 219.855 208.426 218.039C208.983 217.582 209.269 216.939 208.948 216.24C208.676 215.648 207.902 215.193 207.243 215.464C204.525 216.583 202.105 218.293 199.689 219.966C197.273 221.639 194.93 223.412 192.648 225.263C191.993 225.794 191.505 226.817 192.123 227.604C193.844 229.795 195.518 232.022 197.201 234.243C198.054 235.367 198.906 236.492 199.766 237.611C200.604 238.701 201.428 239.998 202.57 240.777C203.601 241.479 205.038 240.169 204.625 239.064Z" fill="black"/>
<path d="M263.231 184.04C262.483 189.879 260.346 195.701 257.614 200.898C254.854 206.148 251.264 210.952 246.906 214.982C238.243 222.992 226.819 227.507 215.051 227.908C208.492 228.132 201.884 227.074 195.753 224.713C194.95 224.403 194.017 224.571 193.593 225.401C193.232 226.11 193.468 227.244 194.282 227.561C205.913 232.093 219.176 232.272 230.921 228.003C242.651 223.74 252.573 215.086 258.359 204.008C259.954 200.954 261.327 197.705 262.214 194.371C263.105 191.018 263.533 187.548 263.787 184.092C263.81 183.775 263.272 183.723 263.231 184.04Z" fill="black"/>
<defs>
<clipPath id="clip0_19_2">
<rect width="11.0318" height="11.0318" fill="white" transform="translate(128.693 202.917) rotate(-15)"/>
</clipPath>
<clipPath id="clip1_19_2">
<rect width="27.8498" height="27.8498" fill="white" transform="translate(369.829 150.977)"/>
</clipPath>
<clipPath id="clip2_19_2">
<rect width="25.9183" height="25.9669" fill="white" transform="translate(253.079 133.303)"/>
</clipPath>
</defs>
</svg>
