<svg width="287" height="287" viewBox="0 0 287 287" fill="none" xmlns="http://www.w3.org/2000/svg">
<g clip-path="url(#clip0_295_169)">
<path d="M172.137 81.3188H57.3408V105.235H172.137V81.3188ZM95.6061 100.451H66.9071V90.8851H95.6061V100.451ZM109.956 100.451H100.389V90.8851H109.956V100.451ZM124.305 100.451H114.739V90.8851H124.305V100.451Z" fill="black"/>
<path d="M72.7281 225.134C77.9527 224.272 83.3155 225.185 87.9601 227.728C92.6047 230.271 96.2633 234.297 98.3516 239.163H172.137V215.247H63.4201C67.2649 217.756 70.4559 221.145 72.7281 225.134ZM114.739 224.814H124.305V234.38H114.739V224.814ZM100.389 224.814H109.956V234.38H100.389V224.814Z" fill="black"/>
<path d="M172.137 181.765H57.3408V205.681H172.137V181.765ZM95.6061 200.898H66.9071V191.331H95.6061V200.898ZM109.956 200.898H100.389V191.331H109.956V200.898ZM124.305 200.898H114.739V191.331H124.305V200.898Z" fill="black"/>
<path d="M172.137 114.801H57.3408V138.717H172.137V114.801ZM95.6061 133.934H66.9071V124.367H95.6061V133.934ZM109.956 133.934H100.389V124.367H109.956V133.934ZM124.305 133.934H114.739V124.367H124.305V133.934Z" fill="black"/>
<path d="M100.576 248.73L95.4673 249.155C94.3234 249.251 93.1834 248.932 92.2552 248.256C91.327 247.581 90.6726 246.595 90.4115 245.477C89.9824 243.5 89.1326 241.639 87.9199 240.02C86.7073 238.401 85.1602 237.063 83.3839 236.095C81.6076 235.127 79.6437 234.554 77.6259 234.413C75.6081 234.272 73.5836 234.568 71.6901 235.279C70.5091 235.698 69.2111 235.636 68.0752 235.107C66.9393 234.579 66.0561 233.625 65.6155 232.452C64.1581 228.526 61.4471 225.19 57.9022 222.959C54.3573 220.729 50.1762 219.729 46.0058 220.115C41.8355 220.501 37.9086 222.25 34.8327 225.092C31.7569 227.935 29.7037 231.712 28.9908 235.839C28.8771 236.473 28.6365 237.078 28.2834 237.616C27.9303 238.155 27.472 238.617 26.9359 238.975C26.3999 239.332 25.7972 239.577 25.164 239.696C24.5308 239.815 23.8801 239.804 23.251 239.665C20.6311 239.084 17.9179 239.06 15.2884 239.597C12.6588 240.133 10.1717 241.218 7.98912 242.78C5.80654 244.341 3.9774 246.345 2.62084 248.661C1.26428 250.977 0.410727 253.552 0.115764 256.22C-0.1792 258.887 0.0910451 261.587 0.908897 264.143C1.72675 266.699 3.07386 269.054 4.86251 271.055C6.65115 273.056 8.84121 274.658 11.29 275.756C13.7389 276.854 16.3916 277.424 19.0753 277.429H100.389C104.195 277.453 107.855 275.965 110.563 273.292C113.272 270.618 114.807 266.978 114.832 263.172C114.857 259.367 113.369 255.707 110.695 252.998C108.021 250.29 104.381 248.754 100.576 248.73V248.73Z" fill="black"/>
<path d="M172.137 148.283H57.3408V172.199H172.137V148.283ZM95.6061 167.416H66.9071V157.85H95.6061V167.416ZM109.956 167.416H100.389V157.85H109.956V167.416ZM124.305 167.416H114.739V157.85H124.305V167.416Z" fill="black"/>
<path d="M19.0753 157.849H47.7743V100.451C43.2827 100.451 38.9351 102.037 35.4986 104.929C32.0621 107.821 29.7573 111.834 28.9908 116.26C28.8771 116.894 28.6365 117.499 28.2834 118.037C27.9303 118.576 27.472 119.038 26.9359 119.396C26.3999 119.753 25.7972 119.998 25.164 120.117C24.5308 120.236 23.8801 120.225 23.251 120.086C20.6311 119.505 17.9179 119.481 15.2884 120.018C12.6588 120.554 10.1717 121.639 7.98912 123.2C5.80653 124.762 3.9774 126.766 2.62084 129.082C1.26428 131.398 0.410727 133.973 0.115764 136.641C-0.1792 139.308 0.091045 142.008 0.908897 144.564C1.72675 147.12 3.07386 149.475 4.86251 151.476C6.65115 153.477 8.84121 155.079 11.29 156.177C13.7389 157.275 16.3916 157.845 19.0753 157.849V157.849Z" fill="black"/>
<path d="M172.137 47.8366H57.3408V71.7524H172.137V47.8366ZM95.6061 66.9693H66.9071V57.4029H95.6061V66.9693ZM109.956 66.9693H100.389V57.4029H109.956V66.9693ZM124.305 66.9693H114.739V57.4029H124.305V66.9693Z" fill="black"/>
<path d="M196.052 38.2703L191.131 38.696C189.987 38.7915 188.847 38.4725 187.919 37.7973C186.99 37.122 186.336 36.1354 186.075 35.0177C185.646 33.041 184.796 31.1799 183.583 29.561C182.371 27.9421 180.824 26.6033 179.047 25.6357C177.271 24.6682 175.307 24.0945 173.289 23.9537C171.271 23.813 169.247 24.1084 167.353 24.82C166.174 25.2391 164.878 25.1793 163.742 24.6535C162.607 24.1277 161.722 23.1778 161.279 22.0075C159.821 18.0812 157.11 14.7447 153.566 12.5144C150.021 10.2842 145.84 9.28449 141.669 9.6701C137.499 10.0557 133.572 11.8051 130.496 14.6475C127.42 17.49 125.367 21.267 124.654 25.394C124.54 26.0281 124.3 26.6328 123.947 27.1716C123.594 27.7105 123.135 28.1724 122.599 28.5298C122.063 28.8872 121.461 29.1325 120.827 29.2512C120.194 29.3699 119.543 29.3595 118.914 29.2205C114.948 28.2661 110.778 28.6337 107.039 30.2673C103.3 31.9009 100.198 34.7111 98.2032 38.2703H176.92C178.188 38.2703 179.405 38.7742 180.302 39.6712C181.199 40.5683 181.703 41.7849 181.703 43.0535V66.9693H196.052C199.858 66.9693 203.508 65.4575 206.199 62.7664C208.89 60.0754 210.402 56.4255 210.402 52.6198C210.402 48.8141 208.89 45.1642 206.199 42.4732C203.508 39.7821 199.858 38.2703 196.052 38.2703Z" fill="black"/>
<path d="M38.2081 28.704H71.6903V19.1376H33.425C32.1564 19.1376 30.9398 19.6416 30.0427 20.5386C29.1457 21.4356 28.6418 22.6522 28.6418 23.9208V66.9693H38.2081V28.704Z" fill="black"/>
<path d="M191.269 258.296H157.787V267.862H196.053C197.321 267.862 198.538 267.358 199.435 266.461C200.332 265.564 200.836 264.348 200.836 263.079V220.031H191.269V258.296Z" fill="black"/>
<path d="M257.555 23.9209H296.5V14.3545H257.555C256.718 11.0905 255.033 8.10594 252.67 5.70389C250.307 3.30183 247.351 1.56782 244.101 0.677942C240.851 -0.211939 237.423 -0.226004 234.166 0.637175C230.909 1.50035 227.939 3.21004 225.556 5.59262C223.173 7.9752 221.464 10.9458 220.601 14.2029C219.737 17.4599 219.751 20.8874 220.641 24.1372C221.531 27.3871 223.265 30.3436 225.667 32.7065C228.069 35.0695 231.054 36.7547 234.318 37.5911V58.0822C230.216 59.1263 226.579 61.5073 223.981 64.8491C221.383 68.1909 219.973 72.3029 219.973 76.5357C219.973 80.7684 221.383 84.8805 223.981 88.2223C226.579 91.5641 230.216 93.9451 234.318 94.9891V125.047C230.216 126.091 226.579 128.472 223.981 131.813C221.383 135.155 219.973 139.267 219.973 143.5C219.973 147.733 221.383 151.845 223.981 155.187C226.579 158.528 230.216 160.909 234.318 161.953V192.011C230.216 193.055 226.579 195.436 223.981 198.778C221.383 202.12 219.973 206.232 219.973 210.464C219.973 214.697 221.383 218.809 223.981 222.151C226.579 225.493 230.216 227.874 234.318 228.918V249.409C231.054 250.245 228.069 251.931 225.667 254.293C223.265 256.656 221.531 259.613 220.641 262.863C219.751 266.113 219.737 269.54 220.601 272.797C221.464 276.054 223.173 279.025 225.556 281.407C227.939 283.79 230.909 285.5 234.166 286.363C237.423 287.226 240.851 287.212 244.101 286.322C247.351 285.432 250.307 283.698 252.67 281.296C255.033 278.894 256.718 275.91 257.555 272.646H303.5V263.079H257.555C256.695 259.792 254.976 256.793 252.573 254.39C250.171 251.988 247.172 250.268 243.884 249.409V228.918C247.172 228.058 250.171 226.339 252.573 223.936C254.976 221.534 256.695 218.535 257.555 215.247H301V205.681H257.555C256.695 202.394 254.976 199.395 252.573 196.992C250.171 194.59 247.172 192.87 243.884 192.011V161.953C247.172 161.094 250.171 159.375 252.573 156.972C254.976 154.569 256.695 151.57 257.555 148.283H294.5V138.717H257.555C256.695 135.43 254.976 132.431 252.573 130.028C250.171 127.626 247.172 125.906 243.884 125.047V94.9891C247.172 94.1296 250.171 92.4102 252.573 90.0076C254.976 87.6051 256.695 84.6061 257.555 81.3188H289.5V71.7525H257.555C256.695 68.4653 254.976 65.4663 252.573 63.0637C250.171 60.6612 247.172 58.9418 243.884 58.0822V37.5911C247.172 36.7316 250.171 35.0122 252.573 32.6096C254.976 30.2071 256.695 27.2081 257.555 23.9209ZM229.535 19.1377C229.535 17.2456 230.096 15.3961 231.147 13.8229C232.198 12.2497 233.692 11.0236 235.44 10.2996C237.188 9.5755 239.112 9.38605 240.967 9.75517C242.823 10.1243 244.528 11.0354 245.866 12.3733C247.203 13.7111 248.115 15.4157 248.484 17.2714C248.853 19.1271 248.663 21.0506 247.939 22.7986C247.215 24.5466 245.989 26.0406 244.416 27.0918C242.843 28.143 240.993 28.704 239.101 28.704C236.564 28.704 234.131 27.6961 232.337 25.9021C230.543 24.1081 229.535 21.6748 229.535 19.1377ZM248.667 267.862C248.667 269.754 248.106 271.604 247.055 273.177C246.004 274.75 244.51 275.976 242.762 276.7C241.014 277.425 239.091 277.614 237.235 277.245C235.379 276.876 233.675 275.965 232.337 274.627C230.999 273.289 230.088 271.584 229.719 269.729C229.349 267.873 229.539 265.949 230.263 264.201C230.987 262.453 232.213 260.959 233.786 259.908C235.36 258.857 237.209 258.296 239.101 258.296C241.638 258.296 244.072 259.304 245.866 261.098C247.66 262.892 248.667 265.325 248.667 267.862ZM248.667 210.464C248.667 212.356 248.106 214.206 247.055 215.779C246.004 217.352 244.51 218.578 242.762 219.302C241.014 220.027 239.091 220.216 237.235 219.847C235.379 219.478 233.675 218.567 232.337 217.229C230.999 215.891 230.088 214.186 229.719 212.331C229.349 210.475 229.539 208.551 230.263 206.803C230.987 205.055 232.213 203.561 233.786 202.51C235.36 201.459 237.209 200.898 239.101 200.898C241.638 200.898 244.072 201.906 245.866 203.7C247.66 205.494 248.667 207.927 248.667 210.464ZM248.667 143.5C248.667 145.392 248.106 147.242 247.055 148.815C246.004 150.388 244.51 151.614 242.762 152.338C241.014 153.062 239.091 153.252 237.235 152.883C235.379 152.513 233.675 151.602 232.337 150.264C230.999 148.927 230.088 147.222 229.719 145.366C229.349 143.511 229.539 141.587 230.263 139.839C230.987 138.091 232.213 136.597 233.786 135.546C235.36 134.495 237.209 133.934 239.101 133.934C241.638 133.934 244.072 134.942 245.866 136.736C247.66 138.53 248.667 140.963 248.667 143.5ZM248.667 76.5357C248.667 78.4277 248.106 80.2773 247.055 81.8505C246.004 83.4236 244.51 84.6498 242.762 85.3738C241.014 86.0979 239.091 86.2873 237.235 85.9182C235.379 85.5491 233.675 84.638 232.337 83.3001C230.999 81.9622 230.088 80.2577 229.719 78.402C229.349 76.5463 229.539 74.6228 230.263 72.8748C230.987 71.1268 232.213 69.6327 233.786 68.5816C235.36 67.5304 237.209 66.9694 239.101 66.9694C241.638 66.9694 244.072 67.9772 245.866 69.7713C247.66 71.5653 248.667 73.9985 248.667 76.5357Z" fill="black"/>
<path d="M200.836 200.898H191.269V210.464H200.836V200.898Z" fill="black"/>
<path d="M38.2081 76.5356H28.6418V86.1019H38.2081V76.5356Z" fill="black"/>
</g>
<defs>
<clipPath id="clip0_295_169">
<rect width="287" height="287" fill="white"/>
</clipPath>
</defs>
</svg>
