<svg width="509" height="607" viewBox="0 0 509 607" fill="none" xmlns="http://www.w3.org/2000/svg">
<g clip-path="url(#clip0_267:2)">
<path fill-rule="evenodd" clip-rule="evenodd" d="M233.591 29.0555C232.431 29.0555 231.658 28.6678 230.885 27.8924C205.373 2.30473 163.627 2.30473 138.116 27.8924C136.569 29.4432 134.25 29.4432 132.704 27.8924C131.158 26.3417 131.158 24.0155 132.704 22.4648C161.308 -6.2245 207.692 -6.2245 236.296 22.4648C237.842 24.0155 237.842 26.3417 236.296 27.8924C235.523 28.6678 234.75 29.0555 233.591 29.0555ZM114.923 186.846H257.942C268.765 186.846 277.269 178.317 277.269 167.462C277.269 156.606 268.765 148.077 257.942 148.077C256.783 148.077 255.237 148.077 254.077 148.465V148.077C254.077 132.957 242.094 120.938 227.019 120.938C224.314 120.938 221.608 121.326 219.289 122.102V120.938C219.289 101.554 203.827 86.0461 184.5 86.0461C169.039 86.0461 155.51 96.1261 151.258 110.858C148.165 109.695 145.073 109.308 141.981 109.308C124.973 109.308 111.058 123.265 111.058 140.323V140.711C100.235 142.649 91.7308 151.954 91.7308 163.585C91.7308 176.378 102.167 186.846 114.923 186.846ZM99.4616 163.585C99.4616 155.055 106.419 148.077 114.923 148.077H115.31C116.469 148.077 117.242 147.689 118.402 146.914C119.175 146.138 119.175 144.975 119.175 143.812C118.789 142.262 118.789 141.486 118.789 140.323C118.789 127.529 129.225 117.062 141.981 117.062C145.46 117.062 148.939 117.837 152.031 119.388C153.19 119.775 154.35 119.775 155.51 119.388C156.669 119 157.442 117.837 157.442 116.674C159.375 103.492 170.585 93.8 184.114 93.8C199.189 93.8 211.171 105.818 211.171 120.938C211.171 122.877 210.785 125.203 210.398 127.529C210.012 129.08 210.785 131.018 211.944 131.794C213.104 132.569 215.037 132.569 216.196 131.794C219.289 129.855 222.767 128.692 226.633 128.692C237.456 128.692 245.96 137.222 245.96 148.077C245.96 149.733 245.678 151.105 245.355 152.679C245.299 152.947 245.243 153.222 245.187 153.505C244.8 155.055 245.573 156.994 246.733 157.769C248.279 158.545 250.212 158.545 251.371 157.769C253.304 156.606 255.623 155.831 257.942 155.831C264.514 155.831 269.539 160.871 269.539 167.462C269.539 174.052 264.514 179.092 257.942 179.092H114.923C106.419 179.092 99.4616 172.114 99.4616 163.585ZM535.511 161.062C573.048 180.065 601.921 212.647 616.253 252.179L617.977 257.429L619.804 262.993C631.61 303.352 627.58 346.699 608.534 384.215C589.489 421.732 556.858 450.599 517.28 464.946L513.864 466.067L510.185 467.275L506.454 468.5C466.05 480.322 422.667 476.325 385.129 457.322C347.591 438.319 318.719 405.737 304.386 366.205L302.662 360.955L300.835 355.391C289.027 315.023 293.062 271.666 312.118 234.145C331.175 196.623 363.821 167.757 403.412 153.421L408.667 151.696L414.185 149.884C454.589 138.062 497.973 142.059 535.511 161.062ZM492.828 209.256C505.829 197.666 516.76 183.949 525.153 168.694C498.836 156.494 469.586 152.021 440.811 155.796C458.223 164.501 476.478 183.396 492.828 209.256ZM484.188 216.454C462.199 181.397 437.207 159.538 417.541 161.168L443.169 239.226C457.951 233.828 471.792 226.144 484.188 216.454ZM489.772 226.192C476.679 236.201 462.123 244.137 446.616 249.724L463.851 302.217L516.404 284.963C509.379 264.585 500.463 244.91 489.772 226.192ZM519.851 295.461L467.298 312.716L484.533 365.209L484.849 365.105C500.643 360.487 517.051 358.316 533.501 358.668C530.936 337.218 526.366 316.057 519.851 295.461ZM534.462 369.576C518.744 369.169 503.058 371.238 487.98 375.707L513.609 453.765C530.345 443.21 537.619 411.107 534.462 369.576ZM477.47 379.158C462.689 384.556 448.847 392.24 436.451 401.93C458.475 437.092 483.363 458.636 503.098 457.216L477.47 379.158ZM474.023 368.66L456.788 316.167L404.235 333.421C411.26 353.799 420.176 373.474 430.867 392.192C443.961 382.183 458.516 374.247 474.023 368.66ZM387.138 259.716C389.703 281.165 394.273 302.327 400.788 322.923L453.341 305.668L436.106 253.175L435.791 253.279C419.996 257.897 403.588 260.068 387.138 259.716ZM432.659 242.676L407.031 164.619C390.294 175.174 383.02 207.277 386.177 248.808C401.895 249.215 417.582 247.146 432.659 242.676ZM374.917 248.027C372.757 217.509 376.241 191.418 385.105 174.086C359.686 188.092 338.777 209.036 324.823 234.468C340.637 241.772 357.573 246.356 374.917 248.027ZM375.86 259.232C356.432 257.597 337.444 252.573 319.755 244.39C303.973 278.154 301.021 316.494 311.449 352.255L390.278 326.373C383.34 304.505 378.512 282.022 375.86 259.232ZM393.725 336.872L314.896 362.754C327.696 397.725 352.776 426.852 385.471 444.72C394.884 427.637 407.217 412.33 421.912 399.493C410.513 379.579 401.073 358.608 393.725 336.872ZM427.654 409.18C414.653 420.77 403.721 434.487 395.329 449.741L395.486 449.69C421.803 461.89 451.054 466.363 479.828 462.588C462.416 453.883 444.161 434.988 427.654 409.18ZM545.599 370.514C547.759 401.032 544.223 426.965 535.411 444.455L535.534 444.298C560.887 430.315 581.749 409.43 595.693 384.072C579.879 376.769 562.943 372.184 545.599 370.514ZM544.656 359.309C564.084 360.944 583.073 365.967 600.761 374.151L600.884 373.994C616.666 340.23 619.619 301.89 609.19 266.129L530.361 292.01C537.268 313.934 542.054 336.47 544.656 359.309ZM498.728 218.891C510.126 238.804 519.566 259.776 526.914 281.512L605.743 255.63C592.943 220.659 567.863 191.532 535.168 173.664C525.755 190.747 513.422 206.054 498.728 218.891ZM148.939 44.1754C149.712 44.9508 150.485 45.3384 151.644 45.3384C152.804 45.3384 153.577 44.9508 154.35 44.1754C162.467 36.0338 173.29 31.7692 184.5 31.7692C195.71 31.7692 206.533 36.0338 214.65 44.1754C216.196 45.7261 218.515 45.7261 220.062 44.1754C221.608 42.6246 221.608 40.2984 220.062 38.7477C210.398 29.4431 198.029 24.0154 184.5 24.0154C170.971 24.0154 158.602 29.4431 148.939 38.7477C147.392 40.2984 147.392 42.6246 148.939 44.1754ZM200.734 62.0094C199.575 62.0094 198.802 61.6217 198.029 60.8464C190.684 53.4802 178.315 53.4802 170.584 60.8464C169.038 62.3971 166.719 62.3971 165.173 60.8464C163.627 59.2956 163.627 56.9694 165.173 55.4187C175.609 44.951 193.004 44.951 203.44 55.4187C204.986 56.9694 204.986 59.2956 203.44 60.8464C203.054 61.6217 201.894 62.0094 200.734 62.0094ZM165.941 368.227L262.846 382.439C263.874 382.589 264.8 383.143 265.42 383.977C266.04 384.812 266.304 385.859 266.153 386.888L254.769 464.515C254.618 465.544 254.064 466.471 253.231 467.093C252.397 467.714 251.351 467.978 250.323 467.828L185.459 458.315L175.936 462.073L163.663 545.754L171.125 601.82C171.205 602.422 171.145 603.034 170.949 603.608C170.753 604.183 170.426 604.704 169.994 605.131C169.563 605.558 169.039 605.878 168.462 606.068C167.886 606.257 167.274 606.31 166.674 606.222L3.87441 582.347C3.27454 582.259 2.70336 582.032 2.20585 581.686C1.70834 581.339 1.29806 580.881 1.00733 580.348C0.716593 579.816 0.553331 579.223 0.530393 578.616C0.507454 578.009 0.625467 577.405 0.875141 576.852L24.1208 525.289L36.5638 440.444C36.7148 439.414 37.2679 438.487 38.1016 437.866C38.9353 437.244 39.9812 436.98 41.0092 437.131L139.394 451.559L152.523 432.725L161.496 371.54C161.647 370.511 162.2 369.583 163.034 368.962C163.867 368.341 164.913 368.076 165.941 368.227ZM75.9226 577.054L74.7842 584.817L98.0413 588.227L99.1797 580.465L75.9226 577.054ZM107.501 577.72L105.794 589.364L162.673 597.706L156.216 549.181L30.2708 530.711L10.1527 575.338L67.0318 583.68L68.7394 572.036C68.8904 571.006 69.4436 570.079 70.2772 569.458C71.1109 568.837 72.1568 568.572 73.1848 568.723L104.194 573.271C105.222 573.421 106.148 573.975 106.768 574.809C107.389 575.644 107.652 576.691 107.501 577.72ZM32.3627 523.088L156.401 541.279L167.536 465.349L127.621 481.028C126.837 481.342 125.973 481.394 125.157 481.176C124.341 480.959 123.618 480.483 123.094 479.82C122.571 479.157 122.275 478.343 122.251 477.498C122.227 476.653 122.477 475.823 122.962 475.131L134.38 458.754L43.747 445.462L32.3627 523.088ZM185.566 450.401L247.585 459.496L257.831 389.633L168.679 376.558L160.141 434.778C160.059 435.38 159.84 435.954 159.499 436.456L136.798 468.993L183.553 450.629C184.192 450.377 184.887 450.298 185.566 450.401ZM226.144 416.704L218.392 415.567L217.253 423.33L225.006 424.467L226.144 416.704ZM202.887 413.293L210.639 414.43L209.501 422.193L201.749 421.056L202.887 413.293ZM195.135 412.156L187.382 411.02L186.244 418.782L193.996 419.919L195.135 412.156ZM46.0513 564.744L61.5561 567.018L60.4178 574.78L44.9129 572.506L46.0513 564.744ZM131.327 577.25L115.823 574.976L114.684 582.739L130.189 585.013L131.327 577.25ZM140.218 570.624L147.971 571.761L145.694 587.286L137.941 586.149L140.218 570.624ZM41.7142 540.319L33.962 539.182L32.8236 546.945L40.5759 548.082L41.7142 540.319ZM49.4667 541.456L57.219 542.593L56.0806 550.355L48.3283 549.218L49.4667 541.456ZM72.7238 544.867L64.9714 543.73L63.833 551.492L71.5854 552.629L72.7238 544.867ZM80.4762 546.003L88.2286 547.14L87.0901 554.903L79.3378 553.766L80.4762 546.003ZM103.733 549.414L95.9809 548.277L94.8425 556.04L102.595 557.177L103.733 549.414ZM111.486 550.551L119.238 551.688L118.1 559.451L110.347 558.314L111.486 550.551ZM134.743 553.962L126.99 552.825L125.852 560.588L133.604 561.725L134.743 553.962ZM142.495 555.099L150.247 556.236L149.109 563.998L141.357 562.861L142.495 555.099Z" fill="#E8E8E8"/>
</g>
<defs>
<clipPath id="clip0_267:2">
<rect width="509" height="607" fill="white"/>
</clipPath>
</defs>
</svg>
