<svg width="287" height="287" viewBox="0 0 287 287" fill="none" xmlns="http://www.w3.org/2000/svg">
<g clip-path="url(#clip0_295_169)">
<path d="M80.9022 121.202C80.5793 130.834 85.6555 135.099 85.7811 137.807C85.7213 138.358 85.5232 138.888 85.2034 139.352C84.8835 139.816 84.4512 140.2 83.9425 140.473L78.2026 144.283C77.4598 144.777 76.5842 145.06 75.678 145.1C75.4851 145.091 72.0053 145.878 66.4941 134.21C63.1317 138.19 58.8536 141.387 53.9872 143.558C49.1207 145.728 43.7951 146.814 38.4179 146.732C31.1175 147.111 11.3327 142.803 12.3507 122.831C11.6377 106.554 27.6242 96.4421 44.1578 97.2968C47.3417 97.3053 53.8439 97.4541 65.2296 99.9629V93.321C66.4358 82.0698 58.6376 73.3401 45.1354 74.6498C44.0592 74.654 36.4359 74.4372 24.5794 78.9487C21.2789 80.3859 20.8574 80.1478 19.7587 80.1478C16.4359 80.1478 17.8036 71.0142 18.4404 69.8576C20.7767 67.1362 34.5211 62.0549 48.0098 62.1271C57.0289 61.3708 65.9996 64.0102 72.9829 69.4749C75.8216 72.4858 77.9873 76.011 79.3492 79.8376C80.7111 83.6643 81.2409 87.713 80.9067 91.7392L80.9022 121.202V121.202ZM42.1488 134.975C56.6914 134.775 62.8484 126.484 64.252 122.019C65.3551 117.745 65.1713 115.041 65.1713 110.368C60.8349 109.381 54.5928 108.306 47.4314 108.297C40.6376 107.812 28.2296 110.691 28.7139 122.015C28.1578 129.154 33.7004 135.366 42.1488 134.975V134.975ZM118.795 144.776C115.27 145.083 113.629 142.71 113.108 140.367L90.7766 70.3551C90.3416 69.173 90.0546 67.9526 89.9156 66.7067C89.8332 66.1931 89.9693 65.6694 90.2939 65.2508C90.6184 64.8322 91.105 64.553 91.6466 64.4743C91.7542 64.4573 90.6914 64.4743 101.624 64.4743C105.561 64.1001 106.844 67.0384 107.252 68.8838L123.27 128.767L138.14 68.8838C138.377 67.5146 139.458 64.1767 143.88 64.5296H151.575C152.548 64.4531 156.557 64.317 157.261 68.9391L172.247 129.588L188.781 68.9391C188.996 68.0121 190.001 64.1044 194.467 64.5296H203.31C203.691 64.4743 206.068 64.1852 205.664 68.178C205.472 68.9646 207.194 63.6452 182.01 140.422C181.494 142.765 179.848 145.138 176.324 144.832H167.942C163.037 145.321 162.333 140.724 162.256 140.261L147.386 81.9507L132.687 140.201C132.615 140.665 131.911 145.261 127.001 144.772H118.795V144.776ZM241.431 147.17C238.794 147.175 226.22 147.043 215.709 141.945C214.662 141.524 213.77 140.818 213.147 139.917C212.523 139.015 212.196 137.958 212.207 136.88V132.309C212.207 128.716 214.987 129.375 216.167 129.805C220.669 131.531 223.557 132.841 229.086 133.887C245.521 137.089 252.75 132.909 254.521 131.982C260.418 128.661 260.884 121.062 256.875 117.12C252.176 113.383 249.933 113.242 233.05 108.191C230.969 107.642 213.454 102.404 213.413 85.9265C213.14 73.9184 224.646 62.0378 244.588 62.1356C250.27 62.1314 265.409 63.8918 269.507 68.7775C270.113 69.6662 270.413 70.7123 270.368 71.7711V76.07C270.368 77.958 269.642 78.9019 268.185 78.9019C264.727 78.5362 258.593 74.1523 246.14 74.3309C243.05 74.1778 228.252 74.7178 228.916 84.9485C228.723 93.0106 240.848 96.0339 242.234 96.3826C258.584 101.047 264.05 101.821 270.539 108.96C278.225 118.422 274.081 129.498 272.489 132.534C263.933 148.476 241.808 147.179 241.431 147.17V147.17ZM259.458 191.759C228.055 213.751 182.467 225.457 143.543 225.457C91.0235 225.785 40.2736 207.473 1.26996 174.121C-1.65828 171.616 0.924673 168.185 4.48521 170.094C47.7518 193.562 96.7386 205.893 146.584 205.863C183.807 205.674 220.624 198.514 254.92 184.794C260.202 182.667 264.682 188.11 259.458 191.759V191.759ZM272.548 177.603C268.53 172.705 245.965 175.315 235.862 176.459C232.817 176.787 232.301 174.282 235.059 172.433C253.028 160.454 282.539 163.886 285.929 167.912C289.315 171.939 285.01 199.978 268.189 213.372C265.606 215.443 263.135 214.35 264.283 211.629C268.068 202.593 276.566 182.506 272.548 177.603Z" fill="black"/>
</g>
<defs>
<clipPath id="clip0_295_169">
<rect width="287" height="287" fill="white"/>
</clipPath>
</defs>
</svg>
