<svg width="287" height="287" viewBox="0 0 287 287" fill="none" xmlns="http://www.w3.org/2000/svg">
<path d="M276.43 211.894C279.965 206.588 281.855 200.356 281.863 193.98C281.853 185.307 278.402 176.992 272.269 170.86C266.135 164.727 257.82 161.278 249.146 161.27V161.27C249.671 159.201 249.937 157.075 249.938 154.94C249.929 147.754 247.07 140.864 241.989 135.783C236.908 130.702 230.018 127.843 222.832 127.834C219.127 127.832 215.462 128.602 212.072 130.096C209.085 114.423 199.491 101.151 186.542 92.843C187.905 89.9665 188.644 86.8342 188.711 83.6517C188.699 79.2654 187.451 74.9714 185.109 71.2626C182.767 67.5538 179.427 64.5807 175.471 62.6846C177.207 58.3132 178.101 53.6536 178.109 48.9504C178.098 38.6853 174.016 28.8437 166.757 21.5852C159.499 14.3266 149.657 10.2442 139.392 10.2337C129.748 10.2313 120.46 13.8776 113.394 20.4404C110.484 14.2336 105.66 9.12376 99.6307 5.86138C93.6016 2.59901 86.6852 1.3561 79.8975 2.31524C73.1097 3.27437 66.8085 6.38499 61.9194 11.1902C57.0302 15.9953 53.8109 22.2418 52.7344 29.0119C46.7582 29.672 41.235 32.5117 37.2209 36.988C33.2068 41.4644 30.9834 47.2632 30.976 53.2757C30.976 53.8428 30.976 54.4032 31.0485 54.9702C24.5069 55.9066 18.5628 59.2863 14.4126 64.4289C10.2625 69.5715 8.21449 76.0953 8.6808 82.6872C9.14711 89.2791 12.0931 95.4496 16.9259 99.9568C21.7586 104.464 28.1193 106.973 34.7277 106.979H110.42C104.989 114.194 101.365 122.604 99.8511 131.507C92.1094 124.79 82.2036 121.093 71.9543 121.096C60.5198 121.108 49.5572 125.656 41.4719 133.741C33.3865 141.827 28.8388 152.789 28.8265 164.224C28.8153 171.749 30.7943 179.145 34.5628 185.659C16.1012 184.624 0 199.545 0 218.178C0.0104692 226.815 3.44617 235.095 9.5535 241.202C15.6608 247.31 23.9411 250.745 32.5782 250.756H70.7279C71.7229 250.756 72.6771 250.361 73.3807 249.657C74.0843 248.954 74.4796 247.999 74.4796 247.004C74.4796 246.009 74.0843 245.055 73.3807 244.351C72.6771 243.648 71.7229 243.253 70.7279 243.253H32.5782C28.878 243.238 25.2271 242.403 21.8878 240.809C18.5484 239.215 15.6036 236.902 13.2648 234.034C10.926 231.167 9.2514 227.817 8.36121 224.225C7.47101 220.634 7.38737 216.89 8.11629 213.262C8.8452 209.634 10.3686 206.213 12.577 203.244C14.7854 200.275 17.624 197.832 20.8888 196.091C24.1536 194.349 27.7636 193.353 31.4594 193.172C35.1552 192.992 38.8451 193.633 42.264 195.048C43.0604 195.381 43.9473 195.429 44.7751 195.184C45.6029 194.939 46.3209 194.417 46.8081 193.704C47.2953 192.991 47.5219 192.133 47.4496 191.272C47.3773 190.412 47.0106 189.603 46.4113 188.982C43.033 185.523 40.3965 181.41 38.6632 176.896C36.93 172.382 36.1365 167.562 36.3313 162.73C36.5261 157.899 37.7052 153.158 39.7962 148.798C41.8873 144.438 44.8464 140.551 48.4922 137.375C52.1381 134.199 56.394 131.801 60.9992 130.327C65.6044 128.853 70.462 128.335 75.2745 128.804C80.087 129.273 84.7531 130.719 88.987 133.055C93.2209 135.39 96.9334 138.566 99.8973 142.386C100.378 142.987 101.032 143.425 101.771 143.642C102.51 143.858 103.297 143.842 104.026 143.596C104.755 143.35 105.391 142.885 105.847 142.265C106.303 141.646 106.558 140.901 106.576 140.131C106.775 127.127 112.065 114.719 121.311 105.573C130.557 96.4269 143.022 91.2716 156.027 91.2144C181.485 91.2144 203.137 111.074 205.326 136.432C205.382 137.095 205.614 137.731 205.997 138.275C206.381 138.819 206.903 139.25 207.509 139.525C208.115 139.795 208.783 139.902 209.443 139.833C210.104 139.765 210.735 139.525 211.274 139.136C214.601 136.675 218.628 135.342 222.766 135.331C227.965 135.329 232.952 137.39 236.634 141.062C240.315 144.733 242.389 149.715 242.401 154.914C242.378 158.026 241.603 161.087 240.14 163.835C239.816 164.462 239.676 165.167 239.736 165.87C239.795 166.573 240.052 167.245 240.476 167.809C240.9 168.373 241.475 168.806 242.134 169.058C242.793 169.31 243.509 169.371 244.201 169.235C245.824 168.913 247.473 168.747 249.127 168.74C254.023 168.719 258.819 170.131 262.923 172.8C267.028 175.469 270.263 179.28 272.231 183.764C274.198 188.248 274.812 193.209 273.996 198.037C273.181 202.865 270.972 207.349 267.641 210.938C267.204 211.416 266.898 211.999 266.753 212.63C266.608 213.261 266.629 213.919 266.814 214.539C266.998 215.16 267.34 215.722 267.806 216.171C268.273 216.621 268.847 216.942 269.474 217.103C272.616 217.895 275.36 219.809 277.187 222.485C279.015 225.161 279.8 228.413 279.394 231.628C278.989 234.842 277.421 237.798 274.986 239.936C272.551 242.073 269.418 243.246 266.177 243.233H235.709C234.714 243.233 233.76 243.628 233.056 244.332C232.353 245.035 231.957 245.99 231.957 246.985C231.957 247.98 232.353 248.934 233.056 249.637C233.76 250.341 234.714 250.736 235.709 250.736H266.204C270.796 250.742 275.261 249.226 278.9 246.424C282.54 243.623 285.147 239.694 286.316 235.252C287.485 230.811 287.149 226.107 285.36 221.877C283.571 217.648 280.431 214.13 276.43 211.874V211.894ZM117.086 99.5287H34.754C29.8098 99.5217 25.0705 97.5528 21.5769 94.0542C18.0832 90.5556 16.121 85.8135 16.121 80.8693C16.121 70.6363 24.4089 62.3021 35.242 62.3021H35.3672C35.9526 62.3297 36.5361 62.2172 37.0693 61.9741C37.6025 61.731 38.0701 61.3643 38.4332 60.9043C38.7987 60.4474 39.0523 59.9113 39.1736 59.3389C39.295 58.7664 39.2808 58.1736 39.1321 57.6076C38.7275 56.2046 38.5059 54.7553 38.4727 53.2955C38.4727 44.0185 45.9827 36.4558 55.8069 36.4558H55.9454C57.963 36.7196 59.7366 34.9657 59.8421 32.9086C60.1237 26.9976 62.5311 21.3873 66.6212 17.1106C70.7113 12.8338 76.2086 10.1786 82.1011 9.63363C87.9937 9.08868 93.8848 10.6907 98.6898 14.1448C103.495 17.5989 106.89 22.6725 108.251 28.4316C108.416 29.1168 108.77 29.7417 109.274 30.2345C109.777 30.7273 110.41 31.068 111.099 31.2174C111.787 31.3669 112.504 31.319 113.167 31.0793C113.829 30.8396 114.411 30.4178 114.845 29.8624C119.556 23.6647 126.425 19.4641 134.088 18.0936C141.752 16.7232 149.651 18.283 156.218 22.4637C162.785 26.6445 167.542 33.1407 169.543 40.6641C171.545 48.1875 170.646 56.1885 167.025 63.0802C166.77 63.5781 166.63 64.1268 166.614 64.6861C166.598 65.2454 166.708 65.801 166.935 66.3124C167.162 66.8238 167.5 67.278 167.926 67.6417C168.351 68.0053 168.852 68.2693 169.392 68.4143C172.757 69.3062 175.733 71.2825 177.861 74.0371C179.989 76.7918 181.149 80.1711 181.161 83.6517C181.129 85.5923 180.731 87.5094 179.988 89.3023C172.532 85.6883 164.366 83.7763 156.08 83.7045C141.531 83.768 127.565 89.4354 117.086 99.5287V99.5287Z" fill="black"/>
<path d="M214.584 258.431H209.705V195.424C209.692 192.723 208.612 190.137 206.7 188.229C204.788 186.322 202.199 185.249 199.498 185.243H109.412C106.705 185.249 104.111 186.327 102.198 188.241C100.285 190.155 99.2085 192.75 99.205 195.457V258.431H94.3259C93.3309 258.431 92.3766 258.826 91.6731 259.529C90.9695 260.233 90.5742 261.187 90.5742 262.182V278.079C90.5777 280.022 91.3515 281.884 92.7259 283.257C94.1004 284.631 95.9633 285.403 97.9061 285.404H211.003C212.946 285.403 214.809 284.631 216.184 283.257C217.558 281.884 218.332 280.022 218.335 278.079V262.169C218.332 261.176 217.935 260.226 217.232 259.525C216.529 258.824 215.576 258.431 214.584 258.431V258.431ZM106.708 195.424C106.708 194.706 106.993 194.018 107.5 193.51C108.007 193.002 108.694 192.716 109.412 192.714H199.498C200.215 192.716 200.903 193.002 201.41 193.51C201.917 194.018 202.201 194.706 202.201 195.424V258.431H106.708V195.424ZM210.832 277.894L98.0842 278.066V265.921H210.832V277.894Z" fill="black"/>
<path d="M189.885 201.641H119.032C118.037 201.641 117.082 202.037 116.379 202.74C115.675 203.444 115.28 204.398 115.28 205.393V247.004C115.28 247.999 115.675 248.954 116.379 249.657C117.082 250.361 118.037 250.756 119.032 250.756H189.885C190.88 250.756 191.834 250.361 192.538 249.657C193.241 248.954 193.636 247.999 193.636 247.004V205.393C193.636 204.398 193.241 203.444 192.538 202.74C191.834 202.037 190.88 201.641 189.885 201.641ZM186.133 243.266H122.777V209.145H186.133V243.266Z" fill="black"/>
</svg>
