<svg width="287" height="287" viewBox="0 0 287 287" fill="none" xmlns="http://www.w3.org/2000/svg">
<g clip-path="url(#clip0_265:32)">
<path d="M85.7595 40.7655C90.3936 30.9116 97.7829 22.571 107.057 16.7263C116.331 10.8816 127.103 7.77635 138.105 7.77635C149.106 7.77635 159.878 10.8816 169.152 16.7263C178.426 22.571 185.816 30.9116 190.45 40.7655C192.49 45.0732 195.73 48.7184 199.79 51.2746C203.851 53.8309 208.565 55.1926 213.38 55.2006H213.606C220.432 55.2005 227.191 56.5348 233.493 59.1264C239.794 61.718 245.514 65.5158 250.323 70.3007C255.131 75.0857 258.933 80.7632 261.51 87.0061C264.086 93.2489 265.386 99.9336 265.334 106.675C265.326 107.706 265.734 108.698 266.466 109.433C267.199 110.167 268.198 110.584 269.242 110.592H269.271C270.31 110.592 271.307 110.186 272.045 109.463C272.782 108.74 273.2 107.759 273.208 106.733C273.267 98.9654 271.77 91.2633 268.801 84.0703C265.833 76.8773 261.452 70.3357 255.911 64.8225C250.371 59.3093 243.78 54.9336 236.52 51.9476C229.259 48.9615 221.471 47.4242 213.606 47.4243H213.439C210.114 47.4291 206.856 46.4966 204.049 44.7364C201.241 42.9761 199.001 40.4613 197.591 37.4872C192.324 26.2896 183.926 16.8117 173.387 10.1702C162.848 3.52862 150.607 0 138.105 0C125.603 0 113.361 3.52862 102.822 10.1702C92.2831 16.8117 83.8856 26.2896 78.6188 37.4872C77.2112 40.4558 74.9765 42.967 72.1762 44.7268C69.3759 46.4867 66.1259 47.4223 62.8067 47.4243H62.6032C54.7381 47.4243 46.9507 48.9616 39.6899 51.9476C32.4292 54.9336 25.8386 59.3094 20.2982 64.8225C14.7578 70.3357 10.377 76.8773 7.40845 84.0702C4.43988 91.2632 2.94218 98.9653 3.00171 106.733C3.24362 138.944 30.2946 165.149 63.302 165.149H85.8886C86.9328 165.149 87.9342 164.74 88.6725 164.011C89.4109 163.281 89.8257 162.293 89.8257 161.261C89.8257 160.23 89.4109 159.241 88.6725 158.512C87.9342 157.783 86.9328 157.373 85.8886 157.373H63.302C34.6039 157.373 11.0858 134.63 10.8758 106.675C10.824 99.9334 12.1237 93.2487 14.7 87.0059C17.2763 80.763 21.0783 75.0855 25.8868 70.3005C30.6953 65.5156 36.4153 61.7178 42.7169 59.1262C49.0185 56.5346 55.7772 55.2004 62.6035 55.2004H62.8182C67.6353 55.1937 72.351 53.8327 76.4136 51.2764C80.4762 48.7202 83.7179 45.0744 85.7595 40.7655V40.7655Z" fill="black"/>
<path d="M202.7 153.77H186.366C186.218 153.77 186.077 153.828 185.972 153.931C185.868 154.034 185.809 154.174 185.809 154.32V165.472H203.257V154.32C203.257 154.174 203.198 154.034 203.094 153.931C202.989 153.828 202.848 153.77 202.7 153.77V153.77Z" fill="black"/>
<path d="M194.533 197.649C199.228 197.649 203.034 193.89 203.034 189.253C203.034 184.616 199.228 180.858 194.533 180.858C189.838 180.858 186.032 184.616 186.032 189.253C186.032 193.89 189.838 197.649 194.533 197.649Z" fill="black"/>
<path d="M62.8534 65.8958C57.4962 65.8958 52.192 66.9429 47.2465 68.9769C42.301 71.0109 37.812 73.9915 34.0384 77.7468C30.2647 81.5021 27.281 85.9579 25.2592 90.8573C23.2375 95.7568 22.2176 101.003 22.2584 106.294C22.2661 107.32 22.6842 108.301 23.4216 109.024C24.159 109.747 25.1558 110.153 26.1949 110.153H26.2243C27.2684 110.145 28.2667 109.728 28.9996 108.994C29.7325 108.259 30.1399 107.267 30.1323 106.236C30.0991 101.972 30.9207 97.7438 32.5499 93.7947C34.179 89.8457 36.5834 86.2541 39.6246 83.227C42.6657 80.2 46.2835 77.7972 50.2692 76.1573C54.255 74.5174 58.53 73.6728 62.8479 73.6721H63.0655H63.0709C64.115 73.6728 65.1167 73.2638 65.8556 72.5351C66.5944 71.8064 67.0099 70.8177 67.0106 69.7865C67.0113 68.7553 66.5972 67.7661 65.8593 67.0364C65.1215 66.3068 64.1204 65.8964 63.0762 65.8958H62.8534Z" fill="black"/>
<path d="M270.673 125.279C256.046 122.699 228.25 115.123 206.418 93.3777C204.898 91.8578 203.088 90.6511 201.092 89.8275C199.096 89.0039 196.954 88.5798 194.791 88.5798C192.628 88.5798 190.486 89.0039 188.491 89.8275C186.495 90.6511 184.684 91.8578 183.164 93.3777C161.334 115.123 133.537 122.699 118.911 125.279C114.988 125.979 111.456 128.06 108.97 131.136C106.483 134.212 105.211 138.075 105.389 142.007C107.536 186.701 120.295 223.342 143.313 250.912C161.886 273.158 181.999 282.876 189.785 286.022C192.992 287.326 196.591 287.326 199.798 286.022C207.584 282.876 227.697 273.158 246.27 250.912C269.288 223.342 282.046 186.701 284.192 142.007C284.371 138.075 283.1 134.212 280.613 131.136C278.127 128.06 274.595 125.979 270.673 125.279V125.279ZM190.854 278.018C182.602 274.407 165.458 265.214 149.388 245.966C127.476 219.72 115.319 184.619 113.255 141.639C113.162 139.592 113.825 137.582 115.12 135.981C116.414 134.38 118.253 133.298 120.295 132.935C135.837 130.192 165.399 122.118 188.756 98.853V98.8527C189.372 98.2388 190.079 97.7214 190.854 97.3184V116.878C190.705 116.98 190.555 117.08 190.414 117.196C171.089 133.046 149.679 141.008 133.972 144.982C132.393 145.388 131.012 146.337 130.079 147.659C129.145 148.981 128.72 150.588 128.88 152.192C132.185 186.804 142.913 215.173 160.838 236.642C168.667 246.147 178.123 254.222 188.777 260.501C189.437 260.881 190.132 261.198 190.854 261.447V278.018ZM174.328 213.034C171.935 213.031 169.64 212.091 167.947 210.419C166.254 208.747 165.302 206.481 165.299 204.117V174.39C165.302 172.025 166.254 169.759 167.947 168.087C169.64 166.415 171.935 165.475 174.329 165.472H177.935V154.32C177.937 152.112 178.827 149.996 180.407 148.435C181.988 146.873 184.131 145.995 186.366 145.993H202.7C204.936 145.995 207.079 146.873 208.659 148.435C210.24 149.996 211.129 152.112 211.132 154.32V165.472H214.739C217.132 165.475 219.427 166.415 221.12 168.087C222.813 169.759 223.765 172.025 223.767 174.39V204.117C223.765 206.481 222.813 208.747 221.12 210.419C219.427 212.091 217.132 213.031 214.739 213.034H174.328ZM276.327 141.639C274.264 184.619 262.107 219.72 240.194 245.966C224.124 265.214 206.98 274.407 198.728 278.018V261.447C199.45 261.198 200.145 260.881 200.805 260.501C211.459 254.222 220.915 246.147 228.744 236.642C246.668 215.175 257.396 186.803 260.702 152.192C260.861 150.588 260.436 148.98 259.503 147.659C258.569 146.337 257.189 145.388 255.609 144.982C239.903 141.007 218.492 133.045 199.168 117.196C199.026 117.08 198.876 116.98 198.727 116.878L198.728 97.3182C199.503 97.7212 200.21 98.2388 200.827 98.8529C224.184 122.119 253.746 130.193 269.288 132.935C271.329 133.298 273.168 134.381 274.463 135.981C275.757 137.582 276.419 139.592 276.327 141.639V141.639Z" fill="black"/>
</g>
<defs>
<clipPath id="clip0_265:32">
<rect width="281" height="287" fill="white" transform="translate(3)"/>
</clipPath>
</defs>
</svg>
