<svg width="56" height="61" viewBox="0 0 56 61" fill="none" xmlns="http://www.w3.org/2000/svg">
<path d="M55.9008 61C55.9008 61 56.5208 58.8583 54.6608 55.2887C52.8007 51.7191 37.3003 45.2939 36.6802 44.58C36.2454 44.0793 36.1155 41.1205 36.0767 39.3978C36.7617 38.6925 37.4141 37.8878 38.0248 36.9837C39.1601 35.3029 40.0634 33.4088 40.7347 31.3884C41.4169 31.151 42.3244 30.6776 43.2318 29.7342C45.0529 27.8408 45.0529 22.1607 44.1424 21.214C43.7838 20.8412 43.0016 21.0556 42.185 21.4526C42.1751 20.9667 42.1539 20.4811 42.1214 19.997C42.2681 18.5016 42.3107 17.1288 42.1907 16.0234C41.5707 10.3121 39.7803 4.60078 38.5403 3.17295C37.3003 1.74512 35.4402 1.03121 32.9601 0.317295C30.4801 -0.396619 25.5692 0.317295 23.0399 0.317295C14.9796 0.317295 10.6395 4.60078 10.6395 4.60078C10.6395 4.60078 12.3288 3.9524 14.0975 5.12725C11.7365 6.28401 11.2595 9.02996 11.2595 9.02996C11.2595 9.02996 13.0715 8.21031 14.9794 7.50253C14.9648 8.91516 14.2832 10.3428 13.6699 13.1678C13.3529 14.6277 13.198 18.3266 13.3708 22.0707C12.7253 21.8126 12.1503 21.7256 11.8576 22.0299C10.9471 22.9766 10.9471 28.6567 12.7682 30.5501C13.7901 31.6125 14.812 32.0788 15.5121 32.2834C16.1422 33.9688 16.9402 35.5535 17.9063 36.9837C18.537 37.9173 19.2121 38.745 19.9217 39.4667C19.881 41.1982 19.7488 44.0859 19.3198 44.58C18.6997 45.2939 3.19929 51.7191 1.33924 55.2887C-0.520814 58.8583 0.0992026 61 0.0992028 61H55.9008ZM24.5782 6.13056L29.2837 4.67876C29.7562 4.53297 30.2419 4.85585 30.3685 5.39992C30.4951 5.94399 30.2147 6.50323 29.7422 6.64901L25.0366 8.10081C24.5641 8.24659 24.0784 7.92372 23.9518 7.37965C23.8252 6.83558 24.1056 6.27634 24.5782 6.13056ZM23.9252 9.2356L31.6253 6.85993C32.0978 6.71414 32.5835 7.03702 32.7101 7.58109C32.8367 8.12516 32.5563 8.6844 32.0838 8.83018L24.3837 11.2059C23.9112 11.3516 23.4255 11.0288 23.2989 10.4847C23.1723 9.94062 23.4527 9.38138 23.9252 9.2356ZM23.914 12.1427L31.614 9.767C32.0865 9.62121 32.5722 9.94409 32.6988 10.4882C32.8254 11.0322 32.545 11.5915 32.0725 11.7372L24.3725 14.1129C23.9 14.2587 23.4143 13.9358 23.2877 13.3918C23.1611 12.8477 23.4415 12.2885 23.914 12.1427ZM25.1861 14.6538L31.3889 12.7401C31.8614 12.5943 32.3471 12.9171 32.4737 13.4612C32.6003 14.0053 32.3199 14.5645 31.8474 14.7103L25.6446 16.624C25.1721 16.7698 24.6864 16.447 24.5598 15.9029C24.4332 15.3588 24.7136 14.7996 25.1861 14.6538ZM26.9291 24.9864L26.8917 24.9218C26.8263 24.8088 26.8528 24.6561 26.951 24.5807C26.9861 24.5538 27.0273 24.5394 27.0695 24.5394H29.3712C29.4892 24.5394 29.5848 24.6495 29.5848 24.7854C29.5848 24.8339 29.5723 24.8814 29.5489 24.9218L29.5116 24.9864C29.3966 25.185 29.203 25.3043 28.9957 25.3043H27.445C27.2377 25.3043 27.0441 25.185 26.9291 24.9864ZM30.8775 21.0007V22.9786C30.8775 23.3249 30.7581 23.6571 30.5454 23.902C30.3327 24.1468 30.0443 24.2844 29.7435 24.2844H26.6971C26.3964 24.2844 26.1079 24.1468 25.8953 23.902C25.6826 23.6571 25.5631 23.3249 25.5631 22.9786V21.0007C25.5631 20.6544 25.4436 20.3223 25.2309 20.0774C25.0183 19.8325 24.8988 19.5004 24.8988 19.1541V19.0575C24.8988 18.7055 25.1466 18.4201 25.4524 18.4201H25.7844L25.7834 17.4455L27.3346 16.9269L27.3352 18.4201H29.1068L29.1061 16.3804L30.6572 15.8569V18.4201H30.9883C31.294 18.4201 31.5418 18.7055 31.5418 19.0575V19.1541C31.5418 19.5004 31.4224 19.8325 31.2097 20.0774C30.997 20.3223 30.8775 20.6544 30.8775 21.0007ZM1.35747 14.6409C3.03517 14.6409 7.55765 13.2131 7.55765 13.2131C7.55765 13.2131 3.03517 11.7852 1.35747 11.7852C-0.320221 11.7852 -0.320221 14.6409 1.35747 14.6409ZM2.32241 7.87036C3.89893 8.53107 8.57279 8.97038 8.57279 8.97038C8.57279 8.97038 4.74716 5.84763 3.17064 5.18692C1.59413 4.52622 0.745892 7.20966 2.32241 7.87036ZM3.17064 21.2392C4.74716 20.5785 8.57279 17.4557 8.57279 17.4557C8.57279 17.4557 3.89893 17.8951 2.32241 18.5558C0.745892 19.2165 1.59413 21.8999 3.17064 21.2392ZM53.4025 14.6409C55.0802 14.6409 55.0802 11.7852 53.4025 11.7852C51.7248 11.7852 47.2023 13.2131 47.2023 13.2131C47.2023 13.2131 51.7248 14.6409 53.4025 14.6409ZM52.4376 7.87036C54.0141 7.20966 53.1658 4.52622 51.5893 5.18692C50.0128 5.84763 46.1872 8.97038 46.1872 8.97038C46.1872 8.97038 50.861 8.53107 52.4376 7.87036ZM51.5893 21.2392C53.1658 21.8999 54.0141 19.2165 52.4376 18.5558C50.861 17.8951 46.1872 17.4557 46.1872 17.4557C46.1872 17.4557 50.0128 20.5785 51.5893 21.2392Z" fill="black"/>
</svg>
