<svg width="120" height="60" viewBox="0 0 120 60" fill="none" xmlns="http://www.w3.org/2000/svg">
<path d="M11.2592 22.2334C10.1662 22.4542 9.00267 23.3303 8.50526 24.2878C8.00785 25.2454 8 25.4798 8 29.5072L8.09026 33.7063C8.41108 35.3447 9.69237 36.627 11.3318 36.9478C11.8282 37.038 18.2936 37.0832 18.2936 36.9841C18.2936 36.9115 17.7442 34.7452 17.7049 34.7276C17.6951 34.7099 16.5492 34.4568 15.159 34.1585C11.9175 33.4541 12.0166 33.4718 11.7448 33.1559L11.5093 32.8763V26.3206L11.7448 26.0263C12.0156 25.7026 11.9165 25.7281 15.159 25.0236L17.7049 24.4546C17.7324 24.4271 18.2936 22.2609 18.2936 22.1981C18.2936 22.1128 11.6928 22.153 11.2592 22.2432V22.2334ZM21.7244 22.2472C21.7342 22.41 22.2395 24.4056 22.2934 24.4507C22.3111 24.4782 23.5492 24.7578 25.0405 25.0737L27.9573 25.7781C28.1162 25.8705 28.2498 26.001 28.3458 26.1578C28.49 26.4109 28.5086 26.6817 28.5086 29.5886L28.3458 33.0195C28.2474 33.1744 28.1144 33.3043 27.9573 33.3992C27.8395 33.462 26.5308 33.7789 25.0405 34.1036L22.2934 34.7266C22.0696 35.4518 21.8797 36.1871 21.7244 36.9301C21.7244 37.0282 22.3749 37.0478 25.2269 37.0204C29.164 36.9841 29.2101 36.9752 30.2108 36.2983C30.9309 35.8029 31.4748 35.0913 31.7639 34.2665C31.9719 33.6611 31.9719 33.6072 31.9719 29.5896L31.7639 24.9098C31.4748 24.085 30.9309 23.3734 30.2108 22.878C29.2081 22.1912 29.163 22.1912 25.2269 22.1559C22.3739 22.1285 21.7244 22.1422 21.7244 22.2462V22.2472ZM38.5275 25.318C37.9045 26.6179 37.2815 28.2249 36.6409 30.1743L35.3586 34.5716C35.5989 34.5951 35.8491 34.604 36.0807 34.599H36.7939L36.892 34.2105L37.2452 32.9744L37.4885 32.1169H42.4459L42.6991 33.0195L43.0424 34.2557L43.1327 34.599H43.846L44.568 34.5716C44.568 34.5539 44.3875 33.8848 44.1619 33.0725C43.3407 30.1017 42.2929 27.186 41.408 25.3435L40.937 24.3957H38.969L38.5275 25.318ZM40.6663 27.1232L41.9485 30.5903C41.9485 30.608 41.0656 30.6266 39.9618 30.6266C38.8581 30.6266 37.9751 30.5903 37.9751 30.554C37.9751 30.401 38.8875 27.9718 39.329 26.924C39.6724 26.1195 39.8441 25.8311 39.9609 25.8311C40.0776 25.8311 40.2591 26.1646 40.6653 27.1134L40.6663 27.1232ZM45.4697 29.4974V34.599H46.9148V24.3957H45.4697V29.4974ZM48.72 24.5135C48.5507 24.627 48.4138 24.7825 48.3226 24.9648C48.1784 25.2719 48.1696 25.3445 48.2863 25.6515C48.4433 26.1048 48.9299 26.352 49.3881 26.2108C49.8394 26.0665 50.0288 25.8046 50.0288 25.3346C50.0288 24.9913 49.9836 24.8932 49.7305 24.6675C49.4146 24.3879 49.0899 24.3339 48.72 24.5233V24.5135ZM51.3395 29.4797V34.5814L52.4501 34.6628L54.5447 34.7442C55.4571 34.7442 55.5827 34.7266 56.0615 34.4823C56.6256 34.2272 57.0484 33.7337 57.2172 33.1382C57.2711 32.9224 57.2986 31.9648 57.28 30.6561C57.2525 28.6429 57.2437 28.4977 57.0543 28.1366C56.7011 27.4862 56.1694 27.1703 55.1854 27.0349C54.6615 26.9623 53.3605 27.0349 52.9642 27.1624C52.7925 27.2164 52.7836 27.1801 52.7836 25.8183V24.3997H51.3385L51.3395 29.4797ZM55.4473 28.5045C55.6238 28.5686 55.7691 28.6978 55.8535 28.8656C55.9712 29.1727 55.9712 32.5319 55.8535 32.8292C55.7181 33.199 55.2648 33.3707 54.4083 33.3707C54.0098 33.3751 53.6114 33.3509 53.2163 33.2981L52.7827 33.2353V28.5673L53.3066 28.4771C54.1111 28.3417 55.0941 28.3495 55.4453 28.5045H55.4473ZM65.6957 29.4886V34.5902L66.5807 34.6353L68.4222 34.7531C69.6583 34.8257 70.4354 34.6255 70.9416 34.0938C71.5921 33.4266 71.6087 33.3442 71.6284 31.0691C71.6558 29.4169 71.6382 28.9107 71.5302 28.5408C71.2869 27.6922 70.5825 27.1595 69.5072 27.0329C68.9657 26.9701 67.548 27.0427 67.2586 27.1604C67.1683 27.1879 67.1409 26.8808 67.1409 25.8065V24.4065H65.6957V29.4886ZM69.7496 28.4633C69.9026 28.5173 70.0733 28.635 70.1194 28.7253C70.2176 28.9058 70.247 32.6791 70.1557 32.9243C70.0027 33.3217 68.7822 33.4934 67.5735 33.2942L67.1399 33.2314V28.5693L67.6638 28.479C68.3859 28.3613 69.4062 28.3515 69.7496 28.4653V28.4633ZM84.097 24.486C83.1944 24.6489 82.7235 24.8657 82.2643 25.3346C81.5422 26.0567 81.4971 26.3187 81.4971 29.5877C81.4971 32.8566 81.5422 33.1176 82.282 33.8495C82.6617 34.238 82.8706 34.3548 83.4102 34.5363C83.9989 34.7168 84.2677 34.7442 85.4784 34.7442C86.5262 34.7442 87.0677 34.6991 87.6093 34.5726C87.8975 34.5152 88.1811 34.4368 88.4579 34.3381C88.5305 34.2929 88.5207 34.1301 88.4128 33.6974C88.3619 33.4783 88.2923 33.264 88.2048 33.0568C88.1685 33.0205 87.9428 33.047 87.7084 33.1196C86.9039 33.3629 85.496 33.4629 84.6199 33.355C83.7438 33.2471 83.4191 33.1019 83.1483 32.7497C82.9678 32.5142 82.9589 32.4161 82.9589 29.5984C82.9589 26.7808 82.9687 26.6817 83.1483 26.4472C83.4279 26.094 83.7438 25.9596 84.6199 25.8419C85.496 25.7241 86.9039 25.8321 87.7084 26.0773L88.196 26.2127C88.2686 26.2127 88.5845 24.9569 88.5295 24.904C88.5021 24.8765 88.1685 24.7764 87.7712 24.6685C86.9863 24.4605 84.8544 24.3614 84.1048 24.4968L84.097 24.486ZM89.803 29.4974V34.599H91.1569V24.3957H89.803V29.4974ZM110.308 25.7496V27.1035L109.793 27.0496L109.071 26.9593C108.763 26.9054 107.625 27.0869 107.301 27.2487C106.88 27.4721 106.535 27.8144 106.308 28.2328C106.127 28.5663 106.11 28.7567 106.082 30.5874C106.046 33.0519 106.118 33.4129 106.769 34.0545C107.356 34.6236 108.051 34.8129 109.233 34.7413L110.913 34.6432L111.744 34.5892V24.4056H110.3L110.308 25.7496ZM110.155 28.5036C110.299 28.5663 110.308 28.7655 110.308 30.9053V33.2344L109.974 33.2971C109.385 33.4149 108.294 33.3874 107.979 33.252C107.816 33.1794 107.645 33.0538 107.599 32.9626C107.553 32.8714 107.509 31.9148 107.509 30.8317C107.509 28.6733 107.526 28.6105 108.005 28.4574C108.294 28.3672 109.883 28.4035 110.163 28.5026L110.155 28.5036ZM60.649 27.0192C60.2451 27.0733 59.8442 27.1486 59.4482 27.2448C58.9606 27.3626 58.8428 27.4253 58.8791 27.5431C58.9066 27.6245 58.9694 27.8865 59.0322 28.1386C59.095 28.3907 59.1597 28.6174 59.1951 28.6439C59.2304 28.6703 59.6199 28.6262 60.0623 28.5457C61.5703 28.2298 62.5906 28.3741 62.7348 28.9156C62.7804 29.1567 62.8047 29.4012 62.8074 29.6465L62.8172 30.1518L61.9598 30.1067C59.666 29.9889 58.2846 30.8474 58.2669 32.3906C58.2571 33.1215 58.4926 33.6906 58.9802 34.1419C59.5492 34.6658 60.1536 34.8286 61.3191 34.7472L63.2057 34.6491L64.1809 34.5863L64.127 28.5183L63.8739 28.0935C63.3686 27.2399 62.1668 26.8426 60.65 27.0368L60.649 27.0192ZM62.7525 31.5881C62.8427 31.6421 62.8339 33.2402 62.7427 33.2402C62.6975 33.2402 62.2374 33.2854 61.7125 33.3383C60.2046 33.4826 59.6542 33.2569 59.6542 32.4809C59.6542 32.1473 59.6993 32.0472 59.925 31.8491C60.1212 31.697 60.3743 31.6008 60.6294 31.5694L61.1886 31.4792C61.3515 31.4429 62.6602 31.5282 62.7505 31.592L62.7525 31.5881ZM75.0504 27.0064L73.8495 27.2419C73.2442 27.3861 73.1902 27.4224 73.2354 27.5951L73.3982 28.2622C73.4963 28.7135 73.516 28.741 73.7318 28.687C74.9415 28.3711 76.106 28.2808 76.577 28.4516C77.0018 28.6144 77.092 28.7949 77.092 29.4817V30.1322H75.9716C74.554 30.1322 73.9035 30.3127 73.2805 30.8729C73.022 31.0911 72.8227 31.3711 72.7012 31.6868C72.5796 32.0025 72.5396 32.3438 72.5849 32.6791C72.738 34.1507 73.7858 34.8639 75.6636 34.7472L77.5502 34.6491L78.5254 34.5863L78.4979 31.5979C78.4705 28.7263 78.4616 28.5909 78.2723 28.2387C77.7572 27.2723 76.5927 26.8387 75.0396 27.0202L75.0504 27.0064ZM76.8379 31.5194H77.0812V33.2265L76.5662 33.2893C75.5733 33.4168 74.6069 33.3874 74.3538 33.2167C73.8486 32.8831 73.8662 32.007 74.3813 31.7451C74.7345 31.5645 75.5733 31.438 76.1325 31.4919L76.8369 31.5282L76.8379 31.5194ZM94.3366 27.0045C93.7885 27.1237 93.2959 27.4224 92.9366 27.8531C92.4755 28.4584 92.4313 28.7557 92.4313 30.9239C92.4313 33.1451 92.4941 33.406 93.0906 34.03C93.6792 34.6353 93.9579 34.7168 95.3206 34.7168C96.7206 34.7168 97.0375 34.6187 97.6144 33.9319C98.1638 33.2814 98.2285 32.9567 98.203 30.6727C98.1756 28.8126 98.1579 28.6321 97.9774 28.2887C97.7103 27.796 97.2969 27.3984 96.7942 27.1506C96.3331 26.9426 94.9792 26.8524 94.3474 26.9878L94.3366 27.0045ZM96.3233 28.5036C96.7844 28.739 96.856 29.0628 96.856 30.8425C96.856 32.5299 96.7932 32.8468 96.4047 33.1902C96.1251 33.4433 94.8517 33.5061 94.3915 33.2805C93.85 33.0273 93.7862 32.7654 93.7862 30.8425C93.7862 29.001 93.8402 28.7567 94.3101 28.5036C94.6535 28.3142 95.9622 28.3142 96.3233 28.5036V28.5036ZM48.459 30.8425V34.5902H49.8129V27.0947H48.459V30.8425ZM99.3283 27.2124C99.3009 27.285 99.292 28.6389 99.3107 30.2195C99.3382 32.8194 99.3558 33.1264 99.5089 33.4159C100.042 34.4185 100.944 34.8335 102.416 34.7344L104.982 34.5804V27.1045H103.609V33.2363L103.184 33.2991C102.399 33.4266 101.423 33.3805 101.107 33.2177L100.791 33.0372C100.781 33.0273 100.746 31.7009 100.719 30.0939L100.673 27.1506L100.014 27.1232C99.5177 27.1055 99.347 27.1232 99.3097 27.2213L99.3283 27.2124ZM17.6951 29.3973C17.6657 29.4939 17.6596 29.5962 17.6774 29.6956C17.7049 29.8486 17.8668 29.8584 19.9889 29.8849L22.265 29.9026V29.2708H20.0085C18.1219 29.2708 17.7324 29.2884 17.6971 29.3983L17.6951 29.3973Z" fill="#373C41"/>
</svg>
