<svg width="120" height="60" viewBox="0 0 120 60" fill="none" xmlns="http://www.w3.org/2000/svg">
<path d="M45.1545 24.0376C45.1545 24.8916 45.2469 25.5841 45.4084 26.092C45.5931 26.5998 45.8239 27.1538 46.1471 27.7539C46.2625 27.9386 46.3087 28.1233 46.3087 28.2849C46.3087 28.5157 46.1702 28.7465 45.8701 28.9773L44.4159 29.9468C44.2081 30.0853 44.0004 30.1546 43.8157 30.1546C43.5849 30.1546 43.3541 30.0392 43.1232 29.8314C42.8001 29.4852 42.5231 29.1158 42.2922 28.7465C42.0614 28.3541 41.8306 27.9155 41.5767 27.3846C39.7762 29.5083 37.514 30.5701 34.7902 30.5701C32.8512 30.5701 31.3047 30.0161 30.1736 28.9081C29.0425 27.8001 28.4655 26.3228 28.4655 24.4761C28.4655 22.5141 29.1579 20.9213 30.566 19.721C31.9741 18.5207 33.8438 17.9205 36.2214 17.9205C37.0062 17.9205 37.8141 17.9898 38.6682 18.1052C39.5223 18.2206 40.3994 18.4053 41.3227 18.613V16.928C41.3227 15.1736 40.9534 13.9502 40.2378 13.2347C39.4992 12.5191 38.2527 12.1728 36.4753 12.1728C35.6674 12.1728 34.8364 12.2652 33.9823 12.4729C33.1282 12.6807 32.2972 12.9346 31.4893 13.2578C31.12 13.4193 30.843 13.5117 30.6814 13.5578C30.5199 13.604 30.4044 13.6271 30.3121 13.6271C29.9889 13.6271 29.8274 13.3963 29.8274 12.9115V11.7804C29.8274 11.4111 29.8735 11.1341 29.9889 10.9725C30.1044 10.8109 30.3121 10.6494 30.6353 10.4878C31.4432 10.0723 32.4127 9.72604 33.5437 9.44904C34.6748 9.14896 35.8751 9.01046 37.1447 9.01046C39.8916 9.01046 41.8998 9.6337 43.1925 10.8802C44.462 12.1267 45.1084 14.0195 45.1084 16.5586V24.0376H45.1545ZM35.7828 27.5462C36.5445 27.5462 37.3294 27.4077 38.1604 27.1307C38.9913 26.8537 39.73 26.3459 40.3533 25.6534C40.7226 25.2148 40.9996 24.7301 41.1381 24.1761C41.2766 23.6221 41.3689 22.9527 41.3689 22.1678V21.1983C40.6995 21.0368 39.9839 20.8983 39.2453 20.8059C38.5066 20.7136 37.791 20.6674 37.0755 20.6674C35.5289 20.6674 34.3978 20.9675 33.6361 21.5908C32.8743 22.214 32.505 23.0912 32.505 24.2453C32.505 25.3302 32.782 26.1381 33.3591 26.6921C33.9131 27.2692 34.721 27.5462 35.7828 27.5462ZM54.3185 30.0392C53.903 30.0392 53.626 29.9699 53.4414 29.8083C53.2567 29.6698 53.0951 29.3467 52.9566 28.9081L47.5321 11.0649C47.3936 10.6032 47.3243 10.3031 47.3243 10.1415C47.3243 9.7722 47.509 9.56446 47.8783 9.56446H50.1405C50.5791 9.56446 50.8791 9.6337 51.0407 9.79529C51.2254 9.93378 51.3639 10.2569 51.5024 10.6955L55.3803 25.9765L58.9813 10.6955C59.0967 10.2339 59.2352 9.93378 59.4199 9.79529C59.6046 9.65679 59.9277 9.56446 60.3432 9.56446H62.1899C62.6284 9.56446 62.9285 9.6337 63.1132 9.79529C63.2978 9.93378 63.4594 10.2569 63.5518 10.6955L67.1989 26.1612L71.1923 10.6955C71.3308 10.2339 71.4923 9.93378 71.6539 9.79529C71.8386 9.65679 72.1387 9.56446 72.5542 9.56446H74.7009C75.0702 9.56446 75.278 9.74912 75.278 10.1415C75.278 10.2569 75.2549 10.3724 75.2318 10.5109C75.2087 10.6494 75.1626 10.834 75.0702 11.0879L69.5072 28.9312C69.3687 29.3928 69.2071 29.6929 69.0225 29.8314C68.8378 29.9699 68.5377 30.0623 68.1453 30.0623H66.1602C65.7216 30.0623 65.4215 29.993 65.2368 29.8314C65.0522 29.6698 64.8906 29.3698 64.7983 28.9081L61.2204 14.0195L57.6656 28.885C57.5502 29.3467 57.4117 29.6468 57.227 29.8083C57.0423 29.9699 56.7192 30.0392 56.3037 30.0392H54.3185ZM83.9803 30.6624C82.78 30.6624 81.5797 30.5239 80.4255 30.2469C79.2714 29.9699 78.3711 29.6698 77.771 29.3236C77.4016 29.1158 77.1477 28.885 77.0554 28.6773C76.963 28.4695 76.9169 28.2387 76.9169 28.0309V26.8537C76.9169 26.369 77.1015 26.1381 77.4478 26.1381C77.5863 26.1381 77.7248 26.1612 77.8633 26.2074C78.0018 26.2535 78.2095 26.3459 78.4404 26.4382C79.2252 26.7845 80.0793 27.0614 80.9795 27.2461C81.9028 27.4308 82.8031 27.5231 83.7264 27.5231C85.1806 27.5231 86.3117 27.2692 87.0965 26.7614C87.8814 26.2535 88.2968 25.5149 88.2968 24.5685C88.2968 23.9221 88.0891 23.3912 87.6736 22.9527C87.2581 22.5141 86.4733 22.1217 85.3422 21.7523L81.9952 20.7136C80.3101 20.1827 79.0636 19.3979 78.3019 18.3591C77.5401 17.3435 77.1477 16.2124 77.1477 15.0121C77.1477 14.0426 77.3555 13.1885 77.771 12.4498C78.1864 11.7112 78.7404 11.0649 79.4329 10.557C80.1254 10.0261 80.9103 9.6337 81.8336 9.35671C82.7569 9.07971 83.7264 8.96429 84.742 8.96429C85.2499 8.96429 85.7808 8.98738 86.2886 9.05663C86.8195 9.12588 87.3043 9.21821 87.789 9.31054C88.2507 9.42596 88.6893 9.54137 89.1048 9.67987C89.5202 9.81837 89.8434 9.95687 90.0742 10.0954C90.3974 10.28 90.6282 10.4647 90.7667 10.6724C90.9052 10.8571 90.9745 11.111 90.9745 11.4342V12.5191C90.9745 13.0038 90.7898 13.2578 90.4436 13.2578C90.2589 13.2578 89.9588 13.1654 89.5664 12.9808C88.2507 12.3806 86.7734 12.0805 85.1345 12.0805C83.8187 12.0805 82.78 12.2883 82.0644 12.7268C81.3488 13.1654 80.9795 13.8348 80.9795 14.7812C80.9795 15.4276 81.2103 15.9816 81.672 16.4201C82.1337 16.8587 82.9877 17.2973 84.2111 17.6897L87.4889 18.7284C89.1509 19.2594 90.3512 19.998 91.0668 20.9444C91.7824 21.8908 92.1286 22.9757 92.1286 24.1761C92.1286 25.1686 91.9209 26.0689 91.5285 26.8537C91.113 27.6385 90.559 28.331 89.8434 28.885C89.1278 29.4621 88.2738 29.8776 87.2812 30.1777C86.2424 30.5008 85.1575 30.6624 83.9803 30.6624Z" fill="#252F3E"/>
<path fill-rule="evenodd" clip-rule="evenodd" d="M88.3431 41.8809C80.7488 47.4901 69.715 50.4678 60.2279 50.4678C46.932 50.4678 34.9519 45.5511 25.9033 37.3797C25.1877 36.7333 25.834 35.8562 26.6881 36.364C36.4754 42.0425 48.5478 45.4818 61.0358 45.4818C69.4611 45.4818 78.7174 43.7275 87.2351 40.1266C88.5047 39.5495 89.5896 40.9575 88.3431 41.8809Z" fill="#FF9900"/>
<path fill-rule="evenodd" clip-rule="evenodd" d="M91.5054 38.2799C90.5359 37.0334 85.0883 37.6797 82.6184 37.9798C81.8797 38.0721 81.7643 37.4258 82.4337 36.941C86.7734 33.8941 93.906 34.7712 94.737 35.7869C95.568 36.8256 94.5062 43.9583 90.4436 47.3746C89.8203 47.9055 89.2202 47.6285 89.4972 46.936C90.4205 44.6508 92.4749 39.5033 91.5054 38.2799Z" fill="#FF9900"/>
</svg>
