<svg width="784" height="336" viewBox="0 0 784 336" fill="none" xmlns="http://www.w3.org/2000/svg">
<path d="M112.182 228.792C112.253 229.728 112.355 230.604 112.355 231.563C112.355 241.887 108.218 250.986 101.792 256.5H123.958H135.042H157.208C150.78 250.986 146.646 241.887 146.646 231.563C146.646 230.604 146.746 229.728 146.818 228.792H135.042H123.958H112.182Z" fill="#95A5A6"/>
<path d="M112.182 228.792C112.253 229.346 112.355 230.454 112.355 231.563C112.355 234.333 112.099 237.104 111.49 239.875H147.51C146.901 237.104 146.646 234.333 146.646 231.563C146.646 230.454 146.746 229.346 146.818 228.792H135.042H123.958H112.182Z" fill="#7F8C8D"/>
<path d="M68.5417 140.125C65.4811 140.125 63 142.342 63 145.667V151.208V162.292V173.375V184.458V190V195.542V201.083V212.167V223.25V228.792C63 231.563 65.4811 234.333 68.5417 234.333H74.0833H146.125H179.375H184.917H190.458C193.517 234.333 196 231.563 196 228.792V223.25V184.458V178.917V173.375V162.292V151.208V145.667C196 142.342 193.517 140.125 190.458 140.125H184.917H157.208H151.667H101.792H79.625H74.0833H68.5417Z" fill="#BDC3C7"/>
<path d="M190.458 145.667H68.5416V223.25H190.458V145.667Z" fill="#34495E"/>
<path d="M190.458 151.208L74.0834 223.25H182.6H190.458V214.383V151.208Z" fill="#2C3E50"/>
<path d="M578.442 242.509L639.473 207.041L702.746 243.572L641.715 279.04L578.442 242.509Z" fill="#D9DDF6"/>
<path d="M641.716 279.04L702.748 243.572L702.683 247.532L641.651 283L641.716 279.04Z" fill="#AABAFD"/>
<path d="M641.716 279.04L641.651 283L578.378 246.469L578.443 242.509L641.716 279.04Z" fill="#B7C5FD"/>
<path d="M639.502 168.661L688.899 141.476L688.849 245.082L641.409 272.652L639.502 168.661Z" fill="#1B2A4F"/>
<path d="M668.397 247.906L668.403 250.16L684.067 241.117L684.061 238.862L668.397 247.906Z" fill="#384E85"/>
<path d="M668.353 232.319L668.359 234.573L684.023 225.53L684.016 223.276L668.353 232.319Z" fill="#384E85"/>
<path d="M668.364 236.216L668.37 238.47L684.034 229.427L684.027 227.172L668.364 236.216Z" fill="#384E85"/>
<path d="M668.375 240.112L668.381 242.367L684.045 233.323L684.038 231.069L668.375 240.112Z" fill="#384E85"/>
<path d="M668.386 244.009L668.392 246.263L684.056 237.22L684.049 234.966L668.386 244.009Z" fill="#384E85"/>
<path d="M668.397 179.262L668.403 181.516L684.067 172.473L684.061 170.219L668.397 179.262Z" fill="#384E85"/>
<path d="M668.353 163.675L668.359 165.93L684.023 156.886L684.016 154.632L668.353 163.675Z" fill="#384E85"/>
<path d="M668.364 167.572L668.37 169.826L684.034 160.783L684.027 158.529L668.364 167.572Z" fill="#384E85"/>
<path d="M668.375 171.469L668.381 173.723L684.045 164.68L684.038 162.425L668.375 171.469Z" fill="#384E85"/>
<path d="M668.386 175.365L668.392 177.62L684.056 168.576L684.049 166.322L668.386 175.365Z" fill="#384E85"/>
<path d="M641.459 168.661L641.409 272.651L592.226 244.256L592.277 140.649L641.459 168.661Z" fill="#2E4277"/>
<path d="M637.471 172.455L639.502 171.274L639.459 182.296L637.427 183.477L637.471 172.455Z" fill="#4466FB"/>
<path d="M594.227 147.488L596.258 146.307L639.502 171.274L637.471 172.455L594.227 147.488Z" fill="#B7C5FD"/>
<path d="M637.471 172.455L637.428 183.477L594.184 158.51L594.227 147.488L637.471 172.455Z" fill="#B7C5FD"/>
<path d="M637.471 172.455L637.428 183.477L594.184 158.51L594.227 147.488L637.471 172.455Z" fill="#6BB5FB"/>
<path d="M600.05 153.838L600.044 155.344L597.016 153.596L597.022 152.09L600.05 153.838Z" fill="#384E85"/>
<path d="M604.446 156.376L604.44 157.882L601.419 156.138L601.425 154.632L604.446 156.376Z" fill="#384E85"/>
<path d="M633.502 173.151L633.496 174.657L630.467 172.909L630.473 171.403L633.502 173.151Z" fill="#384E85"/>
<path d="M633.316 178.115C633.539 177.986 633.539 177.568 633.315 177.183C633.091 176.797 632.728 176.59 632.505 176.72C632.282 176.849 632.282 177.267 632.506 177.652C632.73 178.038 633.093 178.245 633.316 178.115Z" fill="white"/>
<path d="M630.965 175.635C631.285 175.82 631.537 176.262 631.535 176.623C631.534 176.985 631.281 177.136 630.961 176.951C630.647 176.769 630.395 176.327 630.396 175.966C630.397 175.604 630.65 175.453 630.965 175.635Z" fill="white"/>
<path d="M629.425 175.869C629.649 175.74 629.648 175.322 629.424 174.936C629.2 174.551 628.838 174.344 628.614 174.473C628.391 174.603 628.392 175.021 628.616 175.406C628.84 175.792 629.202 175.999 629.425 175.869Z" fill="white"/>
<path d="M627.478 174.745C627.701 174.615 627.7 174.197 627.476 173.812C627.252 173.426 626.89 173.219 626.666 173.349C626.443 173.478 626.444 173.896 626.668 174.282C626.892 174.667 627.254 174.874 627.478 174.745Z" fill="white"/>
<path d="M595.7 149.748L595.44 149.598L595.408 157.707L595.406 157.806L635.954 181.216L636.214 181.366L636.247 173.257L636.248 173.158L595.7 149.748ZM635.867 180.766L595.757 157.608L595.787 150.198L635.898 173.355L635.867 180.766Z" fill="#4466FB"/>
<path d="M637.471 189.026L639.502 187.845L639.459 198.868L637.427 200.048L637.471 189.026Z" fill="#4466FB"/>
<path d="M594.227 164.059L596.258 162.879L639.502 187.845L637.471 189.026L594.227 164.059Z" fill="#B7C5FD"/>
<path d="M637.471 189.026L637.428 200.048L594.184 175.081L594.227 164.059L637.471 189.026Z" fill="#B7C5FD"/>
<path d="M637.471 189.026L637.428 200.048L594.184 175.081L594.227 164.059L637.471 189.026Z" fill="#6BB5FB"/>
<path d="M600.05 170.41L600.044 171.916L597.016 170.167L597.022 168.661L600.05 170.41Z" fill="#384E85"/>
<path d="M604.446 172.948L604.44 174.454L601.419 172.709L601.425 171.203L604.446 172.948Z" fill="#384E85"/>
<path d="M633.502 189.723L633.496 191.229L630.467 189.48L630.473 187.974L633.502 189.723Z" fill="#384E85"/>
<path d="M633.316 194.687C633.539 194.557 633.539 194.139 633.315 193.754C633.091 193.368 632.728 193.161 632.505 193.291C632.281 193.421 632.282 193.838 632.506 194.224C632.73 194.609 633.093 194.816 633.316 194.687Z" fill="white"/>
<path d="M630.965 192.206C631.285 192.391 631.537 192.834 631.535 193.195C631.534 193.556 631.281 193.707 630.961 193.522C630.647 193.341 630.395 192.898 630.396 192.537C630.397 192.176 630.65 192.025 630.965 192.206Z" fill="white"/>
<path d="M629.425 192.441C629.649 192.311 629.648 191.893 629.424 191.508C629.2 191.122 628.838 190.915 628.614 191.045C628.391 191.174 628.392 191.592 628.616 191.978C628.84 192.363 629.202 192.57 629.425 192.441Z" fill="white"/>
<path d="M627.477 191.316C627.701 191.186 627.7 190.768 627.476 190.383C627.252 189.998 626.89 189.79 626.666 189.92C626.443 190.05 626.444 190.467 626.668 190.853C626.892 191.238 627.254 191.446 627.477 191.316Z" fill="white"/>
<path d="M595.7 166.319L595.44 166.17L595.408 174.278L595.406 174.377L635.954 197.787L636.214 197.937L636.247 189.828L636.248 189.729L595.7 166.319ZM635.867 197.338L595.757 174.18L595.787 166.769L635.898 189.927L635.867 197.338Z" fill="#4466FB"/>
<path d="M637.471 205.597L639.502 204.417L639.459 215.439L637.427 216.619L637.471 205.597Z" fill="#4466FB"/>
<path d="M594.227 180.63L596.258 179.45L639.502 204.417L637.471 205.597L594.227 180.63Z" fill="#B7C5FD"/>
<path d="M637.471 205.597L637.428 216.619L594.184 191.652L594.227 180.63L637.471 205.597Z" fill="#B7C5FD"/>
<path d="M637.471 205.597L637.428 216.619L594.184 191.652L594.227 180.63L637.471 205.597Z" fill="#6BB5FB"/>
<path d="M600.05 186.981L600.044 188.487L597.016 186.738L597.022 185.232L600.05 186.981Z" fill="#384E85"/>
<path d="M604.446 189.519L604.44 191.025L601.419 189.281L601.425 187.775L604.446 189.519Z" fill="#384E85"/>
<path d="M633.502 206.294L633.496 207.8L630.467 206.052L630.473 204.546L633.502 206.294Z" fill="#384E85"/>
<path d="M633.316 211.258C633.539 211.128 633.538 210.711 633.314 210.325C633.09 209.94 632.728 209.732 632.505 209.862C632.281 209.992 632.282 210.41 632.506 210.795C632.73 211.18 633.093 211.388 633.316 211.258Z" fill="white"/>
<path d="M630.965 208.778C631.285 208.962 631.537 209.405 631.535 209.766C631.534 210.127 631.281 210.278 630.961 210.094C630.647 209.912 630.395 209.469 630.396 209.108C630.397 208.747 630.65 208.596 630.965 208.778Z" fill="white"/>
<path d="M629.425 209.012C629.649 208.882 629.648 208.464 629.424 208.079C629.2 207.694 628.837 207.486 628.614 207.616C628.391 207.746 628.392 208.163 628.616 208.549C628.84 208.934 629.202 209.142 629.425 209.012Z" fill="white"/>
<path d="M627.477 207.887C627.701 207.757 627.7 207.34 627.476 206.954C627.252 206.569 626.89 206.362 626.666 206.491C626.443 206.621 626.444 207.039 626.668 207.424C626.892 207.81 627.254 208.017 627.477 207.887Z" fill="white"/>
<path d="M595.7 182.891L595.44 182.741L595.408 190.85L595.406 190.948L635.954 214.358L636.214 214.508L636.247 206.399L636.248 206.301L595.7 182.891ZM635.867 213.909L595.757 190.751L595.787 183.34L635.898 206.498L635.867 213.909Z" fill="#4466FB"/>
<path d="M637.471 222.169L639.502 220.988L639.459 232.01L637.427 233.191L637.471 222.169Z" fill="#4466FB"/>
<path d="M594.227 197.202L596.258 196.021L639.502 220.988L637.471 222.169L594.227 197.202Z" fill="#B7C5FD"/>
<path d="M637.471 222.169L637.428 233.191L594.184 208.224L594.227 197.202L637.471 222.169Z" fill="#B7C5FD"/>
<path d="M637.471 222.169L637.428 233.191L594.184 208.224L594.227 197.202L637.471 222.169Z" fill="#6BB5FB"/>
<path d="M600.05 203.552L600.044 205.058L597.016 203.31L597.022 201.804L600.05 203.552Z" fill="#384E85"/>
<path d="M604.446 206.09L604.44 207.596L601.419 205.852L601.425 204.346L604.446 206.09Z" fill="#384E85"/>
<path d="M633.502 222.866L633.496 224.371L630.467 222.623L630.473 221.117L633.502 222.866Z" fill="#384E85"/>
<path d="M633.316 227.829C633.539 227.699 633.538 227.282 633.314 226.896C633.09 226.511 632.728 226.304 632.505 226.433C632.281 226.563 632.282 226.981 632.506 227.366C632.73 227.752 633.092 227.959 633.316 227.829Z" fill="white"/>
<path d="M630.965 225.349C631.285 225.534 631.537 225.976 631.535 226.337C631.534 226.699 631.281 226.85 630.961 226.665C630.647 226.483 630.395 226.041 630.396 225.68C630.397 225.318 630.65 225.167 630.965 225.349Z" fill="white"/>
<path d="M629.425 225.583C629.649 225.453 629.648 225.036 629.424 224.65C629.2 224.265 628.837 224.058 628.614 224.187C628.391 224.317 628.392 224.735 628.616 225.12C628.84 225.506 629.202 225.713 629.425 225.583Z" fill="white"/>
<path d="M627.477 224.458C627.701 224.329 627.7 223.911 627.476 223.526C627.252 223.14 626.889 222.933 626.666 223.063C626.443 223.192 626.444 223.61 626.668 223.995C626.892 224.381 627.254 224.588 627.477 224.458Z" fill="white"/>
<path d="M595.7 199.462L595.44 199.312L595.408 207.421L595.406 207.52L635.954 230.93L636.214 231.08L636.247 222.971L636.248 222.872L595.7 199.462ZM635.867 230.48L595.757 207.322L595.787 199.912L635.898 223.07L635.867 230.48Z" fill="#4466FB"/>
<path d="M637.471 238.74L639.502 237.559L639.459 248.582L637.427 249.762L637.471 238.74Z" fill="#4466FB"/>
<path d="M594.227 213.773L596.258 212.593L639.502 237.559L637.471 238.74L594.227 213.773Z" fill="#B7C5FD"/>
<path d="M637.471 238.74L637.428 249.762L594.184 224.795L594.227 213.773L637.471 238.74Z" fill="#B7C5FD"/>
<path d="M637.471 238.74L637.428 249.762L594.184 224.795L594.227 213.773L637.471 238.74Z" fill="#6BB5FB"/>
<path d="M600.05 220.124L600.044 221.63L597.016 219.881L597.022 218.375L600.05 220.124Z" fill="#384E85"/>
<path d="M604.446 222.662L604.44 224.168L601.419 222.423L601.425 220.917L604.446 222.662Z" fill="#384E85"/>
<path d="M633.502 239.437L633.496 240.943L630.467 239.194L630.473 237.688L633.502 239.437Z" fill="#384E85"/>
<path d="M633.316 244.4C633.539 244.271 633.538 243.853 633.314 243.468C633.09 243.082 632.728 242.875 632.505 243.005C632.281 243.134 632.282 243.552 632.506 243.937C632.73 244.323 633.092 244.53 633.316 244.4Z" fill="white"/>
<path d="M630.965 241.92C631.285 242.105 631.537 242.548 631.535 242.909C631.534 243.27 631.281 243.421 630.961 243.236C630.647 243.055 630.395 242.612 630.396 242.251C630.397 241.89 630.65 241.739 630.965 241.92Z" fill="white"/>
<path d="M629.425 242.154C629.648 242.025 629.648 241.607 629.424 241.222C629.2 240.836 628.837 240.629 628.614 240.759C628.391 240.888 628.391 241.306 628.615 241.691C628.839 242.077 629.202 242.284 629.425 242.154Z" fill="white"/>
<path d="M627.477 241.03C627.701 240.9 627.7 240.482 627.476 240.097C627.252 239.711 626.889 239.504 626.666 239.634C626.443 239.764 626.444 240.181 626.668 240.567C626.892 240.952 627.254 241.159 627.477 241.03Z" fill="white"/>
<path d="M595.7 216.033L595.44 215.884L595.408 223.992L595.406 224.091L635.954 247.501L636.214 247.651L636.247 239.542L636.248 239.443L595.7 216.033ZM635.867 247.052L595.757 223.894L595.787 216.483L635.898 239.641L635.867 247.052Z" fill="#4466FB"/>
<path d="M634.882 251.443V258.291L634.85 264.632L632.028 262.983V256.674L632.06 249.794L634.882 251.443Z" fill="#1B2A4F"/>
<path d="M602.701 232.832L605.523 234.481L605.491 241.36V247.67L602.638 246.021L602.67 239.712L602.701 232.832Z" fill="#1B2A4F"/>
<path d="M609.898 237.017L611.389 237.873L611.357 244.721V251.062L609.867 250.206L608.503 249.414L608.535 243.104L608.567 236.224L609.898 237.017Z" fill="#1B2A4F"/>
<path d="M620.298 243.009L623.151 244.658L623.119 251.538V257.847L620.266 256.198V249.889L620.298 243.009Z" fill="#1B2A4F"/>
<path d="M627.495 247.163L629.017 248.05V254.899L628.985 261.24L627.463 260.352L626.163 259.591V253.282L626.195 246.402L627.495 247.163Z" fill="#1B2A4F"/>
<path d="M614.432 239.617L617.254 241.265V248.114L617.222 254.455L614.4 252.806V246.497L614.432 239.617Z" fill="#1B2A4F"/>
<path d="M596.804 229.471L599.658 231.088L599.626 237.968V244.277L596.772 242.661L596.804 236.32V229.471Z" fill="#1B2A4F"/>
<path d="M664.174 246.206C664.149 246.231 661.898 249.608 662.844 256.566C664.814 271.224 659.033 283.63 641.638 278.207L640.947 278.003L640.256 277.414C622.887 262.757 617.208 243.725 619.254 231.395C620.227 225.511 618.001 219.602 618.001 219.551L616.594 215.944L626.059 213.642L627.619 215.228C628.771 216.404 629.973 217.351 631.175 218.067C635.601 220.6 639.105 219.321 639.131 219.321L641.126 218.579L643.096 221.623C643.121 221.648 646.626 226.969 651.026 229.502C652.228 230.218 653.43 230.653 654.607 230.806L656.142 231.011L665.581 244.236L664.174 246.206Z" fill="#B7C5FD"/>
<path d="M669.657 241.856L660.226 228.63L658.676 228.427C657.532 228.282 656.315 227.833 655.098 227.138C650.709 224.589 647.217 219.286 647.188 219.258L645.204 216.201L643.219 216.954L643.176 216.969C642.741 217.099 639.395 218.07 635.266 215.679C634.049 214.984 632.847 214.028 631.688 212.854L630.138 211.261L620.678 213.579L616.624 215.937L626.059 213.642L627.619 215.228C628.77 216.404 629.972 217.351 631.175 218.067C635.6 220.6 639.105 219.321 639.13 219.321L641.126 218.579L643.095 221.623C643.121 221.648 646.625 226.969 651.025 229.502C652.228 230.218 653.43 230.653 654.607 230.806L656.142 231.011L665.581 244.236L664.174 246.206C664.148 246.231 661.897 249.608 662.844 256.566C664.072 265.71 662.283 273.975 656.541 277.585L660.284 275.421C666.296 271.916 668.179 263.514 666.919 254.184C665.992 247.231 668.237 243.855 668.252 243.826L669.657 241.856Z" fill="#D9DDF6"/>
<path d="M641.104 223.175C641.316 223.506 645.354 229.786 651.012 233.053C652.495 233.909 654.074 234.535 655.699 234.753L661.503 242.894C661.36 243.092 658.648 246.856 659.8 255.399C661.388 267.216 657.268 279.432 640.959 274.359C624.674 260.614 620.636 243.688 622.286 233.74C623.483 226.553 620.8 219.675 620.659 219.313L626.49 217.889C628.114 219.547 629.692 220.744 631.175 221.6C636.835 224.868 640.89 223.26 641.104 223.175Z" fill="#3955D1"/>
<path d="M646.534 247.848C647.781 248.568 648.783 250.292 648.779 251.725L648.749 262.45C648.745 263.86 647.736 264.435 646.489 263.715L634.42 256.747C633.173 256.027 632.171 254.29 632.175 252.881L632.205 242.156C632.209 240.723 633.218 240.16 634.465 240.88L646.534 247.848ZM641.229 253.513C641.874 253.549 642.318 253.077 642.321 252.221C642.324 251.043 641.502 249.63 640.486 249.044C639.47 248.458 638.643 248.917 638.64 250.096C638.637 250.951 639.078 251.935 639.72 252.642L639.712 255.774L641.22 256.645L641.229 253.513Z" fill="white"/>
<path d="M640.564 234.409C640.615 234.439 640.667 234.469 640.719 234.501C643.927 236.457 646.533 241.179 646.522 245.005L646.514 247.836L644.553 246.704L644.561 243.872C644.568 241.261 642.814 238.049 640.642 236.714C640.605 236.691 640.567 236.669 640.53 236.647C639.474 236.037 638.462 235.924 637.702 236.324C636.905 236.755 636.469 237.696 636.465 238.955L636.457 242.029L634.485 240.891L634.494 237.817C634.499 235.945 635.148 234.56 636.339 233.916C637.481 233.31 638.99 233.501 640.564 234.409Z" fill="white"/>
<path d="M592.277 140.649L639.717 113.08L688.899 141.475L641.459 169.045L592.277 140.649Z" fill="#384E85"/>
<path d="M673.805 139.273C675.516 140.261 675.524 141.863 673.824 142.851L643.785 160.308C642.084 161.296 639.319 161.297 637.608 160.308L607.373 142.852C605.661 141.864 605.652 140.262 607.352 139.273L637.391 121.817C639.092 120.828 641.858 120.828 643.569 121.817L673.805 139.273Z" fill="#1B2A4F"/>
<path d="M560.856 94.688C565.72 94.688 568.152 93.024 568.152 89.696C568.152 88.672 567.928 87.808 567.48 87.104C567.064 86.368 566.488 85.744 565.752 85.232C565.016 84.688 564.168 84.224 563.208 83.84C562.28 83.456 561.288 83.072 560.232 82.688C559.016 82.272 557.864 81.808 556.776 81.296C555.688 80.752 554.744 80.128 553.944 79.424C553.144 78.688 552.504 77.824 552.024 76.832C551.576 75.84 551.352 74.64 551.352 73.232C551.352 70.32 552.344 68.048 554.328 66.416C556.312 64.784 559.048 63.968 562.536 63.968C564.552 63.968 566.376 64.192 568.008 64.64C569.672 65.056 570.888 65.52 571.656 66.032L570.168 69.824C569.496 69.408 568.488 69.008 567.144 68.624C565.832 68.208 564.296 68 562.536 68C561.64 68 560.808 68.096 560.04 68.288C559.272 68.48 558.6 68.768 558.024 69.152C557.448 69.536 556.984 70.032 556.632 70.64C556.312 71.216 556.152 71.904 556.152 72.704C556.152 73.6 556.328 74.352 556.68 74.96C557.032 75.568 557.528 76.112 558.168 76.592C558.808 77.04 559.544 77.456 560.376 77.84C561.24 78.224 562.184 78.608 563.208 78.992C564.648 79.568 565.96 80.144 567.144 80.72C568.36 81.296 569.4 81.984 570.264 82.784C571.16 83.584 571.848 84.544 572.328 85.664C572.808 86.752 573.048 88.08 573.048 89.648C573.048 92.56 571.976 94.8 569.832 96.368C567.72 97.936 564.728 98.72 560.856 98.72C559.544 98.72 558.328 98.624 557.208 98.432C556.12 98.272 555.144 98.08 554.28 97.856C553.416 97.6 552.664 97.344 552.024 97.088C551.416 96.8 550.936 96.56 550.584 96.368L551.976 92.528C552.712 92.944 553.832 93.408 555.336 93.92C556.84 94.432 558.68 94.688 560.856 94.688ZM576.995 85.568C576.995 83.36 577.315 81.44 577.955 79.808C578.595 78.144 579.443 76.768 580.499 75.68C581.555 74.592 582.771 73.776 584.147 73.232C585.523 72.688 586.931 72.416 588.371 72.416C591.731 72.416 594.307 73.472 596.099 75.584C597.891 77.664 598.787 80.848 598.787 85.136C598.787 85.328 598.787 85.584 598.787 85.904C598.787 86.192 598.771 86.464 598.739 86.72H581.651C581.843 89.312 582.595 91.28 583.907 92.624C585.219 93.968 587.267 94.64 590.051 94.64C591.619 94.64 592.931 94.512 593.987 94.256C595.075 93.968 595.891 93.696 596.435 93.44L597.059 97.184C596.515 97.472 595.555 97.776 594.179 98.096C592.835 98.416 591.299 98.576 589.571 98.576C587.395 98.576 585.507 98.256 583.907 97.616C582.339 96.944 581.043 96.032 580.019 94.88C578.995 93.728 578.227 92.368 577.715 90.8C577.235 89.2 576.995 87.456 576.995 85.568ZM594.131 83.12C594.163 81.104 593.651 79.456 592.595 78.176C591.571 76.864 590.147 76.208 588.323 76.208C587.299 76.208 586.387 76.416 585.587 76.832C584.819 77.216 584.163 77.728 583.619 78.368C583.075 79.008 582.643 79.744 582.323 80.576C582.035 81.408 581.843 82.256 581.747 83.12H594.131ZM614.415 72.512C614.799 72.512 615.231 72.544 615.711 72.608C616.223 72.64 616.719 72.704 617.199 72.8C617.679 72.864 618.111 72.944 618.495 73.04C618.911 73.104 619.215 73.168 619.407 73.232L618.639 77.12C618.287 76.992 617.695 76.848 616.863 76.688C616.063 76.496 615.023 76.4 613.743 76.4C612.911 76.4 612.079 76.496 611.247 76.688C610.447 76.848 609.919 76.96 609.663 77.024V98H605.199V74.096C606.255 73.712 607.567 73.36 609.135 73.04C610.703 72.688 612.463 72.512 614.415 72.512ZM644.234 73.04C642.986 77.712 641.514 82.192 639.818 86.48C638.154 90.768 636.538 94.608 634.97 98H630.938C629.37 94.608 627.738 90.768 626.042 86.48C624.378 82.192 622.922 77.712 621.674 73.04H626.474C626.858 74.608 627.306 76.288 627.818 78.08C628.362 79.84 628.922 81.6 629.498 83.36C630.106 85.088 630.714 86.768 631.322 88.4C631.93 90.032 632.506 91.488 633.05 92.768C633.594 91.488 634.17 90.032 634.778 88.4C635.386 86.768 635.978 85.088 636.554 83.36C637.162 81.6 637.722 79.84 638.234 78.08C638.778 76.288 639.242 74.608 639.626 73.04H644.234ZM653.304 98H648.84V73.04H653.304V98ZM651.048 68.528C650.248 68.528 649.56 68.272 648.984 67.76C648.44 67.216 648.168 66.496 648.168 65.6C648.168 64.704 648.44 64 648.984 63.488C649.56 62.944 650.248 62.672 651.048 62.672C651.848 62.672 652.52 62.944 653.064 63.488C653.64 64 653.928 64.704 653.928 65.6C653.928 66.496 653.64 67.216 653.064 67.76C652.52 68.272 651.848 68.528 651.048 68.528ZM677.109 78.32C676.565 77.872 675.781 77.44 674.757 77.024C673.733 76.608 672.613 76.4 671.397 76.4C670.117 76.4 669.013 76.64 668.085 77.12C667.189 77.568 666.453 78.208 665.877 79.04C665.301 79.84 664.885 80.8 664.629 81.92C664.373 83.04 664.245 84.24 664.245 85.52C664.245 88.432 664.965 90.688 666.405 92.288C667.845 93.856 669.765 94.64 672.165 94.64C673.381 94.64 674.389 94.592 675.189 94.496C676.021 94.368 676.661 94.24 677.109 94.112V78.32ZM677.109 61.52L681.573 60.752V97.28C680.549 97.568 679.237 97.856 677.637 98.144C676.037 98.432 674.197 98.576 672.117 98.576C670.197 98.576 668.469 98.272 666.933 97.664C665.397 97.056 664.085 96.192 662.997 95.072C661.909 93.952 661.061 92.592 660.453 90.992C659.877 89.36 659.589 87.536 659.589 85.52C659.589 83.6 659.829 81.84 660.309 80.24C660.821 78.64 661.557 77.264 662.517 76.112C663.477 74.96 664.645 74.064 666.021 73.424C667.429 72.784 669.029 72.464 670.821 72.464C672.261 72.464 673.525 72.656 674.613 73.04C675.733 73.424 676.565 73.792 677.109 74.144V61.52ZM711.278 85.52C711.278 87.504 710.99 89.296 710.414 90.896C709.838 92.496 709.022 93.872 707.966 95.024C706.942 96.176 705.71 97.072 704.27 97.712C702.83 98.32 701.262 98.624 699.566 98.624C697.87 98.624 696.302 98.32 694.862 97.712C693.422 97.072 692.174 96.176 691.118 95.024C690.094 93.872 689.294 92.496 688.718 90.896C688.142 89.296 687.854 87.504 687.854 85.52C687.854 83.568 688.142 81.792 688.718 80.192C689.294 78.56 690.094 77.168 691.118 76.016C692.174 74.864 693.422 73.984 694.862 73.376C696.302 72.736 697.87 72.416 699.566 72.416C701.262 72.416 702.83 72.736 704.27 73.376C705.71 73.984 706.942 74.864 707.966 76.016C709.022 77.168 709.838 78.56 710.414 80.192C710.99 81.792 711.278 83.568 711.278 85.52ZM706.622 85.52C706.622 82.704 705.982 80.48 704.702 78.848C703.454 77.184 701.742 76.352 699.566 76.352C697.39 76.352 695.662 77.184 694.382 78.848C693.134 80.48 692.51 82.704 692.51 85.52C692.51 88.336 693.134 90.576 694.382 92.24C695.662 93.872 697.39 94.688 699.566 94.688C701.742 94.688 703.454 93.872 704.702 92.24C705.982 90.576 706.622 88.336 706.622 85.52ZM726.775 72.512C727.159 72.512 727.591 72.544 728.071 72.608C728.583 72.64 729.079 72.704 729.559 72.8C730.039 72.864 730.471 72.944 730.855 73.04C731.271 73.104 731.575 73.168 731.767 73.232L730.999 77.12C730.647 76.992 730.055 76.848 729.223 76.688C728.423 76.496 727.383 76.4 726.103 76.4C725.271 76.4 724.439 76.496 723.607 76.688C722.807 76.848 722.279 76.96 722.023 77.024V98H717.559V74.096C718.615 73.712 719.927 73.36 721.495 73.04C723.063 72.688 724.823 72.512 726.775 72.512Z" fill="black"/>
<path d="M69.432 98.72C67.096 98.72 64.968 98.336 63.048 97.568C61.128 96.8 59.48 95.68 58.104 94.208C56.728 92.736 55.656 90.928 54.888 88.784C54.152 86.608 53.784 84.128 53.784 81.344C53.784 78.56 54.2 76.096 55.032 73.952C55.896 71.776 57.048 69.952 58.488 68.48C59.928 67.008 61.608 65.888 63.528 65.12C65.448 64.352 67.496 63.968 69.672 63.968C71.048 63.968 72.28 64.064 73.368 64.256C74.488 64.448 75.448 64.672 76.248 64.928C77.08 65.184 77.752 65.44 78.264 65.696C78.776 65.952 79.128 66.144 79.32 66.272L77.976 70.112C77.688 69.92 77.272 69.712 76.728 69.488C76.184 69.264 75.56 69.04 74.856 68.816C74.184 68.592 73.432 68.416 72.6 68.288C71.8 68.128 70.984 68.048 70.152 68.048C68.392 68.048 66.808 68.352 65.4 68.96C63.992 69.568 62.792 70.448 61.8 71.6C60.808 72.752 60.04 74.16 59.496 75.824C58.984 77.456 58.728 79.296 58.728 81.344C58.728 83.328 58.952 85.136 59.4 86.768C59.88 88.4 60.584 89.808 61.512 90.992C62.44 92.144 63.592 93.04 64.968 93.68C66.376 94.32 68.008 94.64 69.864 94.64C72.008 94.64 73.784 94.416 75.192 93.968C76.6 93.52 77.656 93.12 78.36 92.768L79.56 96.608C79.336 96.768 78.936 96.976 78.36 97.232C77.784 97.456 77.064 97.68 76.2 97.904C75.336 98.128 74.328 98.32 73.176 98.48C72.024 98.64 70.776 98.72 69.432 98.72ZM92.0936 98.48C89.3416 98.416 87.3896 97.824 86.2376 96.704C85.0856 95.584 84.5096 93.84 84.5096 91.472V61.52L88.9736 60.752V90.752C88.9736 91.488 89.0376 92.096 89.1656 92.576C89.2936 93.056 89.5016 93.44 89.7896 93.728C90.0776 94.016 90.4616 94.24 90.9416 94.4C91.4216 94.528 92.0136 94.64 92.7176 94.736L92.0936 98.48ZM102.195 98H97.7306V73.04H102.195V98ZM99.9386 68.528C99.1386 68.528 98.4506 68.272 97.8746 67.76C97.3306 67.216 97.0586 66.496 97.0586 65.6C97.0586 64.704 97.3306 64 97.8746 63.488C98.4506 62.944 99.1386 62.672 99.9386 62.672C100.739 62.672 101.411 62.944 101.955 63.488C102.531 64 102.819 64.704 102.819 65.6C102.819 66.496 102.531 67.216 101.955 67.76C101.411 68.272 100.739 68.528 99.9386 68.528ZM108.479 85.568C108.479 83.36 108.799 81.44 109.439 79.808C110.079 78.144 110.927 76.768 111.983 75.68C113.039 74.592 114.255 73.776 115.631 73.232C117.007 72.688 118.415 72.416 119.855 72.416C123.215 72.416 125.791 73.472 127.583 75.584C129.375 77.664 130.271 80.848 130.271 85.136C130.271 85.328 130.271 85.584 130.271 85.904C130.271 86.192 130.255 86.464 130.223 86.72H113.135C113.327 89.312 114.079 91.28 115.391 92.624C116.703 93.968 118.751 94.64 121.535 94.64C123.103 94.64 124.415 94.512 125.471 94.256C126.559 93.968 127.375 93.696 127.919 93.44L128.543 97.184C127.999 97.472 127.039 97.776 125.663 98.096C124.319 98.416 122.783 98.576 121.055 98.576C118.879 98.576 116.991 98.256 115.391 97.616C113.823 96.944 112.527 96.032 111.503 94.88C110.479 93.728 109.711 92.368 109.199 90.8C108.719 89.2 108.479 87.456 108.479 85.568ZM125.615 83.12C125.647 81.104 125.135 79.456 124.079 78.176C123.055 76.864 121.631 76.208 119.807 76.208C118.783 76.208 117.871 76.416 117.071 76.832C116.303 77.216 115.647 77.728 115.103 78.368C114.559 79.008 114.127 79.744 113.807 80.576C113.519 81.408 113.327 82.256 113.231 83.12H125.615ZM136.684 73.76C137.708 73.504 139.068 73.232 140.764 72.944C142.46 72.656 144.412 72.512 146.62 72.512C148.604 72.512 150.252 72.8 151.564 73.376C152.876 73.92 153.916 74.704 154.684 75.728C155.484 76.72 156.044 77.92 156.364 79.328C156.684 80.736 156.844 82.288 156.844 83.984V98H152.38V84.944C152.38 83.408 152.268 82.096 152.044 81.008C151.852 79.92 151.516 79.04 151.036 78.368C150.556 77.696 149.916 77.216 149.116 76.928C148.316 76.608 147.324 76.448 146.14 76.448C145.66 76.448 145.164 76.464 144.652 76.496C144.14 76.528 143.644 76.576 143.164 76.64C142.716 76.672 142.3 76.72 141.916 76.784C141.564 76.848 141.308 76.896 141.148 76.928V98H136.684V73.76ZM168.422 73.04H177.878V76.784H168.422V88.304C168.422 89.552 168.518 90.592 168.71 91.424C168.902 92.224 169.19 92.864 169.574 93.344C169.958 93.792 170.438 94.112 171.014 94.304C171.59 94.496 172.262 94.592 173.03 94.592C174.374 94.592 175.446 94.448 176.246 94.16C177.078 93.84 177.654 93.616 177.974 93.488L178.838 97.184C178.39 97.408 177.606 97.68 176.486 98C175.366 98.352 174.086 98.528 172.646 98.528C170.95 98.528 169.542 98.32 168.422 97.904C167.334 97.456 166.454 96.8 165.782 95.936C165.11 95.072 164.63 94.016 164.342 92.768C164.086 91.488 163.958 90.016 163.958 88.352V66.08L168.422 65.312V73.04ZM181.698 85.568C181.698 83.36 182.018 81.44 182.658 79.808C183.298 78.144 184.146 76.768 185.202 75.68C186.258 74.592 187.474 73.776 188.85 73.232C190.226 72.688 191.634 72.416 193.074 72.416C196.434 72.416 199.01 73.472 200.802 75.584C202.594 77.664 203.49 80.848 203.49 85.136C203.49 85.328 203.49 85.584 203.49 85.904C203.49 86.192 203.474 86.464 203.442 86.72H186.354C186.546 89.312 187.298 91.28 188.61 92.624C189.922 93.968 191.97 94.64 194.754 94.64C196.322 94.64 197.634 94.512 198.69 94.256C199.778 93.968 200.594 93.696 201.138 93.44L201.762 97.184C201.218 97.472 200.258 97.776 198.882 98.096C197.538 98.416 196.002 98.576 194.274 98.576C192.098 98.576 190.21 98.256 188.61 97.616C187.042 96.944 185.746 96.032 184.722 94.88C183.698 93.728 182.93 92.368 182.418 90.8C181.938 89.2 181.698 87.456 181.698 85.568ZM198.834 83.12C198.866 81.104 198.354 79.456 197.298 78.176C196.274 76.864 194.85 76.208 193.026 76.208C192.002 76.208 191.09 76.416 190.29 76.832C189.522 77.216 188.866 77.728 188.322 78.368C187.778 79.008 187.346 79.744 187.026 80.576C186.738 81.408 186.546 82.256 186.45 83.12H198.834Z" fill="black"/>
<path d="M109.204 166.95C121.336 152.794 143.832 155.587 152.238 172.125C146.318 172.128 137.05 172.122 132.029 172.125C128.389 172.125 126.037 172.044 123.493 173.387C120.501 174.967 118.241 177.895 117.454 181.337L109.204 166.95Z" fill="#F84437"/>
<path d="M120.318 184.002C120.318 188.8 124.21 192.702 128.992 192.702C133.775 192.702 137.666 188.8 137.666 184.002C137.666 179.204 133.775 175.301 128.992 175.301C124.207 175.298 120.318 179.204 120.318 184.002Z" fill="#2299F8"/>
<path d="M132.356 195.392C127.488 196.84 121.79 195.234 118.671 189.83C116.29 185.709 109.994 174.715 107.136 169.714C97.1154 185.114 105.75 206.097 123.94 209.679L132.356 195.392Z" fill="#5ACF5F"/>
<path d="M137.047 175.298C141.102 179.079 141.985 185.202 139.239 189.948C137.171 193.527 130.564 204.704 127.365 210.114C146.106 211.272 159.767 192.856 153.596 175.294L137.047 175.298Z" fill="#FFC107"/>
<path d="M495.055 148.826C495.638 148.243 495.638 147.298 495.055 146.715L485.556 137.216C484.973 136.633 484.028 136.633 483.445 137.216C482.862 137.799 482.862 138.744 483.445 139.327L491.889 147.771L483.445 156.215C482.862 156.798 482.862 157.743 483.445 158.326C484.028 158.909 484.973 158.909 485.556 158.326L495.055 148.826ZM290 149.263H494V146.278H290V149.263Z" fill="#2C3E50"/>
<path d="M288.945 178.559C288.362 179.142 288.362 180.087 288.945 180.67L298.444 190.169C299.027 190.752 299.972 190.752 300.555 190.169C301.138 189.587 301.138 188.641 300.555 188.059L292.111 179.615L300.555 171.171C301.138 170.588 301.138 169.643 300.555 169.06C299.972 168.477 299.027 168.477 298.444 169.06L288.945 178.559ZM494 178.122L290 178.122V181.107L494 181.107V178.122Z" fill="#6BB5FB"/>
<path d="M339.962 124.674C340.342 125.149 340.817 125.778 341.387 126.561C341.98 127.321 342.585 128.175 343.203 129.125C343.82 130.051 344.425 131.024 345.019 132.045C345.636 133.065 346.158 134.05 346.585 135H342.811C342.336 134.098 341.814 133.184 341.244 132.258C340.698 131.332 340.14 130.454 339.571 129.623C339.001 128.769 338.431 127.973 337.862 127.238C337.316 126.502 336.817 125.861 336.366 125.315C336.057 125.339 335.737 125.35 335.405 125.35C335.096 125.35 334.776 125.35 334.443 125.35H331.345V135H327.892V110.68C328.865 110.443 329.945 110.289 331.132 110.217C332.342 110.122 333.446 110.075 334.443 110.075C337.909 110.075 340.544 110.728 342.348 112.033C344.176 113.339 345.09 115.285 345.09 117.873C345.09 119.511 344.651 120.911 343.772 122.075C342.918 123.238 341.648 124.104 339.962 124.674ZM334.728 113.102C333.256 113.102 332.129 113.137 331.345 113.208V122.502H333.802C334.989 122.502 336.057 122.443 337.007 122.324C337.957 122.205 338.752 121.98 339.393 121.647C340.057 121.315 340.568 120.852 340.924 120.259C341.28 119.641 341.458 118.834 341.458 117.837C341.458 116.912 341.28 116.14 340.924 115.523C340.568 114.906 340.081 114.419 339.464 114.063C338.87 113.707 338.158 113.458 337.327 113.315C336.52 113.173 335.654 113.102 334.728 113.102ZM349.039 125.778C349.039 124.14 349.276 122.715 349.751 121.505C350.226 120.27 350.855 119.25 351.638 118.443C352.422 117.636 353.324 117.03 354.344 116.627C355.365 116.223 356.41 116.021 357.478 116.021C359.97 116.021 361.881 116.805 363.211 118.371C364.54 119.914 365.205 122.276 365.205 125.457C365.205 125.6 365.205 125.79 365.205 126.027C365.205 126.241 365.193 126.442 365.169 126.632H352.493C352.635 128.555 353.193 130.015 354.166 131.012C355.14 132.009 356.659 132.507 358.724 132.507C359.887 132.507 360.861 132.413 361.644 132.223C362.451 132.009 363.056 131.807 363.46 131.617L363.923 134.395C363.519 134.608 362.807 134.834 361.786 135.071C360.789 135.309 359.65 135.427 358.368 135.427C356.754 135.427 355.353 135.19 354.166 134.715C353.003 134.217 352.042 133.54 351.282 132.686C350.523 131.831 349.953 130.822 349.573 129.659C349.217 128.472 349.039 127.178 349.039 125.778ZM361.751 123.962C361.774 122.466 361.395 121.244 360.611 120.294C359.852 119.321 358.795 118.834 357.442 118.834C356.683 118.834 356.006 118.989 355.413 119.297C354.843 119.582 354.356 119.962 353.953 120.437C353.549 120.911 353.229 121.457 352.991 122.075C352.778 122.692 352.635 123.321 352.564 123.962H361.751ZM372.383 125.778C372.383 126.727 372.478 127.617 372.668 128.448C372.858 129.255 373.166 129.968 373.593 130.585C374.021 131.178 374.567 131.653 375.231 132.009C375.92 132.341 376.739 132.507 377.688 132.507C378.59 132.507 379.421 132.353 380.181 132.045C380.94 131.736 381.522 131.416 381.926 131.083V119.404C381.593 119.309 381.142 119.226 380.572 119.155C380.026 119.084 379.255 119.048 378.258 119.048C376.478 119.048 375.053 119.63 373.985 120.793C372.917 121.956 372.383 123.618 372.383 125.778ZM368.929 125.778C368.929 124.282 369.143 122.941 369.57 121.754C370.021 120.543 370.65 119.523 371.457 118.692C372.264 117.861 373.237 117.22 374.377 116.769C375.516 116.318 376.798 116.093 378.222 116.093C379.765 116.093 381.118 116.211 382.282 116.449C383.469 116.662 384.454 116.864 385.237 117.054V141.587H381.926V134.181C381.522 134.442 380.905 134.715 380.074 135C379.267 135.285 378.329 135.427 377.261 135.427C375.932 135.427 374.745 135.19 373.7 134.715C372.68 134.24 371.813 133.576 371.101 132.721C370.389 131.867 369.843 130.846 369.463 129.659C369.107 128.472 368.929 127.178 368.929 125.778ZM405.671 134.466C404.911 134.656 403.902 134.858 402.644 135.071C401.41 135.285 399.974 135.392 398.336 135.392C396.911 135.392 395.713 135.19 394.739 134.786C393.766 134.359 392.983 133.766 392.389 133.006C391.796 132.246 391.369 131.356 391.107 130.335C390.846 129.291 390.716 128.14 390.716 126.882V116.484H394.027V126.169C394.027 128.425 394.383 130.039 395.096 131.012C395.808 131.985 397.006 132.472 398.692 132.472C399.048 132.472 399.416 132.46 399.796 132.436C400.175 132.413 400.532 132.389 400.864 132.365C401.196 132.318 401.493 132.282 401.754 132.258C402.039 132.211 402.241 132.163 402.359 132.116V116.484H405.671V134.466ZM410.343 125.778C410.343 124.14 410.581 122.715 411.055 121.505C411.53 120.27 412.159 119.25 412.943 118.443C413.726 117.636 414.628 117.03 415.649 116.627C416.669 116.223 417.714 116.021 418.782 116.021C421.275 116.021 423.186 116.805 424.515 118.371C425.844 119.914 426.509 122.276 426.509 125.457C426.509 125.6 426.509 125.79 426.509 126.027C426.509 126.241 426.497 126.442 426.473 126.632H413.797C413.94 128.555 414.497 130.015 415.471 131.012C416.444 132.009 417.963 132.507 420.028 132.507C421.192 132.507 422.165 132.413 422.948 132.223C423.755 132.009 424.361 131.807 424.764 131.617L425.227 134.395C424.823 134.608 424.111 134.834 423.091 135.071C422.094 135.309 420.954 135.427 419.672 135.427C418.058 135.427 416.658 135.19 415.471 134.715C414.307 134.217 413.346 133.54 412.586 132.686C411.827 131.831 411.257 130.822 410.877 129.659C410.521 128.472 410.343 127.178 410.343 125.778ZM423.055 123.962C423.079 122.466 422.699 121.244 421.916 120.294C421.156 119.321 420.1 118.834 418.747 118.834C417.987 118.834 417.31 118.989 416.717 119.297C416.147 119.582 415.661 119.962 415.257 120.437C414.853 120.911 414.533 121.457 414.296 122.075C414.082 122.692 413.94 123.321 413.868 123.962H423.055ZM435.574 132.614C436.927 132.614 437.924 132.436 438.565 132.08C439.23 131.724 439.562 131.154 439.562 130.371C439.562 129.564 439.242 128.923 438.601 128.448C437.96 127.973 436.904 127.439 435.432 126.846C434.72 126.561 434.031 126.276 433.367 125.991C432.726 125.683 432.168 125.327 431.693 124.923C431.218 124.52 430.839 124.033 430.554 123.463C430.269 122.894 430.126 122.193 430.126 121.362C430.126 119.724 430.732 118.431 431.942 117.481C433.153 116.508 434.803 116.021 436.892 116.021C437.414 116.021 437.936 116.057 438.458 116.128C438.981 116.176 439.467 116.247 439.918 116.342C440.369 116.413 440.761 116.496 441.093 116.591C441.449 116.686 441.722 116.769 441.912 116.84L441.307 119.689C440.951 119.499 440.393 119.309 439.634 119.119C438.874 118.906 437.96 118.799 436.892 118.799C435.966 118.799 435.159 118.989 434.47 119.368C433.782 119.724 433.438 120.294 433.438 121.078C433.438 121.481 433.509 121.837 433.652 122.146C433.818 122.454 434.055 122.739 434.364 123C434.696 123.238 435.1 123.463 435.574 123.677C436.049 123.891 436.619 124.116 437.283 124.353C438.162 124.686 438.945 125.018 439.634 125.35C440.322 125.659 440.904 126.027 441.378 126.454C441.877 126.882 442.257 127.404 442.518 128.021C442.779 128.614 442.909 129.35 442.909 130.229C442.909 131.938 442.268 133.232 440.987 134.11C439.728 134.988 437.924 135.427 435.574 135.427C433.936 135.427 432.655 135.285 431.729 135C430.803 134.739 430.174 134.537 429.842 134.395L430.447 131.546C430.827 131.689 431.432 131.902 432.263 132.187C433.094 132.472 434.197 132.614 435.574 132.614ZM450.255 116.484H457.269V119.262H450.255V127.807C450.255 128.733 450.326 129.505 450.468 130.122C450.611 130.715 450.825 131.19 451.109 131.546C451.394 131.878 451.75 132.116 452.178 132.258C452.605 132.401 453.103 132.472 453.673 132.472C454.67 132.472 455.465 132.365 456.059 132.151C456.676 131.914 457.103 131.748 457.341 131.653L457.982 134.395C457.649 134.561 457.068 134.763 456.237 135C455.406 135.261 454.456 135.392 453.388 135.392C452.13 135.392 451.086 135.237 450.255 134.929C449.448 134.596 448.795 134.11 448.296 133.469C447.798 132.828 447.442 132.045 447.228 131.119C447.038 130.169 446.943 129.077 446.943 127.843V111.321L450.255 110.751V116.484Z" fill="#2C3E50"/>
<path d="M328.449 217.22C328.829 217.695 329.304 218.324 329.873 219.107C330.467 219.867 331.072 220.722 331.689 221.671C332.307 222.597 332.912 223.57 333.505 224.591C334.122 225.612 334.645 226.597 335.072 227.546H331.298C330.823 226.644 330.301 225.73 329.731 224.805C329.185 223.879 328.627 223 328.057 222.17C327.488 221.315 326.918 220.52 326.348 219.784C325.802 219.048 325.304 218.407 324.853 217.861C324.544 217.885 324.224 217.897 323.891 217.897C323.583 217.897 323.262 217.897 322.93 217.897H319.832V227.546H316.378V203.227C317.351 202.989 318.432 202.835 319.618 202.764C320.829 202.669 321.933 202.621 322.93 202.621C326.396 202.621 329.031 203.274 330.835 204.58C332.663 205.885 333.577 207.832 333.577 210.419C333.577 212.057 333.137 213.458 332.259 214.621C331.404 215.784 330.134 216.651 328.449 217.22ZM323.215 205.648C321.743 205.648 320.615 205.683 319.832 205.755V215.048H322.289C323.476 215.048 324.544 214.989 325.494 214.87C326.443 214.751 327.238 214.526 327.879 214.194C328.544 213.861 329.054 213.398 329.41 212.805C329.767 212.188 329.945 211.381 329.945 210.384C329.945 209.458 329.767 208.686 329.41 208.069C329.054 207.452 328.568 206.965 327.951 206.609C327.357 206.253 326.645 206.004 325.814 205.862C325.007 205.719 324.141 205.648 323.215 205.648ZM337.526 218.324C337.526 216.686 337.763 215.262 338.238 214.051C338.712 212.817 339.342 211.796 340.125 210.989C340.908 210.182 341.81 209.577 342.831 209.173C343.852 208.769 344.896 208.568 345.965 208.568C348.457 208.568 350.368 209.351 351.697 210.918C353.027 212.461 353.691 214.823 353.691 218.004C353.691 218.146 353.691 218.336 353.691 218.573C353.691 218.787 353.679 218.989 353.656 219.179H340.979C341.122 221.101 341.68 222.561 342.653 223.558C343.626 224.555 345.146 225.054 347.211 225.054C348.374 225.054 349.347 224.959 350.131 224.769C350.938 224.555 351.543 224.354 351.947 224.164L352.409 226.941C352.006 227.155 351.294 227.38 350.273 227.618C349.276 227.855 348.137 227.974 346.855 227.974C345.24 227.974 343.84 227.736 342.653 227.261C341.49 226.763 340.528 226.086 339.769 225.232C339.009 224.377 338.439 223.368 338.06 222.205C337.704 221.018 337.526 219.725 337.526 218.324ZM350.237 216.508C350.261 215.013 349.881 213.79 349.098 212.841C348.338 211.867 347.282 211.381 345.929 211.381C345.169 211.381 344.493 211.535 343.899 211.844C343.33 212.128 342.843 212.508 342.439 212.983C342.036 213.458 341.715 214.004 341.478 214.621C341.264 215.238 341.122 215.867 341.051 216.508H350.237ZM362.757 225.161C364.11 225.161 365.107 224.983 365.748 224.627C366.412 224.27 366.745 223.701 366.745 222.917C366.745 222.11 366.424 221.469 365.783 220.995C365.142 220.52 364.086 219.986 362.614 219.392C361.902 219.107 361.214 218.823 360.549 218.538C359.908 218.229 359.35 217.873 358.875 217.469C358.401 217.066 358.021 216.579 357.736 216.01C357.451 215.44 357.309 214.74 357.309 213.909C357.309 212.271 357.914 210.977 359.125 210.028C360.335 209.054 361.985 208.568 364.074 208.568C364.596 208.568 365.119 208.603 365.641 208.674C366.163 208.722 366.65 208.793 367.101 208.888C367.552 208.959 367.943 209.042 368.276 209.137C368.632 209.232 368.905 209.315 369.095 209.387L368.489 212.235C368.133 212.045 367.576 211.855 366.816 211.665C366.056 211.452 365.142 211.345 364.074 211.345C363.148 211.345 362.341 211.535 361.653 211.915C360.964 212.271 360.62 212.841 360.62 213.624C360.62 214.027 360.691 214.384 360.834 214.692C361 215.001 361.237 215.286 361.546 215.547C361.878 215.784 362.282 216.01 362.757 216.223C363.231 216.437 363.801 216.662 364.466 216.9C365.344 217.232 366.127 217.564 366.816 217.897C367.504 218.205 368.086 218.573 368.561 219.001C369.059 219.428 369.439 219.95 369.7 220.567C369.961 221.161 370.092 221.897 370.092 222.775C370.092 224.484 369.451 225.778 368.169 226.656C366.911 227.534 365.107 227.974 362.757 227.974C361.119 227.974 359.837 227.831 358.911 227.546C357.985 227.285 357.356 227.083 357.024 226.941L357.629 224.092C358.009 224.235 358.614 224.449 359.445 224.733C360.276 225.018 361.38 225.161 362.757 225.161ZM387.194 218.324C387.194 216.164 386.659 214.502 385.591 213.339C384.523 212.176 383.099 211.594 381.318 211.594C380.321 211.594 379.538 211.63 378.968 211.701C378.422 211.772 377.983 211.855 377.651 211.95V223.63C378.054 223.962 378.636 224.282 379.396 224.591C380.155 224.9 380.986 225.054 381.888 225.054C382.838 225.054 383.645 224.888 384.309 224.555C384.998 224.199 385.556 223.724 385.983 223.131C386.41 222.514 386.719 221.802 386.909 220.995C387.099 220.164 387.194 219.274 387.194 218.324ZM390.647 218.324C390.647 219.725 390.458 221.018 390.078 222.205C389.722 223.392 389.188 224.413 388.475 225.267C387.763 226.122 386.885 226.787 385.84 227.261C384.82 227.736 383.645 227.974 382.315 227.974C381.247 227.974 380.298 227.831 379.467 227.546C378.66 227.261 378.054 226.988 377.651 226.727V234.134H374.339V209.6C375.123 209.41 376.096 209.209 377.259 208.995C378.446 208.758 379.811 208.639 381.354 208.639C382.778 208.639 384.06 208.864 385.2 209.315C386.339 209.766 387.312 210.407 388.119 211.238C388.926 212.069 389.544 213.09 389.971 214.3C390.422 215.487 390.647 216.829 390.647 218.324ZM411.651 218.288C411.651 219.76 411.437 221.09 411.01 222.276C410.583 223.463 409.977 224.484 409.194 225.339C408.434 226.193 407.521 226.858 406.452 227.333C405.384 227.784 404.221 228.009 402.963 228.009C401.705 228.009 400.542 227.784 399.473 227.333C398.405 226.858 397.479 226.193 396.696 225.339C395.936 224.484 395.343 223.463 394.916 222.276C394.488 221.09 394.275 219.76 394.275 218.288C394.275 216.84 394.488 215.523 394.916 214.336C395.343 213.125 395.936 212.093 396.696 211.238C397.479 210.384 398.405 209.731 399.473 209.28C400.542 208.805 401.705 208.568 402.963 208.568C404.221 208.568 405.384 208.805 406.452 209.28C407.521 209.731 408.434 210.384 409.194 211.238C409.977 212.093 410.583 213.125 411.01 214.336C411.437 215.523 411.651 216.84 411.651 218.288ZM408.197 218.288C408.197 216.199 407.722 214.55 406.773 213.339C405.847 212.105 404.577 211.487 402.963 211.487C401.349 211.487 400.067 212.105 399.117 213.339C398.191 214.55 397.729 216.199 397.729 218.288C397.729 220.377 398.191 222.039 399.117 223.273C400.067 224.484 401.349 225.089 402.963 225.089C404.577 225.089 405.847 224.484 406.773 223.273C407.722 222.039 408.197 220.377 408.197 218.288ZM416.31 209.565C417.07 209.375 418.079 209.173 419.337 208.959C420.595 208.746 422.043 208.639 423.681 208.639C425.152 208.639 426.375 208.853 427.348 209.28C428.322 209.683 429.093 210.265 429.663 211.025C430.256 211.76 430.672 212.651 430.909 213.695C431.146 214.74 431.265 215.891 431.265 217.149V227.546H427.954V217.861C427.954 216.722 427.871 215.748 427.704 214.941C427.562 214.134 427.313 213.481 426.957 212.983C426.601 212.484 426.126 212.128 425.532 211.915C424.939 211.677 424.203 211.559 423.325 211.559C422.969 211.559 422.601 211.571 422.221 211.594C421.841 211.618 421.473 211.654 421.117 211.701C420.785 211.725 420.476 211.76 420.191 211.808C419.93 211.855 419.74 211.891 419.621 211.915V227.546H416.31V209.565ZM441.065 225.161C442.418 225.161 443.415 224.983 444.056 224.627C444.721 224.27 445.053 223.701 445.053 222.917C445.053 222.11 444.732 221.469 444.091 220.995C443.451 220.52 442.394 219.986 440.922 219.392C440.21 219.107 439.522 218.823 438.857 218.538C438.216 218.229 437.658 217.873 437.184 217.469C436.709 217.066 436.329 216.579 436.044 216.01C435.759 215.44 435.617 214.74 435.617 213.909C435.617 212.271 436.222 210.977 437.433 210.028C438.644 209.054 440.293 208.568 442.382 208.568C442.905 208.568 443.427 208.603 443.949 208.674C444.471 208.722 444.958 208.793 445.409 208.888C445.86 208.959 446.252 209.042 446.584 209.137C446.94 209.232 447.213 209.315 447.403 209.387L446.798 212.235C446.442 212.045 445.884 211.855 445.124 211.665C444.364 211.452 443.451 211.345 442.382 211.345C441.457 211.345 440.649 211.535 439.961 211.915C439.273 212.271 438.928 212.841 438.928 213.624C438.928 214.027 439 214.384 439.142 214.692C439.308 215.001 439.546 215.286 439.854 215.547C440.187 215.784 440.59 216.01 441.065 216.223C441.54 216.437 442.109 216.662 442.774 216.9C443.652 217.232 444.436 217.564 445.124 217.897C445.812 218.205 446.394 218.573 446.869 219.001C447.367 219.428 447.747 219.95 448.008 220.567C448.269 221.161 448.4 221.897 448.4 222.775C448.4 224.484 447.759 225.778 446.477 226.656C445.219 227.534 443.415 227.974 441.065 227.974C439.427 227.974 438.145 227.831 437.219 227.546C436.293 227.285 435.664 227.083 435.332 226.941L435.937 224.092C436.317 224.235 436.923 224.449 437.753 224.733C438.584 225.018 439.688 225.161 441.065 225.161ZM451.615 218.324C451.615 216.686 451.852 215.262 452.327 214.051C452.802 212.817 453.431 211.796 454.214 210.989C454.998 210.182 455.9 209.577 456.92 209.173C457.941 208.769 458.986 208.568 460.054 208.568C462.546 208.568 464.457 209.351 465.787 210.918C467.116 212.461 467.781 214.823 467.781 218.004C467.781 218.146 467.781 218.336 467.781 218.573C467.781 218.787 467.769 218.989 467.745 219.179H455.069C455.211 221.101 455.769 222.561 456.742 223.558C457.716 224.555 459.235 225.054 461.3 225.054C462.463 225.054 463.437 224.959 464.22 224.769C465.027 224.555 465.632 224.354 466.036 224.164L466.499 226.941C466.095 227.155 465.383 227.38 464.362 227.618C463.365 227.855 462.226 227.974 460.944 227.974C459.33 227.974 457.929 227.736 456.742 227.261C455.579 226.763 454.618 226.086 453.858 225.232C453.099 224.377 452.529 223.368 452.149 222.205C451.793 221.018 451.615 219.725 451.615 218.324ZM464.327 216.508C464.35 215.013 463.971 213.79 463.187 212.841C462.428 211.867 461.371 211.381 460.018 211.381C459.259 211.381 458.582 211.535 457.989 211.844C457.419 212.128 456.932 212.508 456.529 212.983C456.125 213.458 455.805 214.004 455.567 214.621C455.354 215.238 455.211 215.867 455.14 216.508H464.327Z" fill="#6BB5FB"/>
</svg>
