<svg width="604" height="335" viewBox="0 0 604 335" fill="none" xmlns="http://www.w3.org/2000/svg">
<path d="M355.539 61.6448C359.556 61.6448 361.564 60.2707 361.564 57.5225C361.564 56.6769 361.379 55.9634 361.009 55.3821C360.665 54.7743 360.19 54.259 359.582 53.8362C358.974 53.387 358.274 53.0038 357.481 52.6867C356.715 52.3696 355.896 52.0525 355.024 51.7354C354.019 51.3919 353.068 51.0087 352.17 50.5859C351.271 50.1367 350.492 49.6214 349.831 49.04C349.17 48.4323 348.642 47.7188 348.246 46.8996C347.876 46.0804 347.691 45.0895 347.691 43.9268C347.691 41.5221 348.51 39.6459 350.148 38.2982C351.787 36.9506 354.046 36.2767 356.926 36.2767C358.591 36.2767 360.097 36.4617 361.445 36.8317C362.819 37.1752 363.823 37.5583 364.457 37.9811L363.229 41.1125C362.674 40.769 361.841 40.4387 360.731 40.1216C359.648 39.7781 358.38 39.6063 356.926 39.6063C356.186 39.6063 355.499 39.6856 354.865 39.8441C354.231 40.0027 353.676 40.2405 353.2 40.5576C352.725 40.8747 352.341 41.2843 352.051 41.7864C351.787 42.262 351.654 42.8302 351.654 43.4908C351.654 44.2307 351.8 44.8517 352.09 45.3537C352.381 45.8558 352.791 46.305 353.319 46.7014C353.848 47.0714 354.455 47.4149 355.143 47.732C355.856 48.0491 356.636 48.3662 357.481 48.6833C358.67 49.159 359.754 49.6346 360.731 50.1103C361.736 50.5859 362.594 51.1541 363.308 51.8147C364.048 52.4753 364.616 53.2681 365.012 54.1929C365.409 55.0914 365.607 56.188 365.607 57.4829C365.607 59.8876 364.722 61.7373 362.951 63.0321C361.207 64.327 358.736 64.9744 355.539 64.9744C354.455 64.9744 353.451 64.8951 352.526 64.7366C351.628 64.6044 350.822 64.4459 350.109 64.2609C349.395 64.0495 348.774 63.8381 348.246 63.6267C347.744 63.3889 347.347 63.1907 347.056 63.0321L348.206 59.8611C348.814 60.2047 349.739 60.5878 350.981 61.0106C352.223 61.4334 353.742 61.6448 355.539 61.6448ZM368.866 54.1137C368.866 52.2903 369.13 50.7048 369.659 49.3571C370.187 47.983 370.888 46.8468 371.76 45.9483C372.632 45.0499 373.636 44.376 374.772 43.9268C375.908 43.4776 377.071 43.253 378.26 43.253C381.035 43.253 383.162 44.125 384.642 45.869C386.122 47.5867 386.862 50.216 386.862 53.7569C386.862 53.9155 386.862 54.1269 386.862 54.3911C386.862 54.629 386.848 54.8536 386.822 55.065H372.711C372.87 57.2054 373.491 58.8305 374.574 59.9404C375.657 61.0503 377.349 61.6052 379.648 61.6052C380.942 61.6052 382.026 61.4995 382.898 61.2881C383.796 61.0503 384.47 60.8256 384.919 60.6142L385.435 63.706C384.985 63.9438 384.193 64.1948 383.056 64.4591C381.947 64.7233 380.678 64.8555 379.251 64.8555C377.454 64.8555 375.895 64.5912 374.574 64.0627C373.279 63.5078 372.209 62.7547 371.363 61.8034C370.518 60.8521 369.884 59.729 369.461 58.4342C369.064 57.1129 368.866 55.6727 368.866 54.1137ZM383.017 52.0921C383.043 50.4274 382.62 49.0665 381.748 48.0095C380.903 46.926 379.727 46.3843 378.221 46.3843C377.375 46.3843 376.622 46.5561 375.961 46.8996C375.327 47.2167 374.785 47.6395 374.336 48.168C373.887 48.6965 373.53 49.3043 373.266 49.9914C373.028 50.6784 372.87 51.3787 372.79 52.0921H383.017ZM399.767 43.3322C400.085 43.3322 400.441 43.3587 400.838 43.4115C401.26 43.4379 401.67 43.4908 402.066 43.5701C402.463 43.6229 402.82 43.689 403.137 43.7682C403.48 43.8211 403.731 43.8739 403.89 43.9268L403.256 47.1374C402.965 47.0317 402.476 46.9128 401.789 46.7807C401.128 46.6222 400.27 46.5429 399.213 46.5429C398.525 46.5429 397.838 46.6222 397.151 46.7807C396.491 46.9128 396.055 47.0053 395.843 47.0582V64.3798H392.157V44.6403C393.029 44.3232 394.112 44.0325 395.407 43.7682C396.702 43.4776 398.156 43.3322 399.767 43.3322ZM424.391 43.7682C423.361 47.6263 422.145 51.3258 420.745 54.8668C419.371 58.4077 418.036 61.5788 416.741 64.3798H413.412C412.117 61.5788 410.769 58.4077 409.369 54.8668C407.995 51.3258 406.792 47.6263 405.762 43.7682H409.725C410.043 45.0631 410.412 46.4504 410.835 47.9302C411.284 49.3836 411.747 50.837 412.223 52.2903C412.725 53.7173 413.227 55.1046 413.729 56.4523C414.231 57.8 414.707 59.0023 415.156 60.0593C415.605 59.0023 416.081 57.8 416.583 56.4523C417.085 55.1046 417.574 53.7173 418.049 52.2903C418.551 50.837 419.014 49.3836 419.437 47.9302C419.886 46.4504 420.269 45.0631 420.586 43.7682H424.391ZM431.881 64.3798H428.195V43.7682H431.881V64.3798ZM430.018 40.0423C429.357 40.0423 428.789 39.8309 428.314 39.4081C427.864 38.9589 427.64 38.3643 427.64 37.6244C427.64 36.8845 427.864 36.3032 428.314 35.8803C428.789 35.4311 429.357 35.2065 430.018 35.2065C430.678 35.2065 431.233 35.4311 431.683 35.8803C432.158 36.3032 432.396 36.8845 432.396 37.6244C432.396 38.3643 432.158 38.9589 431.683 39.4081C431.233 39.8309 430.678 40.0423 430.018 40.0423ZM451.539 48.1284C451.089 47.7584 450.442 47.4017 449.596 47.0582C448.751 46.7146 447.826 46.5429 446.822 46.5429C445.765 46.5429 444.853 46.7411 444.087 47.1374C443.347 47.5074 442.739 48.0359 442.263 48.7229C441.788 49.3836 441.444 50.1763 441.233 51.1012C441.021 52.0261 440.916 53.017 440.916 54.074C440.916 56.4787 441.51 58.3417 442.699 59.6629C443.888 60.9578 445.474 61.6052 447.456 61.6052C448.46 61.6052 449.292 61.5655 449.953 61.4863C450.64 61.3806 451.169 61.2749 451.539 61.1692V48.1284ZM451.539 34.2552L455.225 33.621V63.7853C454.379 64.0231 453.296 64.2609 451.975 64.4987C450.653 64.7366 449.134 64.8555 447.416 64.8555C445.831 64.8555 444.404 64.6044 443.135 64.1024C441.867 63.6003 440.783 62.8868 439.885 61.9619C438.987 61.037 438.286 59.914 437.784 58.5927C437.309 57.245 437.071 55.7388 437.071 54.074C437.071 52.4885 437.269 51.0351 437.665 49.7139C438.088 48.3926 438.696 47.2564 439.489 46.305C440.281 45.3537 441.246 44.6138 442.382 44.0853C443.545 43.5568 444.866 43.2926 446.346 43.2926C447.535 43.2926 448.579 43.4511 449.477 43.7682C450.402 44.0853 451.089 44.3892 451.539 44.6799V34.2552ZM479.756 54.074C479.756 55.7124 479.518 57.1922 479.042 58.5134C478.566 59.8347 477.893 60.971 477.021 61.9223C476.175 62.8736 475.158 63.6135 473.968 64.142C472.779 64.6441 471.484 64.8951 470.084 64.8951C468.683 64.8951 467.389 64.6441 466.199 64.142C465.01 63.6135 463.98 62.8736 463.108 61.9223C462.262 60.971 461.602 59.8347 461.126 58.5134C460.65 57.1922 460.412 55.7124 460.412 54.074C460.412 52.4621 460.65 50.9955 461.126 49.6742C461.602 48.3266 462.262 47.1771 463.108 46.2258C463.98 45.2745 465.01 44.5478 466.199 44.0457C467.389 43.5172 468.683 43.253 470.084 43.253C471.484 43.253 472.779 43.5172 473.968 44.0457C475.158 44.5478 476.175 45.2745 477.021 46.2258C477.893 47.1771 478.566 48.3266 479.042 49.6742C479.518 50.9955 479.756 52.4621 479.756 54.074ZM475.911 54.074C475.911 51.7486 475.382 49.9121 474.325 48.5644C473.295 47.1903 471.881 46.5032 470.084 46.5032C468.287 46.5032 466.86 47.1903 465.803 48.5644C464.773 49.9121 464.257 51.7486 464.257 54.074C464.257 56.3994 464.773 58.2492 465.803 59.6233C466.86 60.971 468.287 61.6448 470.084 61.6448C471.881 61.6448 473.295 60.971 474.325 59.6233C475.382 58.2492 475.911 56.3994 475.911 54.074ZM492.552 43.3322C492.869 43.3322 493.226 43.3587 493.622 43.4115C494.045 43.4379 494.455 43.4908 494.851 43.5701C495.247 43.6229 495.604 43.689 495.921 43.7682C496.265 43.8211 496.516 43.8739 496.674 43.9268L496.04 47.1374C495.749 47.0317 495.26 46.9128 494.573 46.7807C493.913 46.6222 493.054 46.5429 491.997 46.5429C491.31 46.5429 490.623 46.6222 489.936 46.7807C489.275 46.9128 488.839 47.0053 488.628 47.0582V64.3798H484.941V44.6403C485.814 44.3232 486.897 44.0325 488.192 43.7682C489.487 43.4776 490.94 43.3322 492.552 43.3322ZM532.197 50.6256C532.197 53.0038 531.827 55.0782 531.087 56.8487C530.347 58.5927 529.303 60.0461 527.956 61.2088C526.608 62.3451 524.996 63.2039 523.12 63.7853C521.244 64.3402 519.183 64.6176 516.936 64.6176C515.827 64.6176 514.598 64.5648 513.25 64.4591C511.929 64.3798 510.727 64.2081 509.643 63.9438V37.3073C510.727 37.0431 511.929 36.8713 513.25 36.792C514.598 36.6863 515.827 36.6335 516.936 36.6335C519.183 36.6335 521.244 36.9241 523.12 37.5055C524.996 38.0604 526.608 38.9192 527.956 40.0819C529.303 41.2182 530.347 42.6716 531.087 44.4421C531.827 46.1861 532.197 48.2473 532.197 50.6256ZM517.254 61.2484C520.9 61.2484 523.622 60.3236 525.419 58.4738C527.216 56.5976 528.114 53.9815 528.114 50.6256C528.114 47.2696 527.216 44.6667 525.419 42.8169C523.622 40.9408 520.9 40.0027 517.254 40.0027C516.17 40.0027 515.325 40.0159 514.717 40.0423C514.135 40.0687 513.726 40.0952 513.488 40.1216V61.1295C513.726 61.156 514.135 61.1824 514.717 61.2088C515.325 61.2352 516.17 61.2484 517.254 61.2484ZM556.729 64.3798C556.147 63.4021 555.473 62.3054 554.707 61.0899C553.967 59.8743 553.161 58.6191 552.289 57.3243C551.417 56.0031 550.505 54.6686 549.554 53.3209C548.629 51.9732 547.704 50.6784 546.78 49.4364C545.855 48.168 544.956 46.9789 544.084 45.869C543.212 44.7592 542.406 43.7815 541.666 42.9358V64.3798H537.901V36.9109H540.953C542.195 38.2322 543.516 39.7781 544.917 41.5485C546.343 43.2926 547.744 45.1027 549.118 46.9789C550.519 48.8286 551.827 50.652 553.042 52.4489C554.284 54.2458 555.328 55.8445 556.174 57.245V36.9109H559.939V64.3798H556.729ZM573.12 61.6448C577.137 61.6448 579.145 60.2707 579.145 57.5225C579.145 56.6769 578.96 55.9634 578.59 55.3821C578.247 54.7743 577.771 54.259 577.163 53.8362C576.556 53.387 575.855 53.0038 575.063 52.6867C574.296 52.3696 573.477 52.0525 572.605 51.7354C571.601 51.3919 570.65 51.0087 569.751 50.5859C568.853 50.1367 568.073 49.6214 567.413 49.04C566.752 48.4323 566.223 47.7188 565.827 46.8996C565.457 46.0804 565.272 45.0895 565.272 43.9268C565.272 41.5221 566.091 39.6459 567.73 38.2982C569.368 36.9506 571.627 36.2767 574.508 36.2767C576.172 36.2767 577.679 36.4617 579.026 36.8317C580.4 37.1752 581.405 37.5583 582.039 37.9811L580.81 41.1125C580.255 40.769 579.423 40.4387 578.313 40.1216C577.229 39.7781 575.961 39.6063 574.508 39.6063C573.768 39.6063 573.081 39.6856 572.447 39.8441C571.812 40.0027 571.257 40.2405 570.782 40.5576C570.306 40.8747 569.923 41.2843 569.632 41.7864C569.368 42.262 569.236 42.8302 569.236 43.4908C569.236 44.2307 569.381 44.8517 569.672 45.3537C569.963 45.8558 570.372 46.305 570.901 46.7014C571.429 47.0714 572.037 47.4149 572.724 47.732C573.437 48.0491 574.217 48.3662 575.063 48.6833C576.252 49.159 577.335 49.6346 578.313 50.1103C579.317 50.5859 580.176 51.1541 580.889 51.8147C581.629 52.4753 582.197 53.2681 582.594 54.1929C582.99 55.0914 583.188 56.188 583.188 57.4829C583.188 59.8876 582.303 61.7373 580.533 63.0321C578.789 64.327 576.318 64.9744 573.12 64.9744C572.037 64.9744 571.033 64.8951 570.108 64.7366C569.209 64.6044 568.403 64.4459 567.69 64.2609C566.977 64.0495 566.356 63.8381 565.827 63.6267C565.325 63.3889 564.929 63.1907 564.638 63.0321L565.787 59.8611C566.395 60.2047 567.32 60.5878 568.562 61.0106C569.804 61.4334 571.323 61.6448 573.12 61.6448Z" fill="black"/>
<path d="M423.893 116.091L423.623 232.825L419.698 235.114L416.695 218.621L419.972 116.908L423.893 116.091Z" fill="#2E4277"/>
<path d="M411 227.799L411.271 111.065C411.267 112.201 414.914 113.598 419.972 116.908L419.698 235.113C414.64 231.804 410.997 228.935 411 227.799Z" fill="#384E85"/>
<path d="M451.748 132.232L451.478 248.966L423.622 232.825L423.893 116.091L451.748 132.232Z" fill="#1B2A4F"/>
<path d="M451.748 139.426L451.718 143.009L423.863 126.868L423.893 123.284L451.748 139.426Z" fill="#3955D1"/>
<path d="M451.748 148.703L451.718 152.286L423.863 136.145L423.893 132.562L451.748 148.703Z" fill="#3955D1"/>
<path d="M451.748 157.98L451.718 161.563L423.863 145.422L423.893 141.839L451.748 157.98Z" fill="#3955D1"/>
<path d="M451.748 167.257L451.718 170.841L423.863 154.699L423.893 151.116L451.748 167.257Z" fill="#3955D1"/>
<path d="M451.748 176.535L451.718 180.118L423.863 163.977L423.893 160.394L451.748 176.535Z" fill="#3955D1"/>
<path d="M444.611 181.897L444.592 184.15L428.571 174.866L428.59 172.614L444.611 181.897Z" fill="#2E4277"/>
<path d="M444.611 187.198L444.592 189.45L428.571 180.166L428.59 177.914L444.611 187.198Z" fill="#2E4277"/>
<path d="M444.611 197.799L444.592 200.051L428.571 190.767L428.59 188.515L444.611 197.799Z" fill="#2E4277"/>
<path d="M444.611 192.498L444.592 194.751L428.571 185.467L428.59 183.215L444.611 192.498Z" fill="#2E4277"/>
<path d="M444.611 208.4L444.592 210.652L428.571 201.368L428.59 199.116L444.611 208.4Z" fill="#2E4277"/>
<path d="M444.611 203.099L444.592 205.352L428.571 196.068L428.59 193.816L444.611 203.099Z" fill="#2E4277"/>
<path d="M444.611 213.7L444.592 215.952L428.571 206.669L428.59 204.417L444.611 213.7Z" fill="#2E4277"/>
<path d="M521.765 104.023L521.494 220.757L460.802 256.157L459.907 138.43L521.765 104.023Z" fill="#2E4277"/>
<path d="M461.076 137.951L460.802 256.157C459.582 256.868 454.063 254.595 447.58 251.239L447.851 134.505C454.334 137.861 459.856 138.663 461.076 137.951Z" fill="#384E85"/>
<path d="M423.893 123.284L423.862 126.868L419.938 129.156L419.969 125.573L423.893 123.284Z" fill="#4466FB"/>
<path d="M423.893 132.562L423.862 136.145L419.938 138.434L419.969 134.851L423.893 132.562Z" fill="#4466FB"/>
<path d="M423.893 141.839L423.862 145.422L419.938 147.711L419.969 144.128L423.893 141.839Z" fill="#4466FB"/>
<path d="M423.893 151.116L423.862 154.699L419.938 156.988L419.969 153.405L423.893 151.116Z" fill="#4466FB"/>
<path d="M423.893 160.394L423.862 163.977L419.938 166.266L419.969 162.682L423.893 160.394Z" fill="#4466FB"/>
<path d="M411.24 121.842L411.27 118.259C411.267 119.395 414.911 122.264 419.969 125.573L419.938 129.156C414.88 125.847 411.237 122.978 411.24 121.842Z" fill="#6BB5FB"/>
<path d="M411.24 131.119L411.27 127.536C411.267 128.672 414.911 131.541 419.969 134.85L419.938 138.434C414.88 135.124 411.237 132.255 411.24 131.119Z" fill="#6BB5FB"/>
<path d="M411.24 140.397L411.27 136.814C411.267 137.949 414.911 140.818 419.969 144.128L419.938 147.711C414.88 144.402 411.237 141.532 411.24 140.397Z" fill="#6BB5FB"/>
<path d="M411.24 149.674L411.27 146.091C411.267 147.226 414.911 150.096 419.969 153.405L419.938 156.988C414.88 153.679 411.237 150.81 411.24 149.674Z" fill="#6BB5FB"/>
<path d="M411.24 158.951L411.27 155.368C411.267 156.504 414.911 159.373 419.969 162.682L419.938 166.266C414.88 162.956 411.237 160.087 411.24 158.951Z" fill="#6BB5FB"/>
<path d="M461.073 146.617L461.042 150.068C459.823 150.779 454.303 148.638 447.82 145.282L447.851 141.699C454.334 145.055 459.853 147.328 461.073 146.617Z" fill="#6BB5FB"/>
<path d="M461.073 155.894L461.042 159.345C459.823 160.056 454.303 157.915 447.82 154.559L447.851 150.976C454.334 154.332 459.853 156.605 461.073 155.894Z" fill="#6BB5FB"/>
<path d="M461.073 165.171L461.042 168.622C459.823 169.334 454.303 167.193 447.82 163.837L447.851 160.254C454.334 163.609 459.853 165.883 461.073 165.171Z" fill="#6BB5FB"/>
<path d="M461.073 174.449L461.042 177.9C459.823 178.611 454.303 176.47 447.82 173.114L447.851 169.531C454.334 172.887 459.853 175.16 461.073 174.449Z" fill="#6BB5FB"/>
<path d="M461.073 183.726L461.042 187.177C459.823 187.888 454.303 185.747 447.82 182.391L447.851 178.808C454.334 182.164 459.853 184.437 461.073 183.726Z" fill="#6BB5FB"/>
<path d="M517.38 216.601L515.795 217.513L515.747 205.97L517.333 205.058L517.38 216.601Z" fill="#1B2A4F"/>
<path d="M514.386 218.328L512.787 219.248L512.74 207.706L514.339 206.785L514.386 218.328Z" fill="#1B2A4F"/>
<path d="M511.379 220.06L509.793 220.973L509.746 209.43L511.331 208.518L511.379 220.06Z" fill="#1B2A4F"/>
<path d="M508.385 221.786L506.8 222.699L506.752 211.156L508.338 210.244L508.385 221.786Z" fill="#1B2A4F"/>
<path d="M505.391 223.512L503.792 224.433L503.745 212.89L505.344 211.97L505.391 223.512Z" fill="#1B2A4F"/>
<path d="M489.329 232.742L487.744 233.654L487.696 222.112L489.282 221.199L489.329 232.742Z" fill="#1B2A4F"/>
<path d="M486.336 234.469L484.736 235.389L484.689 223.847L486.288 222.926L486.336 234.469Z" fill="#1B2A4F"/>
<path d="M483.328 236.202L481.743 237.114L481.695 225.571L483.281 224.659L483.328 236.202Z" fill="#1B2A4F"/>
<path d="M480.334 237.928L478.749 238.84L478.701 227.297L480.287 226.385L480.334 237.928Z" fill="#1B2A4F"/>
<path d="M477.341 239.654L475.741 240.574L475.694 229.031L477.293 228.111L477.341 239.654Z" fill="#1B2A4F"/>
<path d="M517.38 195.274L515.795 196.186L515.747 184.643L517.333 183.731L517.38 195.274Z" fill="#1B2A4F"/>
<path d="M514.386 197.001L512.787 197.921L512.74 186.378L514.339 185.458L514.386 197.001Z" fill="#1B2A4F"/>
<path d="M511.379 198.734L509.793 199.646L509.746 188.103L511.331 187.191L511.379 198.734Z" fill="#1B2A4F"/>
<path d="M508.385 200.459L506.8 201.372L506.752 189.829L508.338 188.917L508.385 200.459Z" fill="#1B2A4F"/>
<path d="M505.391 202.186L503.792 203.106L503.745 191.563L505.344 190.643L505.391 202.186Z" fill="#1B2A4F"/>
<path d="M489.329 211.415L487.744 212.327L487.696 200.785L489.282 199.872L489.329 211.415Z" fill="#1B2A4F"/>
<path d="M486.335 213.142L484.736 214.062L484.689 202.52L486.288 201.599L486.335 213.142Z" fill="#1B2A4F"/>
<path d="M483.328 214.875L481.743 215.787L481.695 204.244L483.281 203.332L483.328 214.875Z" fill="#1B2A4F"/>
<path d="M480.334 216.601L478.749 217.513L478.701 205.97L480.287 205.058L480.334 216.601Z" fill="#1B2A4F"/>
<path d="M477.341 218.327L475.741 219.247L475.694 207.704L477.293 206.784L477.341 218.327Z" fill="#1B2A4F"/>
<path d="M521.765 104.023L461.073 139.423C459.853 140.134 454.334 137.861 447.851 134.505L451.748 132.232L423.893 116.091L419.969 118.379C414.202 114.606 410.274 111.405 411.493 110.693L472.185 75.2936L521.765 104.023Z" fill="#384E85"/>
<path d="M88.5188 256.01C88.5823 257.128 88.6735 258.174 88.6735 259.319C88.6735 271.648 84.9753 282.513 79.2308 289.098H99.0459H108.954H128.769C123.023 282.513 119.328 271.648 119.328 259.319C119.328 258.174 119.417 257.128 119.481 256.01H108.954H99.0459H88.5188Z" fill="#95A5A6"/>
<path d="M88.4669 256.01C88.5306 256.651 88.6221 257.931 88.6221 259.213C88.6221 262.414 88.3925 265.616 87.8463 268.818H120.154C119.608 265.616 119.379 262.414 119.379 259.213C119.379 257.931 119.469 256.651 119.533 256.01H108.971H99.0293H88.4669Z" fill="#7F8C8D"/>
<path d="M27 152C23.134 152 20 154.602 20 158.504V165.006V178.013V191.02V204.026V210.529V217.033V223.535V236.543V249.549V256.052C20 259.304 23.134 262.555 27 262.555H34H125H167H174H181C184.864 262.555 188 259.304 188 256.052V249.549V204.026V197.523V191.02V178.013V165.006V158.504C188 154.602 184.864 152 181 152H174H139H132H69.0004H41H34H27Z" fill="#BDC3C7"/>
<path d="M181.189 158.317H26.8109V249.92H181.189V158.317Z" fill="#34495E"/>
<path d="M181.189 165.688L33.6216 249.92H171.225H181.189V239.553V165.688Z" fill="#2C3E50"/>
<path d="M86 181.533C96.9947 168.282 117.382 170.896 125 186.377C119.635 186.38 111.236 186.374 106.685 186.377C103.387 186.377 101.255 186.301 98.9495 187.558C96.238 189.037 94.1899 191.778 93.4766 195L86 181.533Z" fill="#F84437"/>
<path d="M97 197C97 201.412 100.365 205 104.5 205C108.636 205 112 201.412 112 197C112 192.589 108.636 189 104.5 189C100.363 188.997 97 192.589 97 197Z" fill="#2299F8"/>
<path d="M107 207.415C102.537 208.792 97.3141 207.265 94.4548 202.127C92.2722 198.209 86.5006 187.755 83.8806 183C74.6946 197.643 82.6101 217.594 99.285 221L107 207.415Z" fill="#5ACF5F"/>
<path d="M111.728 189.004C115.384 192.473 116.18 198.092 113.704 202.447C111.84 205.731 105.884 215.988 103 220.952C119.895 222.015 132.21 205.116 126.647 189L111.728 189.004Z" fill="#FFC107"/>
<path d="M56.4356 233.541C56.2312 234.323 56.0091 235.087 55.7692 235.834C55.5382 236.571 55.3072 237.269 55.0762 237.926H53.7568C53.5791 237.517 53.3925 237.051 53.197 236.527C53.0016 236.002 52.8061 235.443 52.6106 234.847C52.4151 234.252 52.2197 233.626 52.0242 232.968C51.8287 232.311 51.6377 231.64 51.4511 230.956H53.157C53.237 231.329 53.3303 231.733 53.4369 232.169C53.5435 232.595 53.6546 233.035 53.7701 233.488C53.8856 233.932 54.0056 234.368 54.1299 234.794C54.2543 235.221 54.3787 235.612 54.5031 235.967C54.6364 235.558 54.7652 235.136 54.8896 234.701C55.0229 234.265 55.1473 233.83 55.2628 233.395C55.3783 232.959 55.4849 232.537 55.5826 232.129C55.6893 231.711 55.7825 231.32 55.8625 230.956H57.102C57.1819 231.32 57.2708 231.711 57.3685 232.129C57.4662 232.537 57.5684 232.959 57.675 233.395C57.7905 233.83 57.9105 234.265 58.0349 234.701C58.1682 235.136 58.3014 235.558 58.4347 235.967C58.5502 235.612 58.6702 235.221 58.7945 234.794C58.9189 234.368 59.0389 233.932 59.1544 233.488C59.2788 233.035 59.3943 232.595 59.5009 232.169C59.6075 231.733 59.7008 231.329 59.7808 230.956H61.4467C61.2601 231.64 61.0691 232.311 60.8736 232.968C60.6782 233.626 60.4827 234.252 60.2872 234.847C60.0918 235.443 59.8963 236.002 59.7008 236.527C59.5053 237.051 59.3143 237.517 59.1277 237.926H57.8216C57.5906 237.269 57.3507 236.571 57.102 235.834C56.8621 235.087 56.6399 234.323 56.4356 233.541ZM67.0299 233.541C66.8255 234.323 66.6034 235.087 66.3635 235.834C66.1325 236.571 65.9015 237.269 65.6705 237.926H64.3511C64.1734 237.517 63.9868 237.051 63.7913 236.527C63.5958 236.002 63.4004 235.443 63.2049 234.847C63.0094 234.252 62.814 233.626 62.6185 232.968C62.423 232.311 62.232 231.64 62.0454 230.956H63.7513C63.8313 231.329 63.9246 231.733 64.0312 232.169C64.1378 232.595 64.2489 233.035 64.3644 233.488C64.4799 233.932 64.5998 234.368 64.7242 234.794C64.8486 235.221 64.973 235.612 65.0974 235.967C65.2307 235.558 65.3595 235.136 65.4839 234.701C65.6172 234.265 65.7416 233.83 65.8571 233.395C65.9726 232.959 66.0792 232.537 66.1769 232.129C66.2835 231.711 66.3768 231.32 66.4568 230.956H67.6962C67.7762 231.32 67.8651 231.711 67.9628 232.129C68.0605 232.537 68.1627 232.959 68.2693 233.395C68.3848 233.83 68.5048 234.265 68.6292 234.701C68.7624 235.136 68.8957 235.558 69.029 235.967C69.1445 235.612 69.2644 235.221 69.3888 234.794C69.5132 234.368 69.6332 233.932 69.7487 233.488C69.8731 233.035 69.9886 232.595 70.0952 232.169C70.2018 231.733 70.2951 231.329 70.3751 230.956H72.041C71.8544 231.64 71.6634 232.311 71.4679 232.968C71.2724 233.626 71.077 234.252 70.8815 234.847C70.686 235.443 70.4906 236.002 70.2951 236.527C70.0996 237.051 69.9086 237.517 69.722 237.926H68.4159C68.1849 237.269 67.945 236.571 67.6962 235.834C67.4563 235.087 67.2342 234.323 67.0299 233.541ZM77.6242 233.541C77.4198 234.323 77.1977 235.087 76.9578 235.834C76.7268 236.571 76.4958 237.269 76.2648 237.926H74.9453C74.7676 237.517 74.5811 237.051 74.3856 236.527C74.1901 236.002 73.9946 235.443 73.7992 234.847C73.6037 234.252 73.4082 233.626 73.2128 232.968C73.0173 232.311 72.8263 231.64 72.6397 230.956H74.3456C74.4256 231.329 74.5189 231.733 74.6255 232.169C74.7321 232.595 74.8432 233.035 74.9587 233.488C75.0742 233.932 75.1941 234.368 75.3185 234.794C75.4429 235.221 75.5673 235.612 75.6917 235.967C75.8249 235.558 75.9538 235.136 76.0782 234.701C76.2114 234.265 76.3358 233.83 76.4513 233.395C76.5668 232.959 76.6735 232.537 76.7712 232.129C76.8778 231.711 76.9711 231.32 77.0511 230.956H78.2905C78.3705 231.32 78.4593 231.711 78.5571 232.129C78.6548 232.537 78.757 232.959 78.8636 233.395C78.9791 233.83 79.0991 234.265 79.2234 234.701C79.3567 235.136 79.49 235.558 79.6233 235.967C79.7388 235.612 79.8587 235.221 79.9831 234.794C80.1075 234.368 80.2274 233.932 80.343 233.488C80.4673 233.035 80.5828 232.595 80.6895 232.169C80.7961 231.733 80.8894 231.329 80.9693 230.956H82.6353C82.4487 231.64 82.2577 232.311 82.0622 232.968C81.8667 233.626 81.6713 234.252 81.4758 234.847C81.2803 235.443 81.0848 236.002 80.8894 236.527C80.6939 237.051 80.5029 237.517 80.3163 237.926H79.0102C78.7792 237.269 78.5393 236.571 78.2905 235.834C78.0506 235.087 77.8285 234.323 77.6242 233.541ZM85.3001 237.046C85.3001 237.357 85.1935 237.611 84.9803 237.806C84.7759 238.002 84.5271 238.099 84.2339 238.099C83.9319 238.099 83.6786 238.002 83.4743 237.806C83.2699 237.611 83.1677 237.357 83.1677 237.046C83.1677 236.735 83.2699 236.482 83.4743 236.287C83.6786 236.082 83.9319 235.98 84.2339 235.98C84.5271 235.98 84.7759 236.082 84.9803 236.287C85.1935 236.482 85.3001 236.735 85.3001 237.046ZM88.2938 234.261C88.2938 234.945 88.4404 235.447 88.7336 235.767C89.0357 236.078 89.4222 236.233 89.8931 236.233C90.1508 236.233 90.3907 236.198 90.6128 236.127C90.8438 236.056 91.0304 235.971 91.1725 235.874V232.262C91.057 232.235 90.9149 232.213 90.7461 232.195C90.5773 232.169 90.364 232.155 90.1063 232.155C89.5199 232.155 89.0713 232.351 88.7603 232.742C88.4493 233.124 88.2938 233.63 88.2938 234.261ZM92.7852 237.22C92.7852 238.33 92.5008 239.143 91.9322 239.659C91.3725 240.174 90.5106 240.432 89.3467 240.432C88.9202 240.432 88.5026 240.396 88.0939 240.325C87.6941 240.254 87.3298 240.161 87.0011 240.045L87.2943 238.672C87.5697 238.788 87.8807 238.881 88.2272 238.952C88.5826 239.023 88.9646 239.059 89.3733 239.059C90.0219 239.059 90.484 238.926 90.7594 238.659C91.0348 238.393 91.1725 237.997 91.1725 237.473V237.206C91.0126 237.286 90.7994 237.366 90.5328 237.446C90.2752 237.526 89.9775 237.566 89.6399 237.566C89.1956 237.566 88.7869 237.495 88.4138 237.353C88.0495 237.211 87.7341 237.002 87.4675 236.727C87.2099 236.451 87.0055 236.109 86.8545 235.7C86.7123 235.283 86.6412 234.803 86.6412 234.261C86.6412 233.755 86.7167 233.288 86.8678 232.862C87.0277 232.435 87.2543 232.071 87.5475 231.769C87.8496 231.467 88.2139 231.231 88.6403 231.062C89.0668 230.894 89.551 230.809 90.093 230.809C90.6172 230.809 91.1148 230.849 91.5857 230.929C92.0566 231.009 92.4564 231.094 92.7852 231.182V237.22ZM101.141 234.434C101.141 234.985 101.061 235.487 100.901 235.94C100.741 236.393 100.514 236.78 100.221 237.1C99.9278 237.42 99.5724 237.668 99.1549 237.846C98.7461 238.024 98.293 238.113 97.7955 238.113C97.2979 238.113 96.8448 238.024 96.4361 237.846C96.0273 237.668 95.6764 237.42 95.3832 237.1C95.09 236.78 94.859 236.393 94.6902 235.94C94.5302 235.487 94.4503 234.985 94.4503 234.434C94.4503 233.883 94.5302 233.386 94.6902 232.942C94.859 232.488 95.09 232.102 95.3832 231.782C95.6853 231.462 96.0407 231.218 96.4494 231.049C96.8581 230.871 97.3068 230.783 97.7955 230.783C98.2841 230.783 98.7328 230.871 99.1415 231.049C99.5591 231.218 99.9145 231.462 100.208 231.782C100.501 232.102 100.727 232.488 100.887 232.942C101.056 233.386 101.141 233.883 101.141 234.434ZM99.488 234.434C99.488 233.741 99.337 233.195 99.0349 232.795C98.7417 232.386 98.3286 232.182 97.7955 232.182C97.2624 232.182 96.8448 232.386 96.5427 232.795C96.2495 233.195 96.1029 233.741 96.1029 234.434C96.1029 235.136 96.2495 235.691 96.5427 236.1C96.8448 236.509 97.2624 236.713 97.7955 236.713C98.3286 236.713 98.7417 236.509 99.0349 236.1C99.337 235.691 99.488 235.136 99.488 234.434ZM109.106 234.434C109.106 234.985 109.026 235.487 108.866 235.94C108.706 236.393 108.479 236.78 108.186 237.1C107.893 237.42 107.538 237.668 107.12 237.846C106.711 238.024 106.258 238.113 105.761 238.113C105.263 238.113 104.81 238.024 104.401 237.846C103.993 237.668 103.642 237.42 103.348 237.1C103.055 236.78 102.824 236.393 102.655 235.94C102.495 235.487 102.415 234.985 102.415 234.434C102.415 233.883 102.495 233.386 102.655 232.942C102.824 232.488 103.055 232.102 103.348 231.782C103.651 231.462 104.006 231.218 104.415 231.049C104.823 230.871 105.272 230.783 105.761 230.783C106.249 230.783 106.698 230.871 107.107 231.049C107.524 231.218 107.88 231.462 108.173 231.782C108.466 232.102 108.693 232.488 108.853 232.942C109.021 233.386 109.106 233.883 109.106 234.434ZM107.453 234.434C107.453 233.741 107.302 233.195 107 232.795C106.707 232.386 106.294 232.182 105.761 232.182C105.228 232.182 104.81 232.386 104.508 232.795C104.215 233.195 104.068 233.741 104.068 234.434C104.068 235.136 104.215 235.691 104.508 236.1C104.81 236.509 105.228 236.713 105.761 236.713C106.294 236.713 106.707 236.509 107 236.1C107.302 235.691 107.453 235.136 107.453 234.434ZM112.033 234.261C112.033 234.945 112.18 235.447 112.473 235.767C112.775 236.078 113.162 236.233 113.633 236.233C113.89 236.233 114.13 236.198 114.352 236.127C114.583 236.056 114.77 235.971 114.912 235.874V232.262C114.797 232.235 114.654 232.213 114.486 232.195C114.317 232.169 114.104 232.155 113.846 232.155C113.259 232.155 112.811 232.351 112.5 232.742C112.189 233.124 112.033 233.63 112.033 234.261ZM116.525 237.22C116.525 238.33 116.24 239.143 115.672 239.659C115.112 240.174 114.25 240.432 113.086 240.432C112.66 240.432 112.242 240.396 111.833 240.325C111.434 240.254 111.069 240.161 110.741 240.045L111.034 238.672C111.309 238.788 111.62 238.881 111.967 238.952C112.322 239.023 112.704 239.059 113.113 239.059C113.761 239.059 114.223 238.926 114.499 238.659C114.774 238.393 114.912 237.997 114.912 237.473V237.206C114.752 237.286 114.539 237.366 114.272 237.446C114.015 237.526 113.717 237.566 113.379 237.566C112.935 237.566 112.526 237.495 112.153 237.353C111.789 237.211 111.474 237.002 111.207 236.727C110.949 236.451 110.745 236.109 110.594 235.7C110.452 235.283 110.381 234.803 110.381 234.261C110.381 233.755 110.456 233.288 110.607 232.862C110.767 232.435 110.994 232.071 111.287 231.769C111.589 231.467 111.953 231.231 112.38 231.062C112.806 230.894 113.291 230.809 113.833 230.809C114.357 230.809 114.854 230.849 115.325 230.929C115.796 231.009 116.196 231.094 116.525 231.182V237.22ZM121.002 238.059C120.522 238.05 120.122 237.997 119.802 237.899C119.491 237.802 119.243 237.664 119.056 237.486C118.869 237.3 118.736 237.073 118.656 236.807C118.585 236.531 118.55 236.22 118.55 235.874V227.851L120.162 227.584V235.567C120.162 235.763 120.176 235.927 120.202 236.06C120.238 236.193 120.296 236.309 120.375 236.407C120.455 236.496 120.562 236.567 120.695 236.62C120.838 236.664 121.015 236.7 121.228 236.727L121.002 238.059ZM122.146 234.474C122.146 233.861 122.235 233.324 122.413 232.862C122.6 232.4 122.844 232.018 123.146 231.715C123.448 231.404 123.795 231.173 124.185 231.022C124.576 230.863 124.976 230.783 125.385 230.783C126.345 230.783 127.091 231.08 127.624 231.675C128.166 232.271 128.437 233.159 128.437 234.341C128.437 234.43 128.432 234.532 128.424 234.648C128.424 234.754 128.419 234.852 128.41 234.941H123.812C123.857 235.5 124.052 235.936 124.399 236.247C124.754 236.549 125.265 236.7 125.931 236.7C126.322 236.7 126.678 236.664 126.998 236.593C127.326 236.522 127.584 236.447 127.771 236.367L127.984 237.686C127.895 237.731 127.771 237.779 127.611 237.833C127.46 237.877 127.282 237.917 127.078 237.953C126.882 237.997 126.669 238.033 126.438 238.059C126.207 238.086 125.971 238.099 125.731 238.099C125.118 238.099 124.585 238.01 124.132 237.833C123.679 237.646 123.306 237.393 123.013 237.073C122.719 236.744 122.502 236.362 122.36 235.927C122.217 235.483 122.146 234.998 122.146 234.474ZM126.824 233.755C126.824 233.532 126.793 233.324 126.731 233.128C126.669 232.924 126.576 232.751 126.451 232.608C126.336 232.457 126.189 232.342 126.011 232.262C125.843 232.173 125.638 232.129 125.398 232.129C125.149 232.129 124.932 232.177 124.745 232.275C124.559 232.364 124.399 232.484 124.265 232.635C124.141 232.786 124.043 232.959 123.972 233.155C123.901 233.35 123.852 233.55 123.826 233.755H126.824ZM131.959 237.046C131.959 237.357 131.853 237.611 131.639 237.806C131.435 238.002 131.186 238.099 130.893 238.099C130.591 238.099 130.338 238.002 130.133 237.806C129.929 237.611 129.827 237.357 129.827 237.046C129.827 236.735 129.929 236.482 130.133 236.287C130.338 236.082 130.591 235.98 130.893 235.98C131.186 235.98 131.435 236.082 131.639 236.287C131.853 236.482 131.959 236.735 131.959 237.046ZM133.3 234.448C133.3 233.932 133.38 233.452 133.54 233.008C133.7 232.555 133.927 232.164 134.22 231.835C134.522 231.507 134.886 231.249 135.313 231.062C135.739 230.876 136.219 230.783 136.752 230.783C137.41 230.783 138.032 230.902 138.618 231.142L138.271 232.462C138.085 232.382 137.872 232.315 137.632 232.262C137.401 232.209 137.152 232.182 136.885 232.182C136.255 232.182 135.775 232.382 135.446 232.782C135.117 233.173 134.953 233.728 134.953 234.448C134.953 235.141 135.108 235.691 135.419 236.1C135.73 236.5 136.255 236.7 136.992 236.7C137.267 236.7 137.538 236.673 137.805 236.62C138.072 236.567 138.303 236.5 138.498 236.42L138.725 237.753C138.547 237.842 138.276 237.922 137.912 237.993C137.556 238.064 137.187 238.099 136.805 238.099C136.21 238.099 135.69 238.01 135.246 237.833C134.811 237.646 134.446 237.393 134.153 237.073C133.869 236.744 133.656 236.358 133.514 235.914C133.371 235.46 133.3 234.972 133.3 234.448ZM146.134 234.434C146.134 234.985 146.054 235.487 145.894 235.94C145.734 236.393 145.507 236.78 145.214 237.1C144.921 237.42 144.566 237.668 144.148 237.846C143.739 238.024 143.286 238.113 142.789 238.113C142.291 238.113 141.838 238.024 141.429 237.846C141.021 237.668 140.67 237.42 140.376 237.1C140.083 236.78 139.852 236.393 139.683 235.94C139.523 235.487 139.443 234.985 139.443 234.434C139.443 233.883 139.523 233.386 139.683 232.942C139.852 232.488 140.083 232.102 140.376 231.782C140.678 231.462 141.034 231.218 141.443 231.049C141.851 230.871 142.3 230.783 142.789 230.783C143.277 230.783 143.726 230.871 144.135 231.049C144.552 231.218 144.908 231.462 145.201 231.782C145.494 232.102 145.721 232.488 145.881 232.942C146.049 233.386 146.134 233.883 146.134 234.434ZM144.481 234.434C144.481 233.741 144.33 233.195 144.028 232.795C143.735 232.386 143.322 232.182 142.789 232.182C142.256 232.182 141.838 232.386 141.536 232.795C141.243 233.195 141.096 233.741 141.096 234.434C141.096 235.136 141.243 235.691 141.536 236.1C141.838 236.509 142.256 236.713 142.789 236.713C143.322 236.713 143.735 236.509 144.028 236.1C144.33 235.691 144.481 235.136 144.481 234.434ZM151.767 234.261C151.767 233.532 151.673 233.008 151.487 232.688C151.309 232.36 150.972 232.195 150.474 232.195C150.296 232.195 150.101 232.209 149.888 232.235C149.674 232.262 149.514 232.284 149.408 232.302V237.926H147.795V231.182C148.106 231.094 148.51 231.009 149.008 230.929C149.514 230.849 150.047 230.809 150.607 230.809C151.087 230.809 151.478 230.871 151.78 230.996C152.091 231.12 152.349 231.285 152.553 231.489C152.651 231.418 152.775 231.342 152.926 231.262C153.077 231.182 153.246 231.111 153.433 231.049C153.619 230.978 153.815 230.92 154.019 230.876C154.232 230.831 154.446 230.809 154.659 230.809C155.201 230.809 155.645 230.889 155.992 231.049C156.347 231.2 156.622 231.418 156.818 231.702C157.022 231.978 157.16 232.315 157.231 232.715C157.311 233.106 157.351 233.537 157.351 234.008V237.926H155.738V234.261C155.738 233.532 155.649 233.008 155.472 232.688C155.294 232.36 154.952 232.195 154.446 232.195C154.188 232.195 153.944 232.24 153.713 232.329C153.482 232.408 153.308 232.488 153.193 232.568C153.264 232.791 153.313 233.026 153.339 233.275C153.366 233.524 153.379 233.79 153.379 234.074V237.926H151.767V234.261Z" fill="white"/>
<path d="M56.4356 233.541C56.2312 234.323 56.0091 235.087 55.7692 235.834C55.5382 236.571 55.3072 237.269 55.0762 237.926H53.7568C53.5791 237.517 53.3925 237.051 53.197 236.527C53.0016 236.002 52.8061 235.443 52.6106 234.847C52.4151 234.252 52.2197 233.626 52.0242 232.968C51.8287 232.311 51.6377 231.64 51.4511 230.956H53.157C53.237 231.329 53.3303 231.733 53.4369 232.169C53.5435 232.595 53.6546 233.035 53.7701 233.488C53.8856 233.932 54.0056 234.368 54.1299 234.794C54.2543 235.221 54.3787 235.612 54.5031 235.967C54.6364 235.558 54.7652 235.136 54.8896 234.701C55.0229 234.265 55.1473 233.83 55.2628 233.395C55.3783 232.959 55.4849 232.537 55.5826 232.129C55.6893 231.711 55.7825 231.32 55.8625 230.956H57.102C57.1819 231.32 57.2708 231.711 57.3685 232.129C57.4662 232.537 57.5684 232.959 57.675 233.395C57.7905 233.83 57.9105 234.265 58.0349 234.701C58.1682 235.136 58.3014 235.558 58.4347 235.967C58.5502 235.612 58.6702 235.221 58.7945 234.794C58.9189 234.368 59.0389 233.932 59.1544 233.488C59.2788 233.035 59.3943 232.595 59.5009 232.169C59.6075 231.733 59.7008 231.329 59.7808 230.956H61.4467C61.2601 231.64 61.0691 232.311 60.8736 232.968C60.6782 233.626 60.4827 234.252 60.2872 234.847C60.0918 235.443 59.8963 236.002 59.7008 236.527C59.5053 237.051 59.3143 237.517 59.1277 237.926H57.8216C57.5906 237.269 57.3507 236.571 57.102 235.834C56.8621 235.087 56.6399 234.323 56.4356 233.541ZM67.0299 233.541C66.8255 234.323 66.6034 235.087 66.3635 235.834C66.1325 236.571 65.9015 237.269 65.6705 237.926H64.3511C64.1734 237.517 63.9868 237.051 63.7913 236.527C63.5958 236.002 63.4004 235.443 63.2049 234.847C63.0094 234.252 62.814 233.626 62.6185 232.968C62.423 232.311 62.232 231.64 62.0454 230.956H63.7513C63.8313 231.329 63.9246 231.733 64.0312 232.169C64.1378 232.595 64.2489 233.035 64.3644 233.488C64.4799 233.932 64.5998 234.368 64.7242 234.794C64.8486 235.221 64.973 235.612 65.0974 235.967C65.2307 235.558 65.3595 235.136 65.4839 234.701C65.6172 234.265 65.7416 233.83 65.8571 233.395C65.9726 232.959 66.0792 232.537 66.1769 232.129C66.2835 231.711 66.3768 231.32 66.4568 230.956H67.6962C67.7762 231.32 67.8651 231.711 67.9628 232.129C68.0605 232.537 68.1627 232.959 68.2693 233.395C68.3848 233.83 68.5048 234.265 68.6292 234.701C68.7624 235.136 68.8957 235.558 69.029 235.967C69.1445 235.612 69.2644 235.221 69.3888 234.794C69.5132 234.368 69.6332 233.932 69.7487 233.488C69.8731 233.035 69.9886 232.595 70.0952 232.169C70.2018 231.733 70.2951 231.329 70.3751 230.956H72.041C71.8544 231.64 71.6634 232.311 71.4679 232.968C71.2724 233.626 71.077 234.252 70.8815 234.847C70.686 235.443 70.4906 236.002 70.2951 236.527C70.0996 237.051 69.9086 237.517 69.722 237.926H68.4159C68.1849 237.269 67.945 236.571 67.6962 235.834C67.4563 235.087 67.2342 234.323 67.0299 233.541ZM77.6242 233.541C77.4198 234.323 77.1977 235.087 76.9578 235.834C76.7268 236.571 76.4958 237.269 76.2648 237.926H74.9453C74.7676 237.517 74.5811 237.051 74.3856 236.527C74.1901 236.002 73.9946 235.443 73.7992 234.847C73.6037 234.252 73.4082 233.626 73.2128 232.968C73.0173 232.311 72.8263 231.64 72.6397 230.956H74.3456C74.4256 231.329 74.5189 231.733 74.6255 232.169C74.7321 232.595 74.8432 233.035 74.9587 233.488C75.0742 233.932 75.1941 234.368 75.3185 234.794C75.4429 235.221 75.5673 235.612 75.6917 235.967C75.8249 235.558 75.9538 235.136 76.0782 234.701C76.2114 234.265 76.3358 233.83 76.4513 233.395C76.5668 232.959 76.6735 232.537 76.7712 232.129C76.8778 231.711 76.9711 231.32 77.0511 230.956H78.2905C78.3705 231.32 78.4593 231.711 78.5571 232.129C78.6548 232.537 78.757 232.959 78.8636 233.395C78.9791 233.83 79.0991 234.265 79.2234 234.701C79.3567 235.136 79.49 235.558 79.6233 235.967C79.7388 235.612 79.8587 235.221 79.9831 234.794C80.1075 234.368 80.2274 233.932 80.343 233.488C80.4673 233.035 80.5828 232.595 80.6895 232.169C80.7961 231.733 80.8894 231.329 80.9693 230.956H82.6353C82.4487 231.64 82.2577 232.311 82.0622 232.968C81.8667 233.626 81.6713 234.252 81.4758 234.847C81.2803 235.443 81.0848 236.002 80.8894 236.527C80.6939 237.051 80.5029 237.517 80.3163 237.926H79.0102C78.7792 237.269 78.5393 236.571 78.2905 235.834C78.0506 235.087 77.8285 234.323 77.6242 233.541ZM85.3001 237.046C85.3001 237.357 85.1935 237.611 84.9803 237.806C84.7759 238.002 84.5271 238.099 84.2339 238.099C83.9319 238.099 83.6786 238.002 83.4743 237.806C83.2699 237.611 83.1677 237.357 83.1677 237.046C83.1677 236.735 83.2699 236.482 83.4743 236.287C83.6786 236.082 83.9319 235.98 84.2339 235.98C84.5271 235.98 84.7759 236.082 84.9803 236.287C85.1935 236.482 85.3001 236.735 85.3001 237.046ZM88.2938 234.261C88.2938 234.945 88.4404 235.447 88.7336 235.767C89.0357 236.078 89.4222 236.233 89.8931 236.233C90.1508 236.233 90.3907 236.198 90.6128 236.127C90.8438 236.056 91.0304 235.971 91.1725 235.874V232.262C91.057 232.235 90.9149 232.213 90.7461 232.195C90.5773 232.169 90.364 232.155 90.1063 232.155C89.5199 232.155 89.0713 232.351 88.7603 232.742C88.4493 233.124 88.2938 233.63 88.2938 234.261ZM92.7852 237.22C92.7852 238.33 92.5008 239.143 91.9322 239.659C91.3725 240.174 90.5106 240.432 89.3467 240.432C88.9202 240.432 88.5026 240.396 88.0939 240.325C87.6941 240.254 87.3298 240.161 87.0011 240.045L87.2943 238.672C87.5697 238.788 87.8807 238.881 88.2272 238.952C88.5826 239.023 88.9646 239.059 89.3733 239.059C90.0219 239.059 90.484 238.926 90.7594 238.659C91.0348 238.393 91.1725 237.997 91.1725 237.473V237.206C91.0126 237.286 90.7994 237.366 90.5328 237.446C90.2752 237.526 89.9775 237.566 89.6399 237.566C89.1956 237.566 88.7869 237.495 88.4138 237.353C88.0495 237.211 87.7341 237.002 87.4675 236.727C87.2099 236.451 87.0055 236.109 86.8545 235.7C86.7123 235.283 86.6412 234.803 86.6412 234.261C86.6412 233.755 86.7167 233.288 86.8678 232.862C87.0277 232.435 87.2543 232.071 87.5475 231.769C87.8496 231.467 88.2139 231.231 88.6403 231.062C89.0668 230.894 89.551 230.809 90.093 230.809C90.6172 230.809 91.1148 230.849 91.5857 230.929C92.0566 231.009 92.4564 231.094 92.7852 231.182V237.22ZM101.141 234.434C101.141 234.985 101.061 235.487 100.901 235.94C100.741 236.393 100.514 236.78 100.221 237.1C99.9278 237.42 99.5724 237.668 99.1549 237.846C98.7461 238.024 98.293 238.113 97.7955 238.113C97.2979 238.113 96.8448 238.024 96.4361 237.846C96.0273 237.668 95.6764 237.42 95.3832 237.1C95.09 236.78 94.859 236.393 94.6902 235.94C94.5302 235.487 94.4503 234.985 94.4503 234.434C94.4503 233.883 94.5302 233.386 94.6902 232.942C94.859 232.488 95.09 232.102 95.3832 231.782C95.6853 231.462 96.0407 231.218 96.4494 231.049C96.8581 230.871 97.3068 230.783 97.7955 230.783C98.2841 230.783 98.7328 230.871 99.1415 231.049C99.5591 231.218 99.9145 231.462 100.208 231.782C100.501 232.102 100.727 232.488 100.887 232.942C101.056 233.386 101.141 233.883 101.141 234.434ZM99.488 234.434C99.488 233.741 99.337 233.195 99.0349 232.795C98.7417 232.386 98.3286 232.182 97.7955 232.182C97.2624 232.182 96.8448 232.386 96.5427 232.795C96.2495 233.195 96.1029 233.741 96.1029 234.434C96.1029 235.136 96.2495 235.691 96.5427 236.1C96.8448 236.509 97.2624 236.713 97.7955 236.713C98.3286 236.713 98.7417 236.509 99.0349 236.1C99.337 235.691 99.488 235.136 99.488 234.434ZM109.106 234.434C109.106 234.985 109.026 235.487 108.866 235.94C108.706 236.393 108.479 236.78 108.186 237.1C107.893 237.42 107.538 237.668 107.12 237.846C106.711 238.024 106.258 238.113 105.761 238.113C105.263 238.113 104.81 238.024 104.401 237.846C103.993 237.668 103.642 237.42 103.348 237.1C103.055 236.78 102.824 236.393 102.655 235.94C102.495 235.487 102.415 234.985 102.415 234.434C102.415 233.883 102.495 233.386 102.655 232.942C102.824 232.488 103.055 232.102 103.348 231.782C103.651 231.462 104.006 231.218 104.415 231.049C104.823 230.871 105.272 230.783 105.761 230.783C106.249 230.783 106.698 230.871 107.107 231.049C107.524 231.218 107.88 231.462 108.173 231.782C108.466 232.102 108.693 232.488 108.853 232.942C109.021 233.386 109.106 233.883 109.106 234.434ZM107.453 234.434C107.453 233.741 107.302 233.195 107 232.795C106.707 232.386 106.294 232.182 105.761 232.182C105.228 232.182 104.81 232.386 104.508 232.795C104.215 233.195 104.068 233.741 104.068 234.434C104.068 235.136 104.215 235.691 104.508 236.1C104.81 236.509 105.228 236.713 105.761 236.713C106.294 236.713 106.707 236.509 107 236.1C107.302 235.691 107.453 235.136 107.453 234.434ZM112.033 234.261C112.033 234.945 112.18 235.447 112.473 235.767C112.775 236.078 113.162 236.233 113.633 236.233C113.89 236.233 114.13 236.198 114.352 236.127C114.583 236.056 114.77 235.971 114.912 235.874V232.262C114.797 232.235 114.654 232.213 114.486 232.195C114.317 232.169 114.104 232.155 113.846 232.155C113.259 232.155 112.811 232.351 112.5 232.742C112.189 233.124 112.033 233.63 112.033 234.261ZM116.525 237.22C116.525 238.33 116.24 239.143 115.672 239.659C115.112 240.174 114.25 240.432 113.086 240.432C112.66 240.432 112.242 240.396 111.833 240.325C111.434 240.254 111.069 240.161 110.741 240.045L111.034 238.672C111.309 238.788 111.62 238.881 111.967 238.952C112.322 239.023 112.704 239.059 113.113 239.059C113.761 239.059 114.223 238.926 114.499 238.659C114.774 238.393 114.912 237.997 114.912 237.473V237.206C114.752 237.286 114.539 237.366 114.272 237.446C114.015 237.526 113.717 237.566 113.379 237.566C112.935 237.566 112.526 237.495 112.153 237.353C111.789 237.211 111.474 237.002 111.207 236.727C110.949 236.451 110.745 236.109 110.594 235.7C110.452 235.283 110.381 234.803 110.381 234.261C110.381 233.755 110.456 233.288 110.607 232.862C110.767 232.435 110.994 232.071 111.287 231.769C111.589 231.467 111.953 231.231 112.38 231.062C112.806 230.894 113.291 230.809 113.833 230.809C114.357 230.809 114.854 230.849 115.325 230.929C115.796 231.009 116.196 231.094 116.525 231.182V237.22ZM121.002 238.059C120.522 238.05 120.122 237.997 119.802 237.899C119.491 237.802 119.243 237.664 119.056 237.486C118.869 237.3 118.736 237.073 118.656 236.807C118.585 236.531 118.55 236.22 118.55 235.874V227.851L120.162 227.584V235.567C120.162 235.763 120.176 235.927 120.202 236.06C120.238 236.193 120.296 236.309 120.375 236.407C120.455 236.496 120.562 236.567 120.695 236.62C120.838 236.664 121.015 236.7 121.228 236.727L121.002 238.059ZM122.146 234.474C122.146 233.861 122.235 233.324 122.413 232.862C122.6 232.4 122.844 232.018 123.146 231.715C123.448 231.404 123.795 231.173 124.185 231.022C124.576 230.863 124.976 230.783 125.385 230.783C126.345 230.783 127.091 231.08 127.624 231.675C128.166 232.271 128.437 233.159 128.437 234.341C128.437 234.43 128.432 234.532 128.424 234.648C128.424 234.754 128.419 234.852 128.41 234.941H123.812C123.857 235.5 124.052 235.936 124.399 236.247C124.754 236.549 125.265 236.7 125.931 236.7C126.322 236.7 126.678 236.664 126.998 236.593C127.326 236.522 127.584 236.447 127.771 236.367L127.984 237.686C127.895 237.731 127.771 237.779 127.611 237.833C127.46 237.877 127.282 237.917 127.078 237.953C126.882 237.997 126.669 238.033 126.438 238.059C126.207 238.086 125.971 238.099 125.731 238.099C125.118 238.099 124.585 238.01 124.132 237.833C123.679 237.646 123.306 237.393 123.013 237.073C122.719 236.744 122.502 236.362 122.36 235.927C122.217 235.483 122.146 234.998 122.146 234.474ZM126.824 233.755C126.824 233.532 126.793 233.324 126.731 233.128C126.669 232.924 126.576 232.751 126.451 232.608C126.336 232.457 126.189 232.342 126.011 232.262C125.843 232.173 125.638 232.129 125.398 232.129C125.149 232.129 124.932 232.177 124.745 232.275C124.559 232.364 124.399 232.484 124.265 232.635C124.141 232.786 124.043 232.959 123.972 233.155C123.901 233.35 123.852 233.55 123.826 233.755H126.824ZM131.959 237.046C131.959 237.357 131.853 237.611 131.639 237.806C131.435 238.002 131.186 238.099 130.893 238.099C130.591 238.099 130.338 238.002 130.133 237.806C129.929 237.611 129.827 237.357 129.827 237.046C129.827 236.735 129.929 236.482 130.133 236.287C130.338 236.082 130.591 235.98 130.893 235.98C131.186 235.98 131.435 236.082 131.639 236.287C131.853 236.482 131.959 236.735 131.959 237.046ZM133.3 234.448C133.3 233.932 133.38 233.452 133.54 233.008C133.7 232.555 133.927 232.164 134.22 231.835C134.522 231.507 134.886 231.249 135.313 231.062C135.739 230.876 136.219 230.783 136.752 230.783C137.41 230.783 138.032 230.902 138.618 231.142L138.271 232.462C138.085 232.382 137.872 232.315 137.632 232.262C137.401 232.209 137.152 232.182 136.885 232.182C136.255 232.182 135.775 232.382 135.446 232.782C135.117 233.173 134.953 233.728 134.953 234.448C134.953 235.141 135.108 235.691 135.419 236.1C135.73 236.5 136.255 236.7 136.992 236.7C137.267 236.7 137.538 236.673 137.805 236.62C138.072 236.567 138.303 236.5 138.498 236.42L138.725 237.753C138.547 237.842 138.276 237.922 137.912 237.993C137.556 238.064 137.187 238.099 136.805 238.099C136.21 238.099 135.69 238.01 135.246 237.833C134.811 237.646 134.446 237.393 134.153 237.073C133.869 236.744 133.656 236.358 133.514 235.914C133.371 235.46 133.3 234.972 133.3 234.448ZM146.134 234.434C146.134 234.985 146.054 235.487 145.894 235.94C145.734 236.393 145.507 236.78 145.214 237.1C144.921 237.42 144.566 237.668 144.148 237.846C143.739 238.024 143.286 238.113 142.789 238.113C142.291 238.113 141.838 238.024 141.429 237.846C141.021 237.668 140.67 237.42 140.376 237.1C140.083 236.78 139.852 236.393 139.683 235.94C139.523 235.487 139.443 234.985 139.443 234.434C139.443 233.883 139.523 233.386 139.683 232.942C139.852 232.488 140.083 232.102 140.376 231.782C140.678 231.462 141.034 231.218 141.443 231.049C141.851 230.871 142.3 230.783 142.789 230.783C143.277 230.783 143.726 230.871 144.135 231.049C144.552 231.218 144.908 231.462 145.201 231.782C145.494 232.102 145.721 232.488 145.881 232.942C146.049 233.386 146.134 233.883 146.134 234.434ZM144.481 234.434C144.481 233.741 144.33 233.195 144.028 232.795C143.735 232.386 143.322 232.182 142.789 232.182C142.256 232.182 141.838 232.386 141.536 232.795C141.243 233.195 141.096 233.741 141.096 234.434C141.096 235.136 141.243 235.691 141.536 236.1C141.838 236.509 142.256 236.713 142.789 236.713C143.322 236.713 143.735 236.509 144.028 236.1C144.33 235.691 144.481 235.136 144.481 234.434ZM151.767 234.261C151.767 233.532 151.673 233.008 151.487 232.688C151.309 232.36 150.972 232.195 150.474 232.195C150.296 232.195 150.101 232.209 149.888 232.235C149.674 232.262 149.514 232.284 149.408 232.302V237.926H147.795V231.182C148.106 231.094 148.51 231.009 149.008 230.929C149.514 230.849 150.047 230.809 150.607 230.809C151.087 230.809 151.478 230.871 151.78 230.996C152.091 231.12 152.349 231.285 152.553 231.489C152.651 231.418 152.775 231.342 152.926 231.262C153.077 231.182 153.246 231.111 153.433 231.049C153.619 230.978 153.815 230.92 154.019 230.876C154.232 230.831 154.446 230.809 154.659 230.809C155.201 230.809 155.645 230.889 155.992 231.049C156.347 231.2 156.622 231.418 156.818 231.702C157.022 231.978 157.16 232.315 157.231 232.715C157.311 233.106 157.351 233.537 157.351 234.008V237.926H155.738V234.261C155.738 233.532 155.649 233.008 155.472 232.688C155.294 232.36 154.952 232.195 154.446 232.195C154.188 232.195 153.944 232.24 153.713 232.329C153.482 232.408 153.308 232.488 153.193 232.568C153.264 232.791 153.313 233.026 153.339 233.275C153.366 233.524 153.379 233.79 153.379 234.074V237.926H151.767V234.261Z" fill="white" fill-opacity="0.2"/>
<path d="M377.817 173.576C378.136 173.125 378.028 172.501 377.576 172.183L370.22 166.997C369.769 166.679 369.145 166.787 368.827 167.238C368.508 167.69 368.616 168.314 369.068 168.632L375.606 173.241L370.997 179.78C370.679 180.231 370.787 180.855 371.238 181.173C371.69 181.492 372.314 181.384 372.632 180.932L377.817 173.576ZM221.171 200.985L224.171 200.466L223.829 198.495L220.829 199.015L221.171 200.985ZM230.171 199.428L236.171 198.389L235.829 196.418L229.829 197.457L230.171 199.428ZM242.171 197.351L248.171 196.312L247.829 194.342L241.829 195.38L242.171 197.351ZM254.171 195.274L260.171 194.235L259.829 192.265L253.829 193.303L254.171 195.274ZM266.171 193.197L272.171 192.158L271.829 190.188L265.829 191.226L266.171 193.197ZM278.171 191.12L284.171 190.082L283.829 188.111L277.829 189.149L278.171 191.12ZM290.171 189.043L296.171 188.005L295.829 186.034L289.829 187.072L290.171 189.043ZM302.171 186.966L308.171 185.928L307.829 183.957L301.829 184.995L302.171 186.966ZM314.171 184.889L320.171 183.851L319.829 181.88L313.829 182.918L314.171 184.889ZM326.171 182.812L332.171 181.774L331.829 179.803L325.829 180.842L326.171 182.812ZM338.171 180.735L344.171 179.697L343.829 177.726L337.829 178.765L338.171 180.735ZM350.171 178.658L356.171 177.62L355.829 175.649L349.829 176.688L350.171 178.658ZM362.171 176.582L368.171 175.543L367.829 173.572L361.829 174.611L362.171 176.582ZM374.171 174.505L377.171 173.985L376.829 172.015L373.829 172.534L374.171 174.505ZM378.635 174.152C379.271 173.25 379.055 172.002 378.152 171.365L363.44 160.994C362.537 160.358 361.29 160.574 360.653 161.477C360.017 162.38 360.233 163.627 361.136 164.264L374.213 173.482L364.994 186.56C364.358 187.463 364.574 188.71 365.477 189.347C366.38 189.983 367.627 189.767 368.264 188.864L378.635 174.152ZM221.341 201.971L224.341 201.451L223.659 197.51L220.659 198.029L221.341 201.971ZM230.341 200.413L236.341 199.375L235.659 195.433L229.659 196.472L230.341 200.413ZM242.341 198.336L248.341 197.298L247.659 193.356L241.659 194.395L242.341 198.336ZM254.341 196.259L260.341 195.221L259.659 191.279L253.659 192.318L254.341 196.259ZM266.341 194.182L272.341 193.144L271.659 189.202L265.659 190.241L266.341 194.182ZM278.341 192.105L284.341 191.067L283.659 187.125L277.659 188.164L278.341 192.105ZM290.341 190.028L296.341 188.99L295.659 185.049L289.659 186.087L290.341 190.028ZM302.341 187.951L308.341 186.913L307.659 182.972L301.659 184.01L302.341 187.951ZM314.341 185.875L320.341 184.836L319.659 180.895L313.659 181.933L314.341 185.875ZM326.341 183.798L332.341 182.759L331.659 178.818L325.659 179.856L326.341 183.798ZM338.341 181.721L344.341 180.682L343.659 176.741L337.659 177.779L338.341 181.721ZM350.341 179.644L356.341 178.605L355.659 174.664L349.659 175.702L350.341 179.644ZM362.341 177.567L368.341 176.528L367.659 172.587L361.659 173.625L362.341 177.567ZM374.341 175.49L377.341 174.971L376.659 171.029L373.659 171.549L374.341 175.49Z" fill="black"/>
</svg>
