<svg width="120" height="60" viewBox="0 0 120 60" fill="none" xmlns="http://www.w3.org/2000/svg">
<path d="M64.2948 13.2617L65.3568 13.2803L68.2419 10.3952L68.3811 9.17264C66.0882 7.1332 63.0713 5.89209 59.7694 5.89209C53.7913 5.89209 48.7451 9.95982 47.2506 15.4701C47.5662 15.2501 48.2392 15.4144 48.2392 15.4144L54.0057 14.4657C54.0057 14.4657 54.3028 13.9737 54.4513 14.0043C55.6891 12.6502 57.3969 11.8194 59.2263 11.6814C61.0557 11.5434 62.8688 12.1086 64.2957 13.2617H64.2948Z" fill="#EA4335"/>
<path d="M72.3059 15.4802C71.643 13.0413 70.2829 10.8489 68.3923 9.17163L64.306 13.2579C65.1446 13.9319 65.8214 14.7854 66.2865 15.7556C66.7516 16.7258 66.9931 17.7879 66.9934 18.8638V19.5851C68.9818 19.5851 70.5951 21.2031 70.5951 23.1868C70.5951 25.1706 68.9771 26.7886 66.9934 26.7886H59.788L59.0668 27.5126V31.8366L59.788 32.5541H66.9934C69.4749 32.5475 71.8527 31.5584 73.6068 29.8031C75.3608 28.0478 76.3483 25.6692 76.3532 23.1878C76.3495 19.9982 74.7417 17.1725 72.2966 15.4802H72.3059Z" fill="#4285F4"/>
<path d="M52.565 32.5606H59.7685V26.7942H52.565C52.0535 26.7944 51.5479 26.6845 51.0825 26.472L50.0429 26.7904L47.1578 29.6755L46.9053 30.6502C48.5285 31.8966 50.5194 32.5691 52.5659 32.5625L52.565 32.5606Z" fill="#34A853"/>
<path d="M52.565 13.8214C50.0811 13.8253 47.7001 14.8138 45.9437 16.5702C44.1873 18.3266 43.1989 20.7076 43.1949 23.1915C43.1949 24.6379 43.5302 26.0646 44.1745 27.3595C44.8187 28.6545 45.7544 29.7825 46.9081 30.6549L51.0853 26.4776C50.4526 26.1929 49.9155 25.7315 49.5388 25.1489C49.162 24.5663 48.9615 23.8872 48.9614 23.1933C48.9614 21.205 50.5794 19.5916 52.5632 19.5916C53.2568 19.5928 53.9353 19.7938 54.5177 20.1704C55.1002 20.5471 55.5618 21.0835 55.8474 21.7155L60.0247 17.5383C58.3111 15.2825 55.6061 13.8251 52.5613 13.8251L52.565 13.8214Z" fill="#FBBC05"/>
<path d="M15.2165 50.7318C13.2485 50.7318 11.559 50.0356 10.135 48.6432C8.71106 47.2507 8 45.5761 8 43.623C8 41.6699 8.71014 39.9953 10.135 38.6029C11.56 37.2104 13.2513 36.5133 15.2165 36.5133C16.118 36.5002 17.0131 36.6666 17.8496 37.0029C18.6861 37.3392 19.4474 37.8386 20.089 38.472L18.7179 39.843C17.7797 38.9358 16.5205 38.4369 15.2155 38.4553C13.7953 38.4553 12.5885 38.9565 11.5989 39.9656C11.1176 40.4436 10.738 41.0142 10.4832 41.643C10.2284 42.2718 10.1037 42.9456 10.1165 43.6239C10.1165 45.0591 10.6085 46.276 11.5989 47.2814C12.0644 47.7697 12.6262 48.1561 13.2487 48.4161C13.8713 48.6761 14.541 48.804 15.2155 48.7917C16.6618 48.7917 17.8565 48.3275 18.808 47.3677C19.365 46.8107 19.7363 45.9753 19.8662 44.9217H15.2192V42.9797H21.7581C21.8277 43.325 21.8509 43.7223 21.8509 44.1865C21.8509 46.095 21.2911 47.6081 20.1679 48.7304C18.8943 50.0625 17.2438 50.7262 15.2063 50.7262L15.2165 50.7318ZM30.4124 49.4322C29.5213 50.3048 28.4352 50.7318 27.1523 50.7318C25.8694 50.7318 24.7815 50.2955 23.8922 49.4322C23.0029 48.5689 22.5573 47.4707 22.5573 46.1646C22.5573 44.8585 23.0029 43.7697 23.8922 42.8971C24.7815 42.0245 25.8694 41.5975 27.1523 41.5975C28.4352 41.5975 29.5231 42.0338 30.4124 42.8971C31.3017 43.7604 31.7473 44.8613 31.7473 46.1646C31.7473 47.4679 31.3017 48.5596 30.4124 49.4322ZM25.331 48.1512C25.5626 48.4028 25.8445 48.603 26.1584 48.7388C26.4723 48.8746 26.8112 48.9429 27.1532 48.9393C27.8587 48.9393 28.4658 48.6775 28.9755 48.1502C29.4851 47.623 29.7385 46.962 29.7385 46.1637C29.7385 45.3561 29.4879 44.6896 28.9838 44.1679C28.4798 43.6462 27.8717 43.3881 27.1532 43.3881C26.8106 43.3829 26.4706 43.4496 26.1553 43.5839C25.8399 43.7182 25.5563 43.9172 25.3227 44.1679C24.8186 44.6877 24.568 45.3524 24.568 46.1637C24.568 46.9602 24.8214 47.6239 25.331 48.1502V48.1512ZM40.437 49.4322C39.5458 50.3048 38.4597 50.7318 37.1768 50.7318C35.8939 50.7318 34.806 50.2955 33.9167 49.4322C33.0274 48.5689 32.5818 47.4707 32.5818 46.1646C32.5818 44.8585 33.0274 43.7697 33.9167 42.8971C34.806 42.0245 35.8939 41.5975 37.1768 41.5975C38.4597 41.5975 39.5477 42.0338 40.437 42.8971C41.3263 43.7604 41.7718 44.8613 41.7718 46.1646C41.7718 47.4679 41.3263 48.5596 40.437 49.4322ZM35.3555 48.1512C35.5871 48.4028 35.869 48.603 36.1829 48.7388C36.4968 48.8746 36.8358 48.9429 37.1778 48.9393C37.8833 48.9393 38.4903 48.6775 39 48.1502C39.5096 47.623 39.763 46.962 39.763 46.1637C39.763 45.3561 39.5124 44.6896 39.0083 44.1679C38.5043 43.6462 37.8963 43.3881 37.1778 43.3881C36.8351 43.3829 36.4951 43.4496 36.1798 43.5839C35.8645 43.7182 35.5808 43.9172 35.3472 44.1679C34.8431 44.6877 34.5925 45.3524 34.5925 46.1637C34.5925 46.9602 34.8459 47.6239 35.3555 48.1502V48.1512ZM47.0268 54.8534C46.0104 54.8534 45.1545 54.5804 44.4611 54.0365C43.7676 53.4925 43.271 52.8631 42.9702 52.1446L44.7228 51.4178C44.9066 51.8578 45.187 52.2393 45.5889 52.5633C45.9909 52.8873 46.4615 53.0478 47.0296 53.0478C47.7927 53.0478 48.3923 52.8158 48.824 52.3544C49.2556 51.8931 49.4738 51.2256 49.4738 50.3586V49.7088H49.4042C48.8472 50.4022 48.0331 50.7504 46.9943 50.7504C45.8266 50.7504 44.8036 50.3048 43.9245 49.4155C43.4975 48.9951 43.1604 48.4923 42.9338 47.9376C42.7072 47.3829 42.5958 46.7879 42.6064 46.1888C42.5956 45.5859 42.7069 44.9871 42.9334 44.4283C43.1599 43.8695 43.497 43.3622 43.9245 42.937C44.8017 42.0431 45.8275 41.5938 46.9943 41.5938C47.5142 41.5938 47.9857 41.6912 48.4072 41.889C48.8286 42.0867 49.1619 42.329 49.4042 42.6158H49.4738V41.8788H51.3823V50.1006C51.3823 51.6972 50.9757 52.8891 50.1589 53.6837C49.342 54.4728 48.3004 54.8719 47.0278 54.8719L47.0268 54.8534ZM47.1661 48.9383C47.497 48.9442 47.8251 48.8765 48.1267 48.7402C48.4284 48.604 48.696 48.4024 48.9103 48.1502C49.3782 47.6239 49.6121 46.9685 49.6121 46.1804C49.6121 45.384 49.3782 44.7174 48.9103 44.1846C48.6972 43.9304 48.43 43.7269 48.1283 43.5891C47.8265 43.4513 47.4978 43.3827 47.1661 43.3881C46.4606 43.3881 45.8591 43.6555 45.3634 44.1846C44.8676 44.7137 44.617 45.3802 44.617 46.1804C44.617 46.9657 44.8649 47.6239 45.3634 48.1502C45.8618 48.6766 46.4615 48.9393 47.1661 48.9393V48.9383ZM54.7798 36.996V50.4561H52.7683V36.996H54.7798ZM60.2938 50.7309C58.998 50.7309 57.9174 50.2909 57.0504 49.4127C56.1834 48.5345 55.749 47.4485 55.749 46.1526C55.749 44.8121 56.1667 43.7112 57.0059 42.8572C57.3995 42.4429 57.8749 42.1148 58.4018 41.8937C58.9288 41.6725 59.4959 41.5632 60.0673 41.5724C60.6215 41.5724 61.1376 41.6727 61.6111 41.876C62.0512 42.0563 62.4518 42.3213 62.79 42.6557C63.0721 42.9365 63.3223 43.2475 63.5363 43.5831C63.7132 43.8699 63.8641 44.1718 63.9875 44.4854L64.1963 45.0052L58.0752 47.5413C58.5394 48.4659 59.282 48.9291 60.2957 48.9291C61.2203 48.9291 61.9731 48.5086 62.5496 47.6638L64.1091 48.7053C63.761 49.2252 63.2708 49.694 62.635 50.1098C61.9991 50.5257 61.2166 50.7318 60.292 50.7318L60.2938 50.7309ZM57.7448 46.0152L61.8292 44.3164C61.7123 44.0268 61.5006 43.7929 61.1794 43.6146C60.8564 43.4337 60.4913 43.3415 60.1212 43.3473C59.5308 43.3473 58.9794 43.5887 58.4661 44.0741C57.9527 44.5596 57.7049 45.2085 57.7281 46.0161L57.7448 46.0152ZM74.7602 50.7309C72.9315 50.7309 71.3998 50.1126 70.1633 48.8743C68.9269 47.636 68.3068 46.0941 68.3068 44.244C68.3068 42.394 68.925 40.8502 70.1633 39.6138C71.4017 38.3773 72.9324 37.7572 74.7602 37.7572C76.6325 37.7572 78.154 38.4348 79.3208 39.7855L78.2115 40.8623C77.3761 39.8096 76.2157 39.2842 74.7583 39.2842C73.403 39.2842 72.265 39.7409 71.3237 40.6553C70.3824 41.5696 69.9276 42.7643 69.9276 44.244C69.9276 45.7237 70.3917 46.9212 71.3237 47.8365C72.2557 48.7518 73.3965 49.2075 74.7583 49.2075C76.2492 49.2075 77.5218 48.606 78.5643 47.4048L79.6736 48.5141C79.0923 49.2077 78.3627 49.7619 77.5385 50.1358C76.6644 50.5379 75.7121 50.7414 74.75 50.7318L74.7602 50.7309ZM82.7026 50.4561H81.1059V38.0385H82.7026V50.4561ZM85.3045 42.9741C86.1261 42.1136 87.1611 41.681 88.444 41.681C89.7269 41.681 90.7619 42.1127 91.5834 42.9741C92.405 43.8356 92.8153 44.9235 92.8153 46.2092C92.8153 47.4949 92.4068 48.5828 91.5834 49.4443C90.7601 50.3057 89.7269 50.7374 88.444 50.7374C87.1611 50.7374 86.1261 50.3057 85.3045 49.4443C84.483 48.5828 84.0727 47.4949 84.0727 46.2092C84.0727 44.9235 84.4812 43.8356 85.3045 42.9741ZM86.4927 48.4352C87.0497 48.995 87.6939 49.2762 88.4421 49.2762C89.1903 49.2762 89.8346 48.995 90.3915 48.4352C90.9485 47.8755 91.2158 47.131 91.2158 46.2073C91.2158 45.2837 90.9401 44.5383 90.3915 43.9795C89.8429 43.4206 89.1903 43.1384 88.4421 43.1384C87.6939 43.1384 87.0497 43.4197 86.4927 43.9795C85.9358 44.5392 85.6684 45.2837 85.6684 46.2073C85.6684 47.131 85.9441 47.8764 86.4927 48.4352ZM101.642 50.4561H100.115V49.2772H100.046C99.8043 49.681 99.433 50.0263 98.9364 50.2983C98.4397 50.5703 97.9153 50.7253 97.3583 50.7253C96.2935 50.7253 95.4887 50.4022 94.9401 49.7534C94.3915 49.1045 94.1158 48.2375 94.1158 47.1514V41.9475H95.7124V46.8896C95.7124 48.4751 96.4114 49.266 97.8104 49.266C98.1235 49.2726 98.4336 49.2037 98.7144 49.0651C98.9953 48.9264 99.2386 48.7222 99.4237 48.4696C99.8364 47.9463 100.057 47.297 100.048 46.6306V41.9475H101.644V50.4477L101.642 50.4561ZM107.052 50.7318C105.954 50.7318 105.005 50.2974 104.208 49.4303C103.412 48.5633 103.012 47.4884 103.012 46.2036C103.012 44.9189 103.412 43.8439 104.208 42.9769C105.005 42.1099 105.955 41.6755 107.052 41.6755C107.698 41.6755 108.281 41.8147 108.798 42.0904C109.314 42.3661 109.698 42.7142 109.951 43.1319H110.021L109.951 41.953V38.0357H111.548V50.4561H110.021V49.2772H109.951C109.698 49.6921 109.314 50.0402 108.798 50.3187C108.282 50.5916 107.699 50.7309 107.052 50.7309V50.7318ZM107.312 49.2744C107.673 49.2793 108.03 49.2076 108.36 49.064C108.691 48.9205 108.987 48.7084 109.229 48.4417C109.755 47.8875 110.018 47.1403 110.018 46.2138C110.018 45.2874 109.756 44.5309 109.229 43.986C108.987 43.7193 108.691 43.5072 108.36 43.3636C108.03 43.2201 107.673 43.1484 107.312 43.1533C106.571 43.1533 105.936 43.4346 105.404 43.9943C104.872 44.5541 104.607 45.2986 104.607 46.2222C104.607 47.1458 104.872 47.8912 105.404 48.4501C105.644 48.7176 105.938 48.931 106.267 49.076C106.597 49.221 106.953 49.2943 107.312 49.2911V49.2744Z" fill="#5F6368"/>
</svg>
