<svg width="79" height="47" viewBox="0 0 79 47" fill="none" xmlns="http://www.w3.org/2000/svg">
<path d="M22.149 17.0695C22.149 18.0367 22.2535 18.8209 22.4365 19.396C22.6456 19.9711 22.907 20.5984 23.273 21.2781C23.4037 21.4872 23.456 21.6963 23.456 21.8793C23.456 22.1407 23.2991 22.4021 22.9593 22.6635L21.3125 23.7614C21.0772 23.9182 20.8419 23.9966 20.6328 23.9966C20.3714 23.9966 20.11 23.8659 19.8486 23.6307C19.4827 23.2386 19.169 22.8203 18.9076 22.4021C18.6462 21.9577 18.3848 21.4611 18.0972 20.8598C16.0583 23.2647 13.4966 24.4672 10.412 24.4672C8.21626 24.4672 6.46487 23.8398 5.184 22.5851C3.90314 21.3304 3.24963 19.6574 3.24963 17.5662C3.24963 15.3443 4.03384 13.5406 5.62839 12.1813C7.22293 10.822 9.34028 10.1424 12.0327 10.1424C12.9215 10.1424 13.8364 10.2208 14.8036 10.3515C15.7708 10.4822 16.7641 10.6913 17.8097 10.9266V9.01835C17.8097 7.0317 17.3914 5.64627 16.5811 4.83593C15.7446 4.02558 14.3331 3.63348 12.3203 3.63348C11.4054 3.63348 10.4643 3.73804 9.49713 3.9733C8.52994 4.20856 7.5889 4.4961 6.67399 4.86207C6.25575 5.04505 5.94207 5.14961 5.75909 5.20189C5.57611 5.25417 5.44541 5.28031 5.34084 5.28031C4.97488 5.28031 4.7919 5.01891 4.7919 4.46996V3.1891C4.7919 2.77085 4.84418 2.45717 4.97488 2.27419C5.10558 2.09121 5.34084 1.90823 5.70681 1.72525C6.62171 1.25473 7.7196 0.862625 9.00046 0.548943C10.2813 0.209121 11.6406 0.0522803 13.0783 0.0522803C16.189 0.0522803 18.4632 0.758064 19.927 2.16963C21.3647 3.5812 22.0967 5.72469 22.0967 8.60011V17.0695H22.149ZM11.5361 21.0428C12.3987 21.0428 13.2874 20.886 14.2285 20.5723C15.1695 20.2586 16.006 19.6835 16.7118 18.8993C17.13 18.4027 17.4437 17.8537 17.6006 17.2264C17.7574 16.599 17.862 15.8409 17.862 14.9522V13.8543C17.1039 13.6713 16.2936 13.5145 15.4571 13.4099C14.6206 13.3053 13.8102 13.2531 12.9999 13.2531C11.2485 13.2531 9.96765 13.5929 9.10502 14.2987C8.2424 15.0044 7.82416 15.9978 7.82416 17.3048C7.82416 18.5334 8.13784 19.4483 8.79134 20.0756C9.41871 20.7291 10.3336 21.0428 11.5361 21.0428ZM32.5266 23.8659C32.0561 23.8659 31.7424 23.7875 31.5333 23.6045C31.3241 23.4477 31.1412 23.0817 30.9843 22.5851L24.8414 2.37875C24.6845 1.85595 24.6061 1.51613 24.6061 1.33315C24.6061 0.914905 24.8152 0.679644 25.2335 0.679644H27.7952C28.2919 0.679644 28.6317 0.758064 28.8147 0.941045C29.0238 1.09789 29.1806 1.46385 29.3375 1.96051L33.729 19.2653L37.8069 1.96051C37.9376 1.43771 38.0944 1.09789 38.3036 0.941045C38.5127 0.784204 38.8786 0.679644 39.3492 0.679644H41.4404C41.937 0.679644 42.2769 0.758064 42.486 0.941045C42.6951 1.09789 42.8781 1.46385 42.9826 1.96051L47.1128 19.4744L51.635 1.96051C51.7919 1.43771 51.9748 1.09789 52.1578 0.941045C52.3669 0.784204 52.7068 0.679644 53.1773 0.679644H55.6083C56.0266 0.679644 56.2618 0.888765 56.2618 1.33315C56.2618 1.46385 56.2357 1.59455 56.2095 1.75139C56.1834 1.90823 56.1311 2.11735 56.0266 2.40489L49.7268 22.6112C49.57 23.134 49.387 23.4738 49.1779 23.6307C48.9687 23.7875 48.6289 23.8921 48.1845 23.8921H45.9365C45.4398 23.8921 45.1 23.8137 44.8909 23.6307C44.6817 23.4477 44.4988 23.1079 44.3942 22.5851L40.3425 5.72469L36.3169 22.5589C36.1862 23.0817 36.0294 23.4216 35.8202 23.6045C35.6111 23.7875 35.2452 23.8659 34.7746 23.8659H32.5266ZM66.1167 24.5717C64.7574 24.5717 63.3981 24.4149 62.0911 24.1012C60.7841 23.7875 59.7646 23.4477 59.085 23.0556C58.6667 22.8203 58.3792 22.5589 58.2746 22.3237C58.1701 22.0884 58.1178 21.827 58.1178 21.5918V20.2586C58.1178 19.7097 58.3269 19.4483 58.719 19.4483C58.8758 19.4483 59.0327 19.4744 59.1895 19.5267C59.3464 19.579 59.5816 19.6835 59.843 19.7881C60.7318 20.1802 61.699 20.4939 62.7184 20.703C63.764 20.9121 64.7835 21.0167 65.8291 21.0167C67.4759 21.0167 68.7568 20.7291 69.6456 20.154C70.5343 19.579 71.0049 18.7425 71.0049 17.6707C71.0049 16.9388 70.7696 16.3376 70.2991 15.8409C69.8286 15.3443 68.9398 14.8999 67.6589 14.4816L63.8686 13.3053C61.9604 12.7041 60.5488 11.8153 59.6862 10.639C58.8236 9.48887 58.3792 8.208 58.3792 6.84872C58.3792 5.75083 58.6144 4.78365 59.085 3.94716C59.5555 3.11068 60.1828 2.37875 60.967 1.80367C61.7513 1.20245 62.64 0.758064 63.6856 0.444382C64.7312 0.130701 65.8291 0 66.9793 0C67.5544 0 68.1556 0.0261401 68.7307 0.104561C69.3319 0.182981 69.8808 0.287541 70.4298 0.392102C70.9526 0.522803 71.4492 0.653503 71.9198 0.810344C72.3903 0.967185 72.7563 1.12403 73.0177 1.28087C73.3836 1.48999 73.645 1.69911 73.8019 1.93437C73.9587 2.14349 74.0371 2.43103 74.0371 2.79699V4.02558C74.0371 4.57452 73.828 4.86207 73.4359 4.86207C73.2268 4.86207 72.887 4.75751 72.4426 4.54838C70.9526 3.86874 69.2796 3.52892 67.4237 3.52892C65.9337 3.52892 64.7574 3.76418 63.947 4.26084C63.1367 4.75751 62.7184 5.51557 62.7184 6.58731C62.7184 7.31924 62.9798 7.9466 63.5026 8.44327C64.0254 8.93993 64.9926 9.43659 66.3781 9.88097L70.09 11.0573C71.972 11.6585 73.3313 12.495 74.1417 13.5667C74.952 14.6385 75.3441 15.8671 75.3441 17.2264C75.3441 18.3504 75.1089 19.3698 74.6645 20.2586C74.194 21.1474 73.5666 21.9316 72.7563 22.5589C71.9459 23.2124 70.9787 23.683 69.8547 24.0228C68.6784 24.3887 67.4498 24.5717 66.1167 24.5717Z" fill="#252F3E"/>
<path fill-rule="evenodd" clip-rule="evenodd" d="M71.0573 37.2759C62.4572 43.628 49.9622 47.0001 39.2186 47.0001C24.1619 47.0001 10.5951 41.4322 0.348191 32.1786C-0.462153 31.4467 0.269771 30.4534 1.23696 31.0284C12.3204 37.4589 25.9917 41.3538 40.1335 41.3538C49.6746 41.3538 60.1568 39.3671 69.8025 35.2893C71.2403 34.6358 72.4688 36.2303 71.0573 37.2759Z" fill="#FF9900"/>
<path fill-rule="evenodd" clip-rule="evenodd" d="M74.6383 33.1981C73.5405 31.7865 67.3714 32.5184 64.5744 32.8582C63.7379 32.9628 63.6072 32.2309 64.3653 31.6819C69.2796 28.2314 77.3569 29.2248 78.298 30.3749C79.239 31.5512 78.0366 39.6285 73.4359 43.4973C72.7301 44.0985 72.0505 43.7848 72.3642 43.0006C73.4098 40.4127 75.7362 34.5835 74.6383 33.1981Z" fill="#FF9900"/>
</svg>
