<svg width="120" height="60" viewBox="0 0 120 60" fill="none" xmlns="http://www.w3.org/2000/svg">
<path d="M14.1988 25.6659H20.519C22.794 25.6659 25.4178 27.6066 25.4178 29.9978C25.4178 32.389 22.7962 34.3297 20.519 34.3297H14.1988C11.9238 34.3297 10.1667 32.3912 10.1667 29.9978C10.1667 27.6045 11.9238 25.6659 14.1988 25.6659ZM101.212 23.5C98.1767 23.5 95.75 26.4089 95.75 29.9978C95.75 33.5868 98.1983 36.4957 101.212 36.4957H109.92L112 34.3297H101.167C99.221 34.2279 98.3738 32.9478 97.9167 31.0808H109.92L112 28.9149H97.9167C98.3782 27.05 99.1993 25.6768 101.167 25.6659H109.92L112 23.5H101.212ZM81.6667 23.5V35.2524C81.6667 35.573 81.8725 35.8849 82.1022 36.1231C82.3318 36.3614 82.6417 36.4957 82.9797 36.4957L91.5033 36.5L93.67 34.3341L83.8333 34.3297V23.5043L81.6667 23.5ZM68.3243 23.5C64.8772 23.5 62.1472 26.4154 62.1472 30.0043C62.1472 33.5933 64.8772 36.4957 68.3243 36.4957L76.2305 36.4697L78.72 34.3297H68.2788C66.0038 34.3297 64.2922 32.3934 64.2922 30C64.2922 27.6066 66.0038 25.6659 68.2788 25.6659L76.2717 25.7006L78.72 23.5H68.3243V23.5ZM53.5 23.5C52.941 23.5 52.369 23.9657 52.0483 24.5462L45.9167 36.4957H48.0833L53.5 25.6659L57.1638 32.1638H51.42L53.4588 34.2864L58.1843 34.2734L59.61 36.4935L61.9522 36.474L54.852 24.5462C54.3537 23.7469 54.0417 23.5 53.5 23.5ZM29.6667 23.5V36.4957H31.8333V25.6659H38.3333C39.4492 25.6659 40.5 26.6709 40.5 27.8319C40.5 28.9928 39.4492 29.9978 38.3333 29.9978H32.9167L40.4588 36.4957H43.75L38.3333 32.1638L39.0635 32.1443C40.6668 32.1465 42.6667 30.2599 42.6667 27.8319C42.6667 25.4039 41.1782 23.5303 39.3018 23.5H29.6667ZM14.2443 23.5C10.7972 23.5 8 26.411 8 29.9978C8 33.5846 10.7972 36.4957 14.2443 36.4957H20.48C23.9272 36.4957 27.5 33.5868 27.5 29.9978C27.5 26.4089 23.9272 23.5 20.48 23.5H14.2443Z" fill="#373C41"/>
</svg>
